<?xml version="1.0" standalone="no"?>
<!DOCTYPE svg PUBLIC "-//W3C//DTD SVG 1.1//EN" "http://www.w3.org/Graphics/SVG/1.1/DTD/svg11.dtd" >
<svg xmlns="http://www.w3.org/2000/svg" xmlns:xlink="http://www.w3.org/1999/xlink" version="1.1">
<metadata>
Created by FontForge 20170731 at Fri Sep  7 16:55:03 2018
 By Aleksey,,,
Copyright 2018 The Mali Project Authors (https://github.com/cadsondemak/Mali)
</metadata>
<defs>
<font id="Mali-SemiBoldItalic" horiz-adv-x="0" >
  <font-face 
    font-family="Mali SemiBold"
    font-weight="600"
    font-style="italic"
    font-stretch="normal"
    units-per-em="1000"
    panose-1="0 0 7 0 0 0 0 0 0 0"
    ascent="800"
    descent="-200"
    x-height="509"
    cap-height="710"
    bbox="-702 -553.08 1532 1485"
    underline-thickness="50"
    underline-position="-150"
    slope="-10"
    unicode-range="U+000D-FB02"
  />
<missing-glyph horiz-adv-x="522" 
d="M320 11h-61l-136 -1q-12 0 -16 4.5t-5 17.5v327l2 145q3 117 3 185q0 15 9 24t26 9l95 -1q20 -1 63 -1l94 1q24 1 63 1q13 0 20 -7.5t7 -21.5l-4 -329q-1 -100 -1 -330q0 -13 -4 -18.5t-17 -5.5q-107 0 -138 1zM423 364l3 299h-130h-35q-21 1 -91 1q-8 0 -8 -9
q0 -5 -1.5 -102t-1.5 -230q0 -104 0.5 -153.5t0.5 -71.5v-30l123 1q46 -1 95 -1q15 -1 46 -1z" />
    <glyph glyph-name="fi" unicode="fi" horiz-adv-x="742" 
d="M450 706.5q42 -33.5 42 -90.5q0 -18 -2 -27q-7 -37 -23.5 -52.5t-47.5 -15.5q-54 0 -54 40q0 8 1 12q5 25 5 39q0 15 -6.5 22.5t-22.5 7.5q-26 0 -39 -24.5t-25 -91.5q-14 -76 -19 -106h62q36 0 36 -36q0 -24 -14 -39t-39 -16l-60 -2l-11 -70q-21 -133 -34 -206
q-4 -25 -21.5 -38t-45.5 -13q-25 0 -39 10t-14 30l1 9q20 138 43 276l-36 -1q-24 0 -34.5 9t-10.5 28q0 26 15 42t43 16q22 0 38 1l18 110q18 103 63 156.5t123 53.5q66 0 108 -33.5zM586.5 554.5q-18.5 17.5 -18.5 46.5q0 41 28.5 68.5t69.5 27.5q31 0 49.5 -17.5
t18.5 -46.5q0 -40 -28.5 -68t-69.5 -28q-31 0 -49.5 17.5zM488.5 17.5q-14.5 11.5 -14.5 29.5q0 6 1 9l78 388q4 23 23.5 36.5t46.5 13.5q25 0 39.5 -11.5t14.5 -29.5q0 -7 -1 -11l-77 -386q-4 -23 -24 -36.5t-47 -13.5q-25 0 -39.5 11.5z" />
    <glyph glyph-name="fl" unicode="fl" horiz-adv-x="679" 
d="M450 706.5q42 -33.5 42 -90.5q0 -18 -2 -27q-7 -37 -23.5 -52.5t-47.5 -15.5q-54 0 -54 40q0 8 1 12q5 25 5 39q0 15 -6.5 22.5t-22.5 7.5q-26 0 -39 -24.5t-25 -91.5q-14 -76 -19 -106h62q36 0 36 -36q0 -24 -14 -39t-39 -16l-60 -2l-11 -70q-21 -133 -34 -206
q-4 -25 -21.5 -38t-45.5 -13q-25 0 -39 10t-14 30l1 9q20 138 43 276l-36 -1q-24 0 -34.5 9t-10.5 28q0 26 15 42t43 16q22 0 38 1l18 110q18 103 63 156.5t123 53.5q66 0 108 -33.5zM466.5 22q-14.5 13 -12.5 32l115 685q4 24 24 38.5t48 14.5q24 0 39.5 -13.5t12.5 -32.5
l-117 -685q-4 -24 -24.5 -38t-45.5 -14t-39.5 13z" />
    <glyph glyph-name="uni0E240E45" unicode="&#xe24;&#xe45;" horiz-adv-x="949" 
d="M872 546q41 -47 41 -118q0 -30 -9 -79q-3 -17 -32 -178l-13 -71q-24 -141 -67 -371q-4 -20 -23.5 -32t-44.5 -12q-26 0 -41.5 12.5t-12.5 31.5q16 99 33 184q29 162 34 194l26 143l22 118q6 35 6 58q0 39 -15 55.5t-45 16.5q-44 0 -74.5 -29t-40.5 -87l-32 -185l-16 -92
l-66 -372q-4 -22 -24.5 -35t-49.5 -13q-21 0 -34 11t-13 31q0 7 1 10q7 48 37 203q23 118 31 164l31 178q15 93 17 101q2 12 2 19q0 45 -38.5 70t-103.5 25q-42 0 -77.5 -10.5t-57.5 -26t-25 -30.5l72 -23q24 -6 24 -39q0 -20 -16 -79l-14 -55q5 1 15 1q42 0 71.5 -30.5
t29.5 -74.5q0 -63 -40 -101t-109 -38q-36 0 -63 15.5t-41.5 39.5t-14.5 48q0 21 10 63t28 107q17 58 20 77q1 7 -8 12t-34 15q-32 12 -48.5 23t-13.5 28q7 39 51 80t110.5 67.5t138.5 26.5q80 0 134 -27t71 -70q24 44 66 70.5t103 26.5q91 0 132 -47zM209.5 140.5
q-16.5 -19.5 -16.5 -41.5q0 -19 12 -29t29 -10q24 0 43.5 16.5t19.5 45.5q0 18 -11.5 28t-32.5 10q-27 0 -43.5 -19.5z" />
    <glyph glyph-name="uni0E260E45" unicode="&#xe26;&#xe45;" horiz-adv-x="940" 
d="M864 555.5q43 -43.5 43 -125.5q0 -34 -10 -87q-12 -77 -26 -147l-25 -143q-22 -132 -59 -323q-4 -20 -23.5 -33t-44.5 -13q-26 0 -43 13t-13 32q42 210 61 322q-2 -13 33 190l18 102q8 58 8 81q0 43 -13.5 61t-47.5 18q-42 0 -71.5 -28.5t-39.5 -82.5q-21 -114 -60 -343
l-58 -319q-4 -20 -22 -33t-43 -13q-26 0 -42.5 13.5t-12.5 32.5l58 320q37 198 61 339q2 14 2 27q0 41 -26 64.5t-78 23.5q-42 0 -82.5 -13.5t-67.5 -32.5t-28 -32l73 -25q32 -11 32 -60q0 -38 -17 -119t-32 -121q-37 -108 -139 -108q-55 0 -87 31.5t-32 79.5
q0 39 19.5 68.5t51 45.5t67.5 16q21 0 33 -6q17 72 17 94q0 17 -14 23l-20 5q-37 9 -58 19.5t-21 32.5q0 34 42.5 81t113.5 81.5t153 34.5q67 0 112 -25.5t63 -62.5q23 38 65.5 63t104.5 25q82 0 125 -43.5zM174.5 78q17.5 17 17.5 43q0 18 -10.5 29t-30.5 11
q-26 0 -43.5 -18t-17.5 -42q0 -18 12.5 -29t30.5 -11q24 0 41.5 17z" />
    <glyph glyph-name=".notdef" horiz-adv-x="522" 
d="M320 11h-61l-136 -1q-12 0 -16 4.5t-5 17.5v327l2 145q3 117 3 185q0 15 9 24t26 9l95 -1q20 -1 63 -1l94 1q24 1 63 1q13 0 20 -7.5t7 -21.5l-4 -329q-1 -100 -1 -330q0 -13 -4 -18.5t-17 -5.5q-107 0 -138 1zM423 364l3 299h-130h-35q-21 1 -91 1q-8 0 -8 -9
q0 -5 -1.5 -102t-1.5 -230q0 -104 0.5 -153.5t0.5 -71.5v-30l123 1q46 -1 95 -1q15 -1 46 -1z" />
    <glyph glyph-name=".null" 
 />
    <glyph glyph-name="nonmarkingreturn" unicode="&#xd;" horiz-adv-x="347" 
 />
    <glyph glyph-name="NULL" 
 />
    <glyph glyph-name="NULL" 
 />
    <glyph glyph-name="space" unicode=" " horiz-adv-x="347" 
 />
    <glyph glyph-name="exclam" unicode="!" horiz-adv-x="273" 
d="M104.5 211q-8.5 14 -5.5 33l69 428q3 22 18 34.5t36 12.5q18 0 27 -11t9 -27q0 -8 -1 -12l-70 -426q-4 -22 -19 -34t-35 -12t-28.5 14zM47 19q-19 19 -19 47q0 34 29.5 62.5t64.5 28.5q28 0 47.5 -19.5t19.5 -46.5q0 -22 -14 -43.5t-36.5 -34.5t-44.5 -13q-28 0 -47 19z
" />
    <glyph glyph-name="quotedbl" unicode="&#x22;" horiz-adv-x="410" 
d="M134 482q-11 9 -9 25l8 40q4 20 12.5 63t13.5 76q3 14 17 21.5t33 7.5t31.5 -7.5t10.5 -21.5l-33 -181q-3 -15 -17.5 -23.5t-35.5 -8.5q-20 0 -31 9zM290 482q-11 9 -8 25l8 40q4 20 12.5 63t13.5 76q2 14 16 21.5t34 7.5q19 0 31.5 -7.5t10.5 -21.5l-15 -83l-18 -98
q-3 -15 -17.5 -23.5t-36.5 -8.5q-20 0 -31 9z" />
    <glyph glyph-name="numbersign" unicode="#" horiz-adv-x="622" 
d="M572.5 436q10.5 -9 10.5 -24q0 -23 -15.5 -36.5t-38.5 -13.5h-23l-50 -148h36q17 0 27.5 -9.5t10.5 -24.5q0 -19 -16 -34.5t-36 -15.5h-50l-32 -96q-12 -37 -51 -37q-15 0 -24.5 9t-9.5 21q0 6 1 9l31 94h-144l-31 -96q-6 -18 -19 -28t-30 -10q-16 0 -25 8.5t-9 23.5
q0 9 3 19l27 83h-25q-18 0 -28 8.5t-10 23.5q0 21 15.5 36t36.5 15h38l49 152h-26q-18 0 -28.5 8.5t-10.5 23.5q0 6 1 9q3 19 18 31t35 12h38l43 134q15 43 50 43q17 0 26.5 -9t9.5 -25q0 -7 -3 -18l-41 -126l146 -2l49 146q11 36 49 36q16 0 25 -9t9 -24q0 -8 -3 -17
l-44 -133h10q18 0 28.5 -9zM421 363l-145 1l-50 -151l145 1z" />
    <glyph glyph-name="dollar" unicode="$" horiz-adv-x="605" 
d="M376 498l-15 -85l-2 -13h1q76 -25 128.5 -67.5t52.5 -128.5q0 -63 -34 -109t-92 -70.5t-127 -24.5h-2q-9 -41 -15 -81q-4 -24 -33 -24q-13 0 -20.5 5t-6.5 15l9 45l9 45q-81 14 -127.5 65t-46.5 127q0 43 18 64t57 21q34 0 44 -14t10 -40q0 -45 15 -74t50 -39l34 186
q-180 59 -180 189q0 60 34 108.5t91 77.5t125 32l14 78q2 9 11 16t22 7t21 -6.5t7 -14.5l-15 -83q79 -12 128 -61t49 -118q0 -43 -18.5 -61t-56.5 -18q-32 0 -40.5 11.5t-8.5 38.5q0 39 -18.5 65.5t-54.5 33.5q-16 -92 -17 -98zM244.5 448q17.5 -14 59.5 -29q9 58 30 177
q-46 -9 -76.5 -40t-30.5 -68q0 -26 17.5 -40zM396.5 250q-20.5 18 -58.5 32l-31 -171q47 5 78.5 29.5t31.5 62.5q0 29 -20.5 47z" />
    <glyph glyph-name="percent" unicode="%" horiz-adv-x="932" 
d="M250 8.5q-15 11.5 -15 28.5q0 9 3 15t10 16l371 633q8 15 25.5 23.5t37.5 8.5q22 0 37.5 -11t15.5 -28q0 -7 -3 -13.5t-6 -12t-5 -8.5l-365 -628q-10 -16 -28 -25.5t-39 -9.5q-24 0 -39 11.5zM192 447.5q-37 33.5 -37 85.5q0 46 25.5 84.5t67.5 60.5t90 22q60 0 96 -33
t36 -85q0 -46 -25 -84.5t-67 -61t-90 -22.5q-59 0 -96 33.5zM348.5 519q19.5 19 19.5 48q0 21 -13 34t-32 13q-25 0 -45.5 -19.5t-20.5 -49.5q0 -20 13.5 -32.5t34.5 -12.5q24 0 43.5 19zM546.5 85q-37.5 34 -37.5 86q0 45 25.5 83.5t68 60.5t90.5 22q60 0 96.5 -34
t36.5 -85q0 -46 -25.5 -84.5t-67 -60.5t-89.5 -22q-60 0 -97.5 34zM706 157.5q17 20.5 17 48.5q0 20 -10.5 33t-33.5 13q-30 0 -48 -21.5t-18 -50.5q0 -20 11 -31.5t34 -11.5q31 0 48 20.5z" />
    <glyph glyph-name="ampersand" unicode="&#x26;" horiz-adv-x="740" 
d="M648 74q0 -27 -15.5 -45t-39.5 -18q-13 0 -37 12q-41 22 -79 45q-43 -27 -91.5 -41.5t-97.5 -14.5q-101 0 -157 45t-56 134q0 54 34 109.5t86 96.5q-26 19 -40.5 48t-14.5 63q0 54 28 96.5t75.5 65.5t103.5 23q46 0 85 -18.5t61.5 -52t22.5 -75.5q0 -71 -38.5 -108
t-113.5 -60q53 -135 107 -185q37 47 37 93q0 21 -4 35q-2 14 -2 19q0 18 19 31t41 13q34 0 47 -26q10 -22 10 -59q0 -87 -60 -160q16 -9 45 -21l21 -10q23 -12 23 -35zM279 578.5q-28 -29.5 -28 -69.5q0 -24 15 -39.5t48 -19.5q45 7 69 29t24 66q0 31 -18.5 47t-44.5 16
q-37 0 -65 -29.5zM394 129l-4 4q-40 37 -69.5 92.5t-41.5 126.5q-42 -25 -67 -71t-25 -86q0 -43 26.5 -70t74.5 -27q51 0 106 31z" />
    <glyph glyph-name="quotesingle" unicode="'" horiz-adv-x="252" 
d="M133 482q-11 9 -9 25l8 40q4 20 12.5 63t13.5 76q3 14 17 21.5t33 7.5t31.5 -7.5t10.5 -21.5l-33 -181q-3 -15 -17.5 -23.5t-35.5 -8.5q-20 0 -31 9z" />
    <glyph glyph-name="parenleft" unicode="(" horiz-adv-x="365" 
d="M177 -124q-7 2 -13 9q-54 55 -83 134.5t-29 173.5q0 102 34.5 212t96.5 199t139 132q15 9 30 9q19 0 33 -12.5t11 -29.5q-2 -19 -12 -29t-20.5 -16.5t-14.5 -8.5q-60 -40 -105 -114.5t-68.5 -163t-23.5 -170.5q0 -86 21.5 -141t56.5 -97q16 -19 16 -38q0 -20 -15.5 -35.5
t-32.5 -15.5q-14 0 -21 2z" />
    <glyph glyph-name="parenright" unicode=")" horiz-adv-x="365" 
d="M7 -115.5q-13 10.5 -13 26.5q0 23 13 35t34 24q60 43 105 118t69 162.5t24 167.5q0 84 -24 137t-64 101q-16 17 -16 38q0 19 19.5 35t37.5 16q14 0 20.5 -2t12.5 -9q55 -56 84 -135.5t29 -173.5q0 -101 -34.5 -209t-96.5 -197.5t-139 -135.5q-15 -9 -30 -9
q-18 0 -31 10.5z" />
    <glyph glyph-name="asterisk" unicode="*" horiz-adv-x="504" 
d="M485.5 602q8.5 -9 8.5 -20t-7.5 -20t-19.5 -14l-123 -51l106 -51q13 -7 13 -20q0 -17 -12.5 -31t-26.5 -14q-13 0 -28 7l-67 40l-14 -83q-2 -13 -15.5 -22t-30.5 -9q-18 0 -27 8.5t-7 22.5l14 84l-77 -35q-6 -3 -14.5 -6t-13.5 -3q-11 0 -19.5 8.5t-8.5 21.5q0 22 21 30
l119 52l-115 56q-11 5 -11 21q0 13 12.5 26.5t23.5 13.5t25 -8l80 -45l16 95q6 34 46 34q35 0 35 -26q0 -5 -1 -8l-16 -95l81 40q2 1 14 5.5t20 4.5q11 0 19.5 -9z" />
    <glyph glyph-name="plus" unicode="+" horiz-adv-x="553" 
d="M510 346q10 -8 10 -24q0 -58 -61 -58h-136l-22 -125q-9 -50 -55 -50q-20 0 -29 8t-9 24l10 66l13 78q-92 0 -136 1q-40 1 -40 32q0 27 15 43t41 16q84 0 136 -1l21 116q4 24 16.5 36t38.5 12q39 0 39 -32q0 -11 -23 -133q54 -1 137 -1q24 0 34 -8z" />
    <glyph glyph-name="comma" unicode="," horiz-adv-x="305" 
d="M188.5 152q23.5 -24 23.5 -67t-19 -88t-50 -75q-25 -23 -57 -37t-60 -14q-34 0 -34 26q0 17 11 28t26 11q17 0 37 8.5t35 20.5q25 21 41 48q-20 -11 -47 -11q-32 0 -53 22t-21 52q0 41 30.5 70.5t72.5 29.5q41 0 64.5 -24zM132 67q11 11 11 29q0 11 -7 18t-20 7
q-16 0 -27.5 -12t-11.5 -28q0 -12 7.5 -18.5t19.5 -6.5q17 0 28 11z" />
    <glyph glyph-name="hyphen" unicode="-" horiz-adv-x="422" 
d="M72 332.5q-9 11.5 -9 27.5q0 26 15.5 43.5t38.5 17.5l115 -1q69 0 128 4q23 2 35 -9t12 -30q0 -25 -18 -43.5t-45 -19.5q-56 -3 -137 -3q-33 0 -50 1l-61 1q-15 0 -24 11.5z" />
    <glyph glyph-name="period" unicode="." horiz-adv-x="304" 
d="M63 18q-17 17 -17 43q0 38 28 66t64 28q26 0 44.5 -19.5t18.5 -46.5q0 -34 -29 -61t-64 -27q-28 0 -45 17z" />
    <glyph glyph-name="slash" unicode="/" horiz-adv-x="564" 
d="M71.5 8q-15.5 12 -15.5 31q0 14 11 36l411 799q8 15 19 21.5t28 6.5q23 0 40.5 -13t17.5 -34q0 -12 -5 -21t-6 -10l-409 -793q-19 -35 -48 -35q-28 0 -43.5 12z" />
    <glyph glyph-name="zero" unicode="0" horiz-adv-x="634" 
d="M153.5 45q-55.5 31 -85.5 85.5t-30 123.5q0 103 44 196.5t122 151t173 57.5q75 0 131 -34t86 -93t30 -134q0 -107 -43.5 -194.5t-121.5 -138.5t-176 -51q-74 0 -129.5 31zM399 148q48 38 73.5 101t25.5 136q0 79 -33 128.5t-91 49.5q-57 0 -105.5 -46.5t-77 -117
t-28.5 -137.5q0 -69 33 -110.5t92 -41.5q63 0 111 38z" />
    <glyph glyph-name="one" unicode="1" horiz-adv-x="444" 
d="M393 654.5q18 -17.5 14 -41.5l-99 -561q-4 -22 -23 -35.5t-47 -13.5q-24 0 -36 11t-12 28q0 7 1 10l79 447q-24 -26 -69 -68q-5 -5 -14.5 -8.5t-19.5 -3.5q-24 0 -37 12.5t-12 29.5q0 21 25 44q49 47 135 140q11 12 29 19.5t37 7.5q31 0 49 -17.5z" />
    <glyph glyph-name="two" unicode="2" horiz-adv-x="558" 
d="M465.5 94.5q15.5 -11.5 15.5 -29.5q0 -25 -17 -41t-45 -16q-11 0 -57 2q-102 3 -127 3q-103 0 -175 -4q-21 0 -34.5 9.5t-13.5 25.5q0 60 85 140.5t193 147.5q136 86 136 187q0 39 -23.5 62.5t-65.5 23.5q-43 0 -77.5 -33t-43.5 -80q-5 -24 -21.5 -34t-46.5 -10
q-49 0 -49 40q0 56 33.5 105t89 79t118.5 30q58 0 106 -22t76.5 -62t28.5 -90q0 -83 -55 -150.5t-150 -125.5q-128 -76 -178 -144q29 1 84 1q49 0 175 -3q23 0 38.5 -11.5z" />
    <glyph glyph-name="three" unicode="3" horiz-adv-x="595" 
d="M540.5 308q18.5 -31 18.5 -74q0 -65 -33 -118t-92 -83t-135 -30q-120 0 -194 49.5t-74 143.5q0 33 5 59q5 28 24 43t48 15q27 0 39.5 -12t10.5 -31l-3 -30l-2 -21q0 -118 139 -118q64 0 106.5 32t42.5 91q0 83 -111 83q-42 0 -42 35q0 29 14.5 45.5t42.5 16.5
q60 0 93.5 27t33.5 80q0 32 -21 53.5t-57 21.5q-45 0 -82 -28t-42 -71q-3 -30 -3 -35q0 -18 -18 -32.5t-48 -14.5q-19 0 -33 7.5t-18 22.5q-3 17 -3 30q0 59 33.5 109t90.5 79.5t123 29.5q54 0 101 -20.5t75 -57.5t28 -83q0 -54 -29.5 -98t-78.5 -67q32 -18 50.5 -49z" />
    <glyph glyph-name="four" unicode="4" horiz-adv-x="618" 
d="M589 284.5q11 -9.5 11 -28.5q0 -56 -56 -64q-26 -3 -84 -7l-30 -137q-4 -21 -23.5 -35t-47.5 -14q-23 0 -35.5 10.5t-12.5 29.5q0 4 2 14l28 128q-26 -1 -78 -1q-81 0 -124 5t-78 13q-38 11 -38 39q0 17 16 41q92 133 171 230t162 168q15 13 39 13q20 0 33 -12t13 -29
q0 -13 -7.5 -26.5t-27.5 -31.5q-73 -67 -141.5 -149t-103.5 -141q-4 -8 -4 -10q0 -4 3.5 -5.5t12.5 -3.5q33 -5 123 -5q33 0 50 1l43 197q4 22 20.5 35.5t44.5 13.5q26 0 39.5 -11.5t13.5 -31.5q0 -8 -1 -12l-40 -184q23 2 79 8q17 2 28 -7.5z" />
    <glyph glyph-name="five" unicode="5" horiz-adv-x="584" 
d="M95 46.5q-61 46.5 -61 129.5q0 23 5 53q4 25 23.5 39t47.5 14q26 0 41 -9.5t15 -26.5q0 -4 -2 -12q-4 -32 -4 -44q0 -46 24 -68t77 -22q80 0 120 46t40 129q0 52 -27.5 79.5t-81.5 27.5q-27 0 -54.5 -4t-73.5 -16q-8 -3 -24 -3q-22 0 -35 11t-12 29l14 70q37 180 44 217
q77 -3 216 -3q35 0 93 2l66 1q38 0 38 -33q0 -29 -16 -47t-45 -18q-39 0 -61 -1l-92 -1l-98 1l-23 -112q0 -9 9 -9l12 2q4 1 30 6.5t56 5.5q59 0 102.5 -27t66 -73t22.5 -102q0 -130 -77 -204t-212 -74q-102 0 -163 46.5z" />
    <glyph glyph-name="six" unicode="6" horiz-adv-x="605" 
d="M251.5 523q-56.5 -58 -86.5 -168q33 31 79 50t93 19q66 0 115 -25.5t75.5 -69.5t26.5 -96q0 -73 -35.5 -124.5t-98 -78.5t-141.5 -27q-114 0 -177.5 56t-63.5 161q0 45 7 88q30 169 115 269.5t218 100.5q76 0 135 -40t83 -101q6 -15 6 -22q0 -22 -23 -39.5t-44 -17.5
q-15 0 -23 6.5t-14 16t-9 13.5q-18 31 -30 47t-33 28t-52 12q-66 0 -122.5 -58zM215.5 290.5q-43.5 -36.5 -43.5 -101.5q0 -43 29 -66t86 -23q69 0 107 36.5t38 93.5q0 44 -26.5 70.5t-77.5 26.5q-69 0 -112.5 -36.5z" />
    <glyph glyph-name="seven" unicode="7" horiz-adv-x="557" 
d="M527.5 376.5q12.5 -10.5 12.5 -28.5q0 -26 -17 -43t-45 -17h-57q-60 -121 -139 -256q-8 -14 -27.5 -23t-39.5 -9q-25 0 -39.5 11t-14.5 28q0 14 9 27q36 60 120 220h-41q-46 0 -46 36q0 27 17.5 44t45.5 17h75q57 114 57 164q0 25 -18.5 35t-66.5 10q-78 0 -180 -25
q-5 -1 -15 -1q-19 0 -30 10.5t-11 27.5q0 41 56 60q98 28 189 28q95 0 146.5 -34.5t51.5 -98.5q0 -62 -52 -173q8 1 22 1q25 0 37.5 -10.5z" />
    <glyph glyph-name="eight" unicode="8" horiz-adv-x="615" 
d="M553 353.5q32 -46.5 32 -109.5q0 -76 -39.5 -130t-108.5 -82t-156 -28q-74 0 -132.5 24.5t-91 69t-32.5 101.5q0 82 61 142.5t152 81.5q-27 12 -43.5 36t-16.5 58q0 46 27 85t72.5 62t99.5 23q46 0 84 -18t60.5 -50t22.5 -70q0 -47 -24 -79.5t-63 -47.5q64 -22 96 -68.5z
M318 566.5q-24 -24.5 -24 -57.5q0 -25 15.5 -39t40.5 -14q33 0 56 24.5t23 58.5q0 24 -15 38t-39 14q-33 0 -57 -24.5zM380 118q40 21 62 55.5t22 74.5q0 49 -37 79.5t-97 30.5q-47 0 -89.5 -19.5t-68 -54.5t-25.5 -79q0 -51 36.5 -79.5t104.5 -28.5q52 0 92 21z" />
    <glyph glyph-name="nine" unicode="9" horiz-adv-x="598" 
d="M542.5 624q64.5 -62 64.5 -169q0 -39 -7 -75q-33 -180 -118.5 -278.5t-227.5 -98.5q-63 0 -115.5 19.5t-84 55.5t-31.5 85q0 16 3 34q4 23 22.5 37.5t45.5 14.5q22 0 35.5 -12t12.5 -32q0 -7 -1 -13t-1 -12q0 -40 34.5 -61.5t94.5 -21.5q71 0 127 58t88 171
q-30 -36 -74.5 -58t-97.5 -22q-104 0 -165.5 45.5t-61.5 128.5q0 77 38 137.5t102.5 94.5t141.5 34q111 0 175.5 -62zM395 356.5q36 20.5 57.5 54.5t21.5 74q0 47 -32 76t-84 29q-43 0 -78 -21t-54.5 -57.5t-19.5 -81.5q0 -47 27 -70.5t84 -23.5q42 0 78 20.5z" />
    <glyph glyph-name="colon" unicode=":" horiz-adv-x="315" 
d="M110.5 313q-21.5 20 -21.5 51q0 44 28.5 71.5t71.5 27.5q33 0 54.5 -20t21.5 -50q0 -44 -26.5 -72t-71.5 -28q-35 0 -56.5 20zM196.5 356.5q10.5 10.5 10.5 26.5q0 11 -7.5 18t-17.5 7q-13 0 -24 -11t-11 -27q0 -12 7 -18t18 -6q14 0 24.5 10.5zM69 34.5
q-23 22.5 -23 55.5q0 39 28 66.5t69 27.5q34 0 56 -22t22 -53q0 -43 -27 -70t-70 -27q-32 0 -55 22.5zM153.5 75.5q9.5 9.5 9.5 22.5q0 11 -7 17.5t-18 6.5q-14 0 -23.5 -10t-9.5 -21q-1 -12 6 -18.5t18 -6.5q15 0 24.5 9.5z" />
    <glyph glyph-name="semicolon" unicode=";" horiz-adv-x="353" 
d="M267.5 443q21.5 -20 21.5 -50q0 -44 -27 -72t-72 -28q-34 0 -56 20t-22 51q0 44 28.5 71.5t71.5 27.5q34 0 55.5 -20zM220.5 357q10.5 11 10.5 26q0 11 -8 18t-18 7q-13 0 -24 -11t-11 -27q0 -12 7 -18t18 -6q15 0 25.5 11zM215 152q23 -24 23 -67q0 -44 -18.5 -89
t-50.5 -74q-25 -23 -56.5 -37t-59.5 -14q-35 0 -35 26q0 17 11 28t26 11q18 0 37.5 8.5t34.5 20.5q26 19 42 48q-22 -11 -47 -11q-32 0 -53.5 22t-21.5 52q0 41 31 70.5t73 29.5q41 0 64 -24zM159 67q11 11 11 29q0 11 -7 18t-20 7q-16 0 -27.5 -12t-11.5 -28q0 -12 7 -18.5
t20 -6.5q17 0 28 11z" />
    <glyph glyph-name="less" unicode="&#x3c;" horiz-adv-x="553" 
d="M232 180q-91 39 -132.5 68t-41.5 61q0 38 57 75.5t167 75.5q53 19 132 42t96 23q18 0 28 -10.5t10 -26.5q0 -23 -14 -36t-44 -22l-35 -9q-100 -28 -149 -44q-136 -47 -136 -63q0 -4 18.5 -12.5t33 -14t20.5 -7.5q25 -8 41 -15q68 -27 168 -65q34 -12 34 -38
q0 -24 -11.5 -38.5t-33.5 -14.5q-38 0 -208 71z" />
    <glyph glyph-name="equal" unicode="=" horiz-adv-x="553" 
d="M81 356.5q-15 10.5 -15 28.5q0 24 23 39t59 15l325 3q26 0 43 -12t17 -30q0 -23 -23 -37t-56 -14l-334 -3q-24 0 -39 10.5zM54.5 186.5q-15.5 10.5 -15.5 29.5q0 24 21.5 38.5t58.5 16.5l332 10q25 1 42 -10.5t17 -29.5q0 -24 -21 -38t-56 -16l-339 -10q-24 -1 -39.5 9.5
z" />
    <glyph glyph-name="greater" unicode="&#x3e;" horiz-adv-x="553" 
d="M56 113.5q-12 8.5 -12 24.5q0 20 12 35.5t33 22.5q71 27 191 68q111 36 111 49t-96 55q-71 31 -174 58q-42 11 -42 41q0 23 15 37t39 14q19 0 92 -22t117 -40q87 -34 134.5 -71t47.5 -72q0 -26 -23 -46.5t-67 -40t-128 -50.5q-107 -39 -155.5 -55t-62.5 -16
q-20 0 -32 8.5z" />
    <glyph glyph-name="question" unicode="?" horiz-adv-x="542" 
d="M238 198q-9 10 -9 28q0 32 25.5 65.5t79.5 88.5q56 56 84.5 94t28.5 75q0 45 -27 72t-74 27q-68 0 -107.5 -32.5t-39.5 -88.5q0 -20 11 -33t29 -13q40 0 40 -35q0 -22 -16.5 -37t-39.5 -15q-49 0 -80.5 33.5t-31.5 84.5q0 62 30 112t83 78.5t118 28.5q55 0 99 -21.5
t69 -60t25 -87.5q0 -39 -18.5 -76t-44.5 -67t-68 -71q-44 -43 -65.5 -70.5t-21.5 -53.5q0 -36 -53 -36q-17 0 -26 10zM193 21q-16 16 -16 40q0 30 24.5 53.5t56.5 23.5q23 0 39 -16t16 -39q0 -30 -24 -54t-54 -24q-26 0 -42 16z" />
    <glyph glyph-name="at" unicode="@" horiz-adv-x="897" 
d="M674 573q72 -35 113 -96.5t41 -137.5q0 -71 -31.5 -141.5t-84.5 -115.5t-112 -45q-35 0 -58 16.5t-29 42.5q-46 -38 -115 -38t-102.5 39.5t-33.5 105.5q0 61 27 114.5t74 85.5t105 32q67 0 98 -45l4 12q4 13 16.5 20t30.5 7q21 0 30 -8.5t9 -21.5q0 -5 -2 -13
q-28 -78 -45 -133q-21 -63 -23 -101q-3 -33 26 -33q32 0 58 35.5t41.5 87.5t15.5 98q0 54 -26 96.5t-75.5 66.5t-117.5 24q-105 0 -179.5 -44t-112.5 -119t-38 -168q0 -104 62.5 -163.5t189.5 -59.5q31 0 52.5 3.5t71.5 15.5q3 1 10 1q15 0 24 -10t9 -25t-10.5 -25
t-35.5 -18q-31 -11 -71 -17t-81 -6q-100 0 -173 38.5t-111 106.5t-38 153q0 113 55.5 209t155 152.5t225.5 56.5q89 0 161 -35zM468 150.5q21 14.5 31 41.5l7 25q16 56 21 76q1 3 1 10q0 23 -20 40.5t-47 17.5q-29 0 -52.5 -22t-36.5 -56t-13 -67q0 -37 16.5 -58.5
t47.5 -21.5q24 0 45 14.5z" />
    <glyph glyph-name="A" unicode="A" horiz-adv-x="695" 
d="M618.5 179.5q-11.5 -19.5 -31.5 -19.5h-6q10 -79 13 -103q1 -4 1 -9q0 -26 -20 -42.5t-49 -16.5q-22 0 -39 9.5t-19 26.5l-14 136l-228 3l-14 -29q-16 -35 -51 -107q-19 -38 -64 -38q-29 0 -50 14.5t-17 36.5q2 12 5 17q184 360 271 533q35 69 59 95t64 26t63 -25.5
t32 -86.5q10 -69 20 -151t15 -118l7 -58h13q51 0 51 -44q0 -30 -11.5 -49.5zM443 274l-19 187q-4 43 -7.5 59.5t-8.5 16.5q-4 0 -9.5 -9.5t-15.5 -32.5l-14 -29l-90 -190z" />
    <glyph glyph-name="B" unicode="B" horiz-adv-x="656" 
d="M62 4l-8 1q-32 0 -32 35q0 29 15 51.5t39 21.5h11q31 118 58 270q9 47 23 137l8 46q-8 -3 -12 -3q-10 0 -17 8.5t-7 21.5q0 28 19.5 46.5t55.5 32.5q46 18 96.5 27t95.5 9q73 0 130 -23.5t89 -64.5t32 -93q0 -72 -53.5 -119.5t-140.5 -60.5q67 -19 97.5 -58t30.5 -84
q0 -69 -40 -116t-107 -69.5t-147 -22.5q-37 0 -83 2q-3 0 -39 2q-21 -31 -65 -31q-41 0 -49 34zM424 131q47 29 47 89q0 81 -131 83q-30 1 -44 7.5t-14 27.5q0 64 73 64q78 2 128 29.5t50 91.5q0 41 -37.5 62t-108.5 21q-43 0 -84 -11l-19 -118l-16 -93q-12 -72 -25.5 -130
t-37.5 -149q56 -3 93 -3q79 0 126 29z" />
    <glyph glyph-name="C" unicode="C" horiz-adv-x="733" 
d="M729.5 697.5q13.5 -11.5 13.5 -31.5q0 -6 -1 -10l-22 -114q-11 -61 -70 -61q-34 0 -45 20q-19 34 -33 53.5t-40 34t-64 14.5q-71 0 -136.5 -47t-106 -120.5t-40.5 -147.5q0 -57 25 -98t67.5 -62t95.5 -21q69 0 127.5 36t77.5 108q6 25 21 41.5t49 16.5q62 0 56 -61
q-8 -57 -49 -115.5t-113.5 -97.5t-168.5 -39q-88 0 -159 36t-112 102.5t-41 155.5q0 107 56 205t150 158.5t201 60.5q108 0 157 -63l3 18q4 18 20 29t42 11t39.5 -11.5z" />
    <glyph glyph-name="D" unicode="D" horiz-adv-x="707" 
d="M587.5 604.5q95.5 -75.5 95.5 -210.5q0 -117 -66.5 -205t-181 -135.5t-255.5 -47.5h-79q-33 0 -46.5 9.5t-13.5 33.5q0 27 15.5 46t43.5 19h17l72 479h-5q-21 0 -31 7.5t-10 29.5q0 37 18 54.5t46 17.5h12q16 16 51 16q38 0 47 -21q175 -17 270.5 -92.5zM399 160
q74 38 117.5 99.5t43.5 134.5q0 165 -250 193l-71 -472q86 7 160 45z" />
    <glyph glyph-name="E" unicode="E" horiz-adv-x="618" 
d="M638 680q12 -9 12 -28q0 -29 -17.5 -49t-41.5 -19q-92 8 -168 8q-69 0 -117 -3l-14 -89l-12 -78h30q149 -2 184 -4q14 -2 23 -9.5t9 -26.5q0 -27 -14.5 -49.5t-36.5 -22.5q-38 0 -54 1q-14 0 -41 0.5t-83 0.5h-36q-11 -56 -21.5 -97.5t-26.5 -92.5q59 -4 115 -4
q58 0 92 2t72 7l11 1q19 0 30 -10.5t11 -31.5q0 -28 -14.5 -45t-41.5 -22q-48 -9 -196 -9q-58 0 -108.5 2.5t-119.5 11.5q-31 4 -31 36q0 28 12.5 48.5t33.5 20.5h13q26 81 45 185h-9q-16 0 -25.5 9.5t-9.5 28.5q0 31 14 51.5t37 20.5h12l29 160h-4q-13 0 -18.5 11t-5.5 26
q0 67 71 74q52 5 175 5q136 0 202 -8q21 -3 33 -12z" />
    <glyph glyph-name="F" unicode="F" horiz-adv-x="614" 
d="M649 653q0 -30 -18 -50.5t-45 -16.5q-95 11 -191 11q-53 0 -83 -1q-10 -105 -22 -185q19 1 59 1q119 0 158 -9q38 -10 38 -42q0 -28 -16 -47.5t-48 -16.5q-82 7 -143 7q-46 0 -66 -1q-13 -72 -44 -206l-9 -41q-6 -23 -24.5 -37t-46.5 -14q-24 0 -38.5 11t-14.5 31
q0 6 1 10l16 72q16 61 36 163l-30 -3q-17 -2 -27 9t-10 31q0 59 64 69l21 3q10 67 22 191h-15q-42 -2 -42 37q0 63 56 70l12 1l1 9q3 20 23.5 32.5t50.5 12.5q56 0 50 -46v-3q28 1 75 1q58 0 122 -4t88 -9q40 -7 40 -40z" />
    <glyph glyph-name="G" unicode="G" horiz-adv-x="760" 
d="M322.5 541.5q-63.5 -38.5 -100 -102.5t-36.5 -137q0 -57 23.5 -100.5t65.5 -67.5t96 -24q67 0 112.5 39.5t66.5 118.5l-114 2q-49 1 -49 44q0 30 17.5 49t47.5 18l237 -5q56 0 56 -43q0 -27 -15.5 -46.5t-43.5 -19.5h-17q-32 -130 -108.5 -198.5t-197.5 -68.5
q-92 0 -160.5 39.5t-104.5 107.5t-36 153q0 106 52.5 196t142 142.5t194.5 52.5q72 0 118.5 -26.5t68.5 -62.5l5 21q5 22 16.5 32t36.5 10q26 0 43 -11t16 -31q-2 -27 -11.5 -59.5t-20.5 -48.5q-21 -29 -61 -29q-15 0 -29 7t-31 25q-28 30 -57 46t-82 16q-77 0 -140.5 -38.5
z" />
    <glyph glyph-name="H" unicode="H" horiz-adv-x="774" 
d="M728 330q0 -34 -17 -50.5t-46 -16.5h-10l-30 -206q-5 -27 -23.5 -43t-46.5 -16t-42.5 16t-11.5 40l31 211l-279 4l-59 -232q-11 -44 -68 -44q-26 0 -40.5 9.5t-14.5 27.5q0 10 2 16l57 225h-13q-18 0 -27 9.5t-9 31.5q0 32 15.5 50.5t43.5 18.5h18l74 289q7 25 26.5 39
t47.5 14q25 0 37.5 -12t12.5 -32q0 -12 -2 -18l-72 -282l266 -3l43 289q4 25 23 41.5t48 16.5q26 0 40 -11.5t14 -32.5q0 -7 -1 -11l-43 -294h14q42 0 42 -44z" />
    <glyph glyph-name="I" unicode="I" horiz-adv-x="486" 
d="M522 663q0 -30 -16 -49t-48 -18q-30 2 -70 2q-50 -271 -103 -483l87 -1q47 -1 47 -40q0 -32 -18 -51.5t-49 -19.5l-300 4q-42 1 -42 41q0 29 17.5 49.5t44.5 20.5l94 -1q58 251 100 481l-78 -5q-27 -3 -42 -3q-18 0 -28.5 11t-10.5 30q0 30 16 48t45 22q19 3 70.5 6
t109.5 3q76 0 134 -6q40 -3 40 -41z" />
    <glyph glyph-name="J" unicode="J" horiz-adv-x="622" 
d="M653 661q0 -28 -16.5 -47.5t-47.5 -19.5h-35q-18 -88 -47 -258l-12 -69q-23 -130 -88.5 -199t-172.5 -69q-94 0 -148 52.5t-54 146.5q0 34 5 60q11 63 75 63q26 0 38.5 -13t12.5 -34q0 -8 -1 -13q-5 -26 -5 -56q0 -95 77 -95q48 0 85 39t50 119q28 159 63 326h-51
q-24 0 -35.5 9t-11.5 28q0 9 1 14q3 25 17 39.5t32 15.5q66 3 135 3q50 0 90 -2q44 -3 44 -40z" />
    <glyph glyph-name="K" unicode="K" horiz-adv-x="641" 
d="M665.5 684.5q15.5 -14.5 15.5 -32.5q0 -15 -7.5 -29t-20.5 -23q-70 -45 -203 -122q-80 -47 -129 -74q-14 -8 -28.5 -16t-28.5 -17l132 -131q88 -87 146 -138q17 -17 17 -37q0 -27 -22 -47.5t-51 -20.5q-18 0 -35 12q-45 42 -138 139l-111 118l-39 -206q-4 -28 -24 -44.5
t-48 -16.5q-24 0 -38 10t-14 29l1 9q15 95 46 246l13 69q10 51 29 171q5 35 18 113q5 24 25 39t47 15q25 0 38.5 -13t13.5 -33q0 -7 -1 -11l-30 -177l153 96q82 51 195 125q17 12 41 12q22 0 37.5 -14.5z" />
    <glyph glyph-name="L" unicode="L" horiz-adv-x="562" 
d="M121 13.5q-38 15.5 -53.5 49.5t-15.5 94q0 142 123 502q7 20 26 32.5t47 12.5q21 0 36 -10t15 -25q0 -3 -2 -11l-9 -26q-59 -164 -89.5 -273.5t-30.5 -201.5q0 -32 14 -42.5t55 -10.5q46 0 83 4.5t100 15.5q28 6 43 8q21 3 32 -10t11 -33q0 -59 -58 -69
q-114 -22 -218 -22q-71 0 -109 15.5z" />
    <glyph glyph-name="M" unicode="M" horiz-adv-x="805" 
d="M750 677q19 -36 19 -107q0 -129 -71 -517q-5 -28 -22 -44t-46 -16q-26 0 -41.5 13.5t-15.5 34.5l1 9l35 190q23 123 34 189t11 100q0 36 -9 36q-11 0 -35 -38t-53 -91q-46 -88 -76 -155q-20 -45 -76 -45q-28 0 -42 10t-19 32q-3 21 -10 73q-4 41 -12 86q-9 45 -21 86.5
t-21 41.5q-19 0 -67 -234q-17 -80 -36 -196q-3 -18 -6.5 -40t-8.5 -47q-4 -23 -22.5 -36.5t-48.5 -13.5q-51 0 -51 45q0 7 2 21q12 68 33 179q14 74 17 90q26 136 54 219t62.5 122t80.5 39q55 0 84.5 -49t39.5 -111t16 -150q56 129 119 219.5t140 90.5q43 0 62 -36z" />
    <glyph glyph-name="N" unicode="N" horiz-adv-x="752" 
d="M752 668q0 -5 -2 -19q-21 -125 -58 -321q-23 -124 -42.5 -190.5t-44.5 -96.5t-64 -30q-35 0 -62 26t-56 80.5t-82 170.5l-79 175l-19 44l-15 -93l-15 -90q-24 -143 -47 -263q-4 -22 -24 -37t-46 -15t-41 16t-12 36q14 86 26 149q20 111 23 126q-2 -11 14 85
q24 136 24 139q10 57 21 88t28 45t46 14q35 0 61 -24t55 -80.5t82 -179.5q75 -173 116 -252l34 179l56 311q4 24 22 38.5t50 14.5q51 0 51 -46z" />
    <glyph glyph-name="O" unicode="O" horiz-adv-x="805" 
d="M212.5 42.5q-70.5 35.5 -110 102.5t-39.5 157q0 109 50.5 202.5t140.5 148.5t201 55q94 0 167.5 -39.5t114.5 -111t41 -164.5q0 -110 -53 -198t-145 -138t-206 -50q-91 0 -161.5 35.5zM523 154.5q63 37.5 98 102t35 141.5q0 91 -52 145.5t-142 54.5q-79 0 -141.5 -42
t-97.5 -111t-35 -146q0 -92 53.5 -137t137.5 -45q81 0 144 37.5z" />
    <glyph glyph-name="P" unicode="P" horiz-adv-x="659" 
d="M542 672.5q58 -27.5 91 -75t33 -106.5q0 -73 -42.5 -128.5t-112.5 -85.5t-151 -30q-36 0 -69.5 6.5t-54.5 15.5l-42 -221q-5 -25 -24.5 -40.5t-48.5 -15.5q-25 0 -38.5 11.5t-13.5 33.5q0 9 1 14q6 36 18 96q16 78 30 155q21 126 35 226l-4 -2q-10 -5 -18 -5
q-13 0 -20.5 12t-7.5 30q0 24 12.5 37.5t40.5 29.5l13 6q0 6 2 14q9 59 74 59q33 0 45.5 -7t10.5 -16v-1q58 15 112 15q71 0 129 -27.5zM441.5 367.5q39.5 19.5 62.5 52t23 71.5q0 46 -38 73.5t-98 27.5q-40 0 -106 -17l-10 -62q-6 -30 -15 -100l-6 -42q18 -10 47 -16.5
t56 -6.5q45 0 84.5 19.5z" />
    <glyph glyph-name="Q" unicode="Q" horiz-adv-x="796" 
d="M693 117q13 -15 13 -31q0 -28 -23.5 -51.5t-51.5 -23.5q-27 0 -42 18l-32 38q-99 -55 -208 -55q-91 0 -155 39t-97 106t-33 150q0 110 55 203t148 147.5t200 54.5q87 0 156.5 -40t108.5 -109.5t39 -154.5q0 -73 -28 -139t-79 -119zM484 154l-43 50q-11 14 -11 29t13.5 32
t33 29t36.5 12q14 0 24 -10l49 -56q29 37 45 80.5t16 89.5q0 85 -50.5 138.5t-133.5 53.5q-75 0 -138 -42.5t-99.5 -111t-36.5 -144.5q0 -86 46.5 -134t123.5 -48q66 0 125 32z" />
    <glyph glyph-name="R" unicode="R" horiz-adv-x="675" 
d="M623.5 373q-45.5 -50 -120.5 -74.5t-164 -24.5q-29 0 -62 5l271 -166q24 -14 24 -34q0 -27 -16 -48t-43 -21q-20 0 -46 15l-252 169l-26 -145q-5 -26 -23 -40.5t-46 -14.5q-27 0 -40 13t-13 35q0 10 1 15q16 90 30 174l21 121q16 95 27 169l-2 -1q-7 -3 -14 -3
q-13 0 -20 8.5t-7 28.5q0 26 8.5 44t32.5 30q12 6 20 9l1 8q4 27 24 42.5t50 15.5q53 0 50 -22v-1q76 19 119 19q82 0 141 -26t89.5 -72t30.5 -105q0 -73 -45.5 -123zM274 568l-5 -36l-22 -155q36 -7 98 -7q79 0 131.5 34.5t52.5 93.5q0 43 -34 67.5t-94 24.5
q-61 0 -127 -22z" />
    <glyph glyph-name="S" unicode="S" horiz-adv-x="605" 
d="M165 24.5q-53 24.5 -81.5 69t-28.5 103.5q0 43 18 64t57 21q34 0 44 -14t10 -40q0 -56 23.5 -87t80.5 -31q54 0 91.5 25.5t37.5 67.5q0 27 -17 44t-40.5 27t-68.5 24q-75 24 -131.5 67.5t-56.5 124.5q0 62 36 112t96.5 78t131.5 28q64 0 114.5 -23.5t79.5 -65t29 -93.5
q0 -43 -18.5 -61t-56.5 -18q-32 0 -40.5 11.5t-8.5 38.5q0 46 -26 74t-75 28q-37 0 -69 -15.5t-50.5 -41t-18.5 -54.5q0 -21 11 -34t31.5 -21.5t64.5 -23.5l26 -9q76 -25 128.5 -67.5t52.5 -128.5q0 -63 -34 -109t-92 -70.5t-127 -24.5q-70 0 -123 24.5z" />
    <glyph glyph-name="T" unicode="T" horiz-adv-x="580" 
d="M607 679q12 -9 12 -32q0 -31 -20 -50.5t-53 -16.5q-43 3 -132 5q-30 -119 -56 -247q-25 -122 -55 -290q-5 -31 -21 -44.5t-52 -13.5q-57 0 -57 45q0 5 2 17q33 161 60 286q39 178 56 247q-64 -1 -145 -9q-21 -2 -33 11t-12 37q0 53 59 62q36 5 99.5 8t123.5 3
q46 0 105 -1.5t85 -4.5q22 -3 34 -12z" />
    <glyph glyph-name="U" unicode="U" horiz-adv-x="692" 
d="M675 697q14 -12 14 -32q0 -7 -1 -11q-16 -88 -26 -156q-2 -12 -11 -65l-63 -373q-6 -35 -21.5 -49t-46.5 -14q-57 0 -57 44q0 8 1 12l6 36q-31 -40 -77.5 -64t-102.5 -24q-105 0 -161.5 58t-56.5 150q0 45 16.5 136t61.5 307q5 23 22.5 37t48.5 14q51 0 51 -36
q0 -5 -2 -17q-43 -205 -59 -300.5t-16 -133.5q0 -48 27 -76t72 -28t91.5 28.5t80.5 76t44 102.5q26 151 57 335q9 55 67 55q27 0 41 -12z" />
    <glyph glyph-name="V" unicode="V" horiz-adv-x="665" 
d="M241 14q-25 15 -34 41q-9 25 -23.5 112t-29.5 200l-34 272q-1 6 -1 15q0 55 73 55q42 0 47 -33q10 -67 25 -213l7 -72q16 -141 25 -190.5t22 -49.5q14 0 42 52.5t87 187.5q69 160 127 287q14 30 53 30q28 0 46 -12.5t18 -33.5q0 -10 -6 -24q-65 -147 -122 -269
q-123 -265 -154 -312q-17 -27 -47 -42.5t-63 -15.5t-58 15z" />
    <glyph glyph-name="W" unicode="W" horiz-adv-x="861" 
d="M188 15q-20 14 -21 36q-4 42 -7 110q-4 119 -15 217q-9 86 -25 252l-1 12q1 28 24.5 45.5t55.5 17.5q21 0 33 -9t13 -31q1 -23 4 -53.5t5 -47.5q1 -11 6 -59.5t7 -99.5q2 -29 4 -99q1 -50 3.5 -91t6.5 -41q3 0 14 18.5t25 44.5q11 20 43 77q4 8 26.5 46.5t41 55.5
t35.5 17q24 0 37 -27.5t31 -96.5q4 -17 5 -23q10 -43 19.5 -77t14.5 -34q3 0 18 39t32 87l37 103l11 29q42 109 92 232q17 39 64 39q27 0 43 -13.5t16 -35.5q0 -8 -7 -22q-37 -83 -75 -180l-30 -74q-27 -67 -73 -189q-10 -25 -22.5 -58.5t-28.5 -74.5q-11 -26 -33 -40
t-53 -14q-33 0 -53.5 22t-38.5 75q-4 10 -19 66q-6 23 -11.5 41t-8.5 18q-4 0 -18.5 -26t-17.5 -32q-31 -55 -41 -71q-33 -52 -61 -73.5t-58 -21.5q-29 0 -49 14z" />
    <glyph glyph-name="X" unicode="X" horiz-adv-x="677" 
d="M679.5 678.5q20.5 -21.5 20.5 -45.5q0 -17 -20 -36l-194 -204l-54 -58l135 -243q14 -23 13 -36q-1 -22 -25.5 -43t-53.5 -21q-13 0 -20 5.5t-14 16.5q-51 87 -126 224l-85 -90q-77 -83 -111 -118q-18 -19 -29 -25.5t-27 -6.5q-26 0 -45 16.5t-19 37.5q0 14 5.5 22.5
t16.5 19.5q80 83 236 249l-40 71q-61 109 -112 197q-4 7 -6 12.5t-1 11.5q1 26 25.5 45.5t53.5 19.5q17 0 25.5 -8t21.5 -31l124 -221l216 231q14 15 23 22t22 7q24 0 44.5 -21.5z" />
    <glyph glyph-name="Y" unicode="Y" horiz-adv-x="655" 
d="M250 14q-14 12 -14 32q0 9 1 13l46 272q-18 3 -46.5 40t-46.5 77q-47 101 -64 186q-1 4 -1 12q0 26 25 40.5t57 14.5q21 0 33 -11t19 -35q23 -92 48 -153q34 -79 53 -79q12 0 35.5 23.5t47.5 56.5q26 34 53 75.5t32 49.5l20 31q4 5 12 17t17 17.5t23 5.5q29 0 50 -17
t21 -39q0 -12 -8 -25q-17 -34 -54.5 -87.5t-66.5 -90.5q-35 -43 -77.5 -75t-59.5 -34l-44 -269q-5 -28 -23.5 -44t-48.5 -16q-25 0 -39 12z" />
    <glyph glyph-name="Z" unicode="Z" horiz-adv-x="698" 
d="M492 19q-9 1 -61 4t-127 3q-69 0 -171 -4l-62 -2q-61 0 -61 44q0 30 56.5 86t186.5 166l97 83q148 128 207 185q-103 -9 -144 -9q-56 0 -121 5.5t-97 13.5q-26 6 -37.5 17t-11.5 29q0 27 18.5 45t45.5 18q2 0 38 -4q56 -7 97.5 -10.5t95.5 -3.5q31 0 67.5 2.5t84.5 6.5
l55 4q16 2 34 -3t30 -14q9 -7 14 -17t5 -21q0 -35 -50 -86t-166 -151l-61 -52q-163 -140 -256 -226l28 2q87 5 146 5q53 0 89 -2.5t95 -10.5q45 -5 45 -45q0 -29 -19.5 -46t-45.5 -15z" />
    <glyph glyph-name="bracketleft" unicode="[" horiz-adv-x="363" 
d="M-5 -161q21 92 39.5 194.5t44.5 262.5q24 144 35.5 229.5t25.5 220.5q61 5 214 5q18 0 27.5 -11.5t9.5 -28.5q0 -24 -15.5 -40t-41.5 -16h-46q-50 0 -59 -1q-3 -19 -10 -69q-2 -16 -13.5 -96t-31.5 -190l-32 -186q-21 -121 -35 -188l57 -1l55 1q32 0 32 -32
q0 -26 -14.5 -41.5t-41.5 -18.5q-35 -3 -102 -3q-30 0 -98 9z" />
    <glyph glyph-name="backslash" unicode="\" horiz-adv-x="485" 
d="M304 9q-10 9 -13 26l-131 800q-2 10 -2 16q0 26 23 44t50 18q38 0 42 -30l130 -804q2 -12 2 -17q0 -28 -21.5 -45t-55.5 -17q-14 0 -24 9z" />
    <glyph glyph-name="bracketright" unicode="]" horiz-adv-x="363" 
d="M20 -167q-35 3 -35 34q0 25 13 41.5t36 16.5h65h47q7 52 33 198l31 176q20 110 37.5 196t21.5 107q6 25 13 60q-17 -1 -30 -0.5t-23 0.5q-13 1 -44 1q-49 0 -49 35q0 22 12.5 37.5t33.5 15.5q138 0 220 -5q-38 -157 -56 -238.5t-41 -211.5l-64 -371l-14 -86
q-72 -8 -101 -8q-52 0 -106 2z" />
    <glyph glyph-name="asciicircum" unicode="^" horiz-adv-x="610" 
d="M89 225.5q-15 10.5 -15 23.5q0 3 2 9q98 219 171 331t127 112q60 0 103 -109.5t67 -322.5q2 -23 -14.5 -40t-41.5 -17q-15 0 -27 7.5t-13 19.5q-8 109 -32 232t-46 123q-24 0 -90.5 -120.5t-117.5 -235.5q-5 -13 -14 -18t-26 -5q-18 0 -33 10.5z" />
    <glyph glyph-name="underscore" unicode="_" horiz-adv-x="567" 
d="M-61.5 -149q-11.5 11 -11.5 29q0 25 17.5 42t42.5 17q73 0 245 -2l243 -1q18 0 29 -11t11 -28q0 -25 -14.5 -43.5t-42.5 -18.5l-219 2q-141 3 -269 3q-20 0 -31.5 11z" />
    <glyph glyph-name="grave" unicode="`" horiz-adv-x="314" 
d="M259 504l-145 174q-12 14 -12 27q0 20 18.5 38.5t38.5 18.5t34 -19l38 -46q55 -70 108 -128q9 -10 9 -26q0 -20 -18 -36.5t-39 -16.5q-20 0 -32 14z" />
    <glyph glyph-name="a" unicode="a" horiz-adv-x="617" 
d="M532.5 86.5q6.5 -5.5 6.5 -23.5q0 -26 -14.5 -44t-47.5 -18t-51.5 11.5t-30.5 37.5q-23 -30 -61 -45t-86 -15q-63 0 -110.5 26.5t-73 74t-25.5 109.5q0 81 35.5 148t97.5 106.5t138 39.5q48 0 82.5 -16.5t51.5 -42.5l5 17q12 37 53 37q26 0 42.5 -10t16.5 -26
q0 -11 -15 -50l-13 -38q-17 -53 -31.5 -125t-14.5 -108q0 -19 5 -26.5t18 -9.5q16 -4 22.5 -9.5zM333.5 109q31.5 24 40.5 69q10 48 17.5 90t7.5 57q0 35 -24 54.5t-56 19.5q-44 0 -79.5 -30.5t-55.5 -78.5t-20 -97t23 -78.5t71 -29.5q44 0 75.5 24z" />
    <glyph glyph-name="b" unicode="b" horiz-adv-x="636" 
d="M487 484q51 -27 80.5 -75.5t29.5 -110.5q0 -86 -38.5 -154.5t-107 -107t-154.5 -38.5q-51 1 -100 23t-63 45q-13 -17 -31.5 -31.5t-30.5 -19.5q-15 -7 -27 -7q-20 0 -33 14t-13 33q0 20 20 37q19 13 27 26q8 14 15 50t26 157l8 55q11 74 53 332l18 109q4 23 24.5 36.5
t46.5 13.5q25 0 39.5 -12t11.5 -33q-6 -47 -29 -193l-27 -170q23 21 59 34.5t83 13.5q62 0 113 -27zM386.5 122.5q40.5 28.5 63.5 75t23 99.5q0 57 -31.5 88t-85.5 31q-45 0 -83 -21.5t-59 -47.5l-13 -76q-8 -40 -12 -87q-2 -23 12 -44t39.5 -33.5t56.5 -12.5
q49 0 89.5 28.5z" />
    <glyph glyph-name="c" unicode="c" horiz-adv-x="595" 
d="M154 27.5q-53 27.5 -82.5 75t-29.5 105.5q0 84 38.5 154t106.5 111t152 41q53 0 104.5 -21.5t84 -58t32.5 -78.5q0 -25 -18.5 -37.5t-46.5 -12.5q-19 0 -29.5 10t-16.5 29q-3 16 -16.5 33t-36.5 29t-51 12q-49 0 -91 -30.5t-66 -79.5t-24 -101t30.5 -82.5t89.5 -30.5
q45 0 80 17t54.5 43.5t19.5 52.5q0 14 17 25.5t41 11.5q25 0 38.5 -8t13.5 -29q0 -60 -37.5 -107.5t-100.5 -74t-136 -26.5q-67 0 -120 27.5z" />
    <glyph glyph-name="d" unicode="d" horiz-adv-x="633" 
d="M105.5 43q-63.5 52 -63.5 152q0 84 38 156.5t106 116.5t153 44q49 0 89.5 -13.5t59.5 -34.5l70 346q4 21 23.5 33.5t44.5 12.5t41 -12.5t12 -31.5l-118 -614q-9 -51 -9 -85q0 -15 3.5 -23.5t11 -17.5t7.5 -16q0 -12 -13 -27t-32 -25.5t-37 -10.5q-25 0 -44 20.5t-24 53.5
q-36 -41 -69.5 -58.5t-88.5 -17.5q-97 0 -160.5 52zM354.5 106q32.5 17 53.5 45t27 59l27 150q-9 22 -44 39t-75 17q-50 0 -90.5 -30t-63.5 -77t-23 -98q0 -60 34 -91t84 -31q38 0 70.5 17z" />
    <glyph glyph-name="e" unicode="e" horiz-adv-x="604" 
d="M156.5 21.5q-54.5 29.5 -83.5 80.5t-29 115q0 80 39 148.5t106.5 108.5t150.5 40q61 0 113 -22t83.5 -66t31.5 -105q0 -99 -78 -99l-340 -4q-1 -6 -1 -16q0 -49 37.5 -80.5t98.5 -31.5q49 0 79.5 16t65.5 46q19 15 35 15q18 0 32.5 -12.5t14.5 -29.5q0 -18 -16 -38
q-33 -38 -81.5 -66.5t-129.5 -28.5q-74 0 -128.5 29.5zM446 302q15 0 19.5 5t4.5 19q0 46 -35.5 71t-89.5 25q-48 0 -88 -21t-64.5 -50.5t-28.5 -52.5z" />
    <glyph glyph-name="f" unicode="f" horiz-adv-x="415" 
d="M450 706.5q42 -33.5 42 -90.5q0 -18 -2 -27q-7 -37 -23.5 -52.5t-47.5 -15.5q-54 0 -54 40q0 8 1 12q5 25 5 39q0 15 -6.5 22.5t-22.5 7.5q-26 0 -39 -24.5t-25 -91.5q-14 -76 -19 -106h62q36 0 36 -36q0 -24 -14 -39t-39 -16l-60 -2l-11 -70q-21 -133 -34 -206
q-4 -25 -21.5 -38t-45.5 -13q-25 0 -39 10t-14 30l1 9q20 138 43 276l-36 -1q-24 0 -34.5 9t-10.5 28q0 26 15 42t43 16q22 0 38 1l18 110q18 103 63 156.5t123 53.5q66 0 108 -33.5z" />
    <glyph glyph-name="g" unicode="g" horiz-adv-x="591" 
d="M545 518.5q19 -10.5 19 -28.5q0 -10 -5 -18q-16 -31 -29 -60l-6 -154l-3 -86q-3 -70 -6 -108t-9 -71q-39 -243 -284 -243q-56 0 -101 19.5t-70 53.5t-25 76q0 35 15.5 51.5t48.5 16.5q42 0 42 -33q0 -41 23.5 -63t66.5 -22q46 0 78 11.5t54 43t32 90.5q5 26 6 53
q-26 -22 -63.5 -35t-80.5 -13q-62 0 -109.5 28.5t-73 78t-25.5 110.5q0 77 37.5 143.5t102.5 106t144 39.5q41 0 70.5 -10.5t45.5 -27.5l24 45q6 10 14.5 13.5t25.5 3.5q22 0 41 -10.5zM350 116q41 21 53 46l3 201q-7 17 -29.5 31t-53.5 14q-44 0 -81 -28.5t-58.5 -74
t-21.5 -93.5q0 -51 27 -84t81 -33q39 0 80 21z" />
    <glyph glyph-name="h" unicode="h" horiz-adv-x="575" 
d="M493 482.5q45 -37.5 45 -111.5q0 -16 -3 -36q-23 -162 -45 -286q-4 -21 -23.5 -33.5t-44.5 -12.5q-27 0 -42.5 15.5t-11.5 36.5q39 225 48 284q2 16 2 21q0 31 -15 47t-42 16q-41 0 -81.5 -32.5t-59.5 -80.5q-8 -20 -14.5 -54.5t-13.5 -76.5q-16 -95 -23 -133
q-4 -19 -24.5 -31t-44.5 -12q-26 0 -41.5 12.5t-11.5 31.5q29 171 72 385q17 82 68 303q6 23 24.5 37t46.5 14q24 0 36 -9.5t12 -27.5q0 -7 -1 -11q-29 -136 -62 -270q56 52 137 52q68 0 113 -37.5z" />
    <glyph glyph-name="i" unicode="i" horiz-adv-x="327" 
d="M171.5 554.5q-18.5 17.5 -18.5 46.5q0 41 28.5 68.5t69.5 27.5q31 0 49.5 -17.5t18.5 -46.5q0 -40 -28.5 -68t-69.5 -28q-31 0 -49.5 17.5zM73.5 17.5q-14.5 11.5 -14.5 29.5q0 6 1 9l78 388q4 23 23.5 36.5t46.5 13.5q25 0 39.5 -11.5t14.5 -29.5q0 -7 -1 -11l-77 -386
q-4 -23 -24 -36.5t-47 -13.5q-25 0 -39.5 11.5z" />
    <glyph glyph-name="j" unicode="j" horiz-adv-x="362" 
d="M213 559.5q-20 19.5 -20 47.5q0 35 29 62t69 27q31 0 50 -17.5t19 -46.5q0 -39 -29.5 -65.5t-66.5 -26.5q-31 0 -51 19.5zM-100 -200.5q-40 35.5 -40 88.5q0 42 17 62t53 20q29 0 38.5 -10.5t9.5 -30.5q0 -39 5 -54t26 -15q34 0 54.5 39.5t38.5 125.5q39 198 81 432
q4 19 22.5 30.5t45.5 11.5t41 -13t11 -32q-45 -247 -82 -429q-29 -140 -80 -200.5t-132 -60.5q-69 0 -109 35.5z" />
    <glyph glyph-name="k" unicode="k" horiz-adv-x="536" 
d="M47.5 5.5q-15.5 12.5 -11.5 31.5l116 661q4 24 23.5 37.5t46.5 13.5q24 0 38.5 -11.5t14.5 -29.5q0 -6 -1 -10l-56 -305l250 137q19 10 35 10q18 0 29.5 -16.5t9.5 -35.5q0 -17 -8.5 -26t-29.5 -21l-284 -156l229 -197q11 -9 11 -25q0 -25 -21.5 -43.5t-45.5 -18.5
q-21 0 -41 16q-29 24 -112 101l-60 57l-24 -137q-4 -20 -22.5 -32.5t-44.5 -12.5t-41.5 12.5z" />
    <glyph glyph-name="l" unicode="l" horiz-adv-x="264" 
d="M51.5 22q-14.5 13 -12.5 32l115 685q4 24 24 38.5t48 14.5q24 0 39.5 -13.5t12.5 -32.5l-117 -685q-4 -24 -24.5 -38t-45.5 -14t-39.5 13z" />
    <glyph glyph-name="m" unicode="m" horiz-adv-x="795" 
d="M711 464q38 -42 38 -116q0 -35 -12.5 -109t-35.5 -193q-4 -22 -21.5 -34t-42.5 -12t-41 12.5t-12 31.5q23 111 35 185.5t12 118.5q0 34 -12 51t-34 17q-36 0 -62 -41.5t-40 -114.5q-13 -63 -37 -211q-8 -47 -65 -47q-27 0 -41.5 11.5t-11.5 31.5q6 46 37 213q7 40 7 66
q0 40 -12.5 63.5t-38.5 23.5q-27 0 -54.5 -30t-49.5 -90q-11 -31 -16.5 -55t-12.5 -64l-5 -28l-9 -54l-8 -48q-4 -19 -22.5 -30t-41.5 -11t-38.5 11.5t-12.5 28.5q10 62 33 192q27 154 27 160q0 9 -2.5 15t-8.5 14q-2 2 -5 5.5t-4.5 7.5t-0.5 9q3 22 21 37t36 15
q12 0 20.5 -7t17.5 -21q7 -9 11 -22t3 -24v-5q48 86 136 86q46 0 73.5 -23.5t38.5 -63.5q52 90 154 90q72 0 110 -42z" />
    <glyph glyph-name="n" unicode="n" horiz-adv-x="567" 
d="M482 466.5q42 -43.5 42 -122.5q0 -27 -10.5 -92.5t-24.5 -145.5l-11 -61q-4 -21 -22.5 -33t-45.5 -12q-28 0 -43 12.5t-12 32.5l22 129q10 59 17.5 105.5t7.5 63.5q0 37 -13 54t-42 17q-38 0 -67.5 -31.5t-54.5 -103.5q-16 -48 -25 -101l-4 -25q-10 -63 -19 -109
q-4 -21 -22 -33t-45 -12q-29 0 -43.5 12.5t-11.5 32.5l5 29q34 200 48 306q2 14 -0.5 25t-6.5 20.5t-6 13.5q-5 8 -5 18q-1 20 22.5 35.5t44.5 15.5t37 -25q8 -12 12.5 -29t3.5 -27l-2 -12q52 96 163 96q69 0 111 -43.5z" />
    <glyph glyph-name="o" unicode="o" horiz-adv-x="602" 
d="M96.5 51.5q-67.5 53.5 -67.5 162.5q0 80 38.5 150t108 112t157.5 42q111 0 177.5 -61.5t66.5 -173.5q0 -80 -37 -145t-105 -102.5t-158 -37.5q-113 0 -180.5 53.5zM407 147q47 54 47 136q0 64 -31.5 101.5t-89.5 37.5q-53 0 -94.5 -30t-64 -78t-22.5 -100q0 -63 34.5 -92
t90.5 -29q83 0 130 54z" />
    <glyph glyph-name="p" unicode="p" horiz-adv-x="626" 
d="M483.5 485.5q50.5 -27.5 79 -77.5t28.5 -115q0 -84 -37.5 -152t-105 -106.5t-153.5 -38.5q-48 0 -90 12t-58 23l-41 -208q-4 -21 -23.5 -34t-46.5 -13q-24 0 -38.5 10.5t-14.5 28.5q0 5 2 13q24 101 53 255l13 65q3 18 20.5 110t17.5 114q0 25 -12 44q-1 1 -6 7t-5 14
q0 21 27 42t51 21q13 0 22 -9q18 -18 29 -52q27 31 71 52.5t104 21.5q63 0 113.5 -27.5zM388 119q39 27 59.5 73t20.5 101q0 56 -29.5 89t-79.5 33q-40 0 -74.5 -17t-56 -40.5t-24.5 -41.5l-20 -108l-14 -73q2 -8 21.5 -18t47.5 -17.5t56 -7.5q54 0 93 27z" />
    <glyph glyph-name="q" unicode="q" horiz-adv-x="644" 
d="M624 479q15 -13 15 -31q0 -9 -4 -17.5t-14 -19.5l-46 -60q-29 -134 -61 -308l-43 -234q-4 -20 -23 -33t-47 -13q-27 0 -41 12t-11 31q21 107 26 142l17 88q-55 -41 -128 -41q-63 0 -114.5 26t-82 75.5t-30.5 117.5q0 79 38.5 147.5t105.5 109.5t149 41q67 0 114.5 -26
t64.5 -65q6 10 29 39q14 17 24.5 24.5t24.5 7.5q22 0 37 -13zM450 320q0 24 -15.5 46.5t-42.5 36t-61 13.5q-49 0 -88 -29.5t-60.5 -76t-21.5 -96.5q0 -59 31.5 -90.5t85.5 -31.5q45 0 84.5 18t53.5 38l33 163z" />
    <glyph glyph-name="r" unicode="r" horiz-adv-x="515" 
d="M460 482.5q37 -34.5 37 -98.5q0 -66 -47 -104.5t-120 -38.5q-28 0 -38 7.5t-10 24.5q0 21 10 32t32 15q33 5 52.5 19.5t19.5 44.5q0 19 -9.5 29.5t-28.5 10.5q-31 0 -62.5 -32t-54.5 -75.5t-33 -78.5q-15 -53 -35 -162q-9 -50 -24.5 -67.5t-48.5 -17.5q-29 0 -41.5 10.5
t-12.5 31.5q0 9 8.5 61.5t18.5 102.5l3 20q10 55 14.5 98t13.5 142l2 24q1 22 19.5 35.5t46.5 13.5q48 0 44 -44q-5 -49 -10 -82q28 51 69 82t89 31q59 0 96 -34.5z" />
    <glyph glyph-name="s" unicode="s" horiz-adv-x="498" 
d="M130 12q-44 20 -71 50.5t-31 60.5q-1 11 0 18q7 18 25.5 29.5t40.5 11.5q12 0 18 -5.5t17 -21.5q46 -64 105 -64q32 0 53 15.5t21 41.5q0 21 -20.5 35.5t-64.5 33.5q-44 18 -72.5 35t-49 45t-20.5 70q0 47 26.5 83t72.5 55t103 19q54 0 95 -18.5t63 -50.5t22 -71
q0 -31 -15 -45.5t-50 -14.5q-45 0 -43 37q2 31 -13.5 47.5t-54.5 16.5q-41 0 -61.5 -16.5t-20.5 -41.5q0 -23 21 -37.5t67 -34.5q43 -18 71.5 -34.5t48.5 -44.5t20 -69q0 -51 -29 -86t-76 -52t-101 -17q-53 0 -97 20z" />
    <glyph glyph-name="t" unicode="t" horiz-adv-x="443" 
d="M390 152q0 -41 -17.5 -76t-50 -56t-76.5 -21q-62 0 -102 41t-40 118q0 78 31 212l-37 2q-41 2 -41 36q0 28 15 43t44 15q13 0 43 -2q30 105 50 163q7 20 24 31.5t43 11.5q24 0 39 -11.5t15 -28.5q0 -6 -3 -14q-27 -81 -49 -158q18 -1 55 -1q23 -1 32.5 -8.5t9.5 -23.5
q0 -30 -15 -44t-48 -14h-58q-34 -138 -34 -215q0 -57 29 -57q36 0 40 49q6 43 55 43q46 0 46 -35z" />
    <glyph glyph-name="u" unicode="u" horiz-adv-x="564" 
d="M457 106q-1 -15 3.5 -27t5.5 -14q7 -12 7 -21q0 -14 -19 -30t-37 -16q-23 0 -44 21.5t-20 51.5v1q-54 -73 -154 -73q-72 0 -109 42.5t-37 117.5q0 24 10.5 90t18.5 109t11 61l8 42q4 19 23 31.5t44 12.5q26 0 42 -12.5t12 -31.5l-15 -86q-31 -165 -31 -202q0 -79 56 -79
q49 0 80 45t48 142q14 73 32 179q4 24 23 37t46 13t42 -14.5t12 -35.5l-54 -315z" />
    <glyph glyph-name="v" unicode="v" horiz-adv-x="538" 
d="M151.5 58.5q-36.5 56.5 -54.5 159.5q-9 48 -14 102t-5 93q0 46 16 68.5t57 22.5q33 0 42.5 -13t9.5 -46v-38q0 -75 7 -138q7 -54 17.5 -96t17.5 -42q9 0 38 45.5t53 94.5q35 75 50 112.5t26 77.5q14 48 70 48q24 0 37.5 -11.5t13.5 -32.5q0 -30 -31 -103.5t-69 -142.5
q-60 -111 -106 -164t-92 -53q-47 0 -83.5 56.5z" />
    <glyph glyph-name="w" unicode="w" horiz-adv-x="772" 
d="M120.5 96.5q-25.5 95.5 -25.5 219.5q0 95 8 141q6 36 24 50t46 14q56 0 53 -46l-4 -47q-7 -72 -7 -115q0 -60 6 -116.5t16 -56.5q5 0 18.5 28t40.5 91l51 115q14 31 31 46t41 15t36.5 -14.5t16.5 -46.5l6 -47q10 -89 19 -137.5t20 -48.5q7 0 19 28t32 88q26 77 38 118.5
t25 97.5q11 48 68 48q51 0 51 -43q0 -39 -31.5 -136.5t-61.5 -166.5q-76 -174 -157 -174q-51 0 -78 73t-29 207q-43 -137 -87.5 -208.5t-95.5 -71.5q-64 0 -89.5 95.5z" />
    <glyph glyph-name="x" unicode="x" horiz-adv-x="520" 
d="M478 446l-45 -53q-5 -5 -106 -123l116 -198q5 -9 5 -17q0 -24 -23.5 -43t-47.5 -19q-21 0 -31 18l-100 166l-139 -162q-9 -11 -22 -16.5t-26 -5.5q-22 0 -36.5 14.5t-14.5 33.5q0 14 9 24l176 202l-103 175q-2 4 -2.5 8t0.5 8q0 20 24.5 38.5t47.5 18.5q21 0 29 -14
l85 -142l123 141q12 15 31 15q22 0 39 -16t17 -35q0 -10 -6 -18z" />
    <glyph glyph-name="y" unicode="y" horiz-adv-x="535" 
d="M99 -248.5q-15 13.5 -14 33.5q0 15 8 29q25 41 63.5 113t50.5 94l21 40q-41 38 -75 104.5t-54 142t-20 138.5q0 10 1 17q2 21 20.5 34t45.5 13q24 0 32 -9.5t9 -28.5q6 -118 32 -198t58 -117q37 78 113 252l29 67q8 20 20.5 28t34.5 8q29 0 44.5 -12.5t13.5 -33.5
q0 -6 -3 -11q-87 -203 -172 -375q-119 -240 -159 -305q-11 -18 -23.5 -27.5t-34.5 -9.5q-26 0 -41 13.5z" />
    <glyph glyph-name="z" unicode="z" horiz-adv-x="562" 
d="M379 -2q-66 6 -119 6q-48 0 -122 -4q-40 -3 -65 -3q-74 0 -74 40q0 15 8 26.5t21 23.5l106 94q181 161 260 226q-11 0 -22.5 -1t-22.5 -2q-68 -5 -88 -5q-31 0 -64 3t-52 7q-21 5 -30.5 14.5t-9.5 25.5q0 24 15 43.5t41 16.5q105 -12 168 -12q42 0 108 6q52 4 70 4
q36 0 49 -8t13 -25q0 -37 -38 -70l-172 -146q-98 -83 -185 -160l36 1q84 3 93 3q30 0 68.5 -2.5t64.5 -6.5q31 -5 31 -36q0 -26 -17 -45t-47 -16z" />
    <glyph glyph-name="braceleft" unicode="{" horiz-adv-x="424" 
d="M124.5 -140.5q-41.5 46.5 -41.5 120.5q0 18 3.5 43t8.5 50q5 28 9 58.5t4 54.5q0 43 -17 52q-15 9 -23 22t-8 28q0 22 15 40.5t38 26.5q10 3 28 62.5t34 152.5q10 59 41.5 106t77.5 73.5t98 26.5q68 0 68 -43q0 -37 -24 -51.5t-52 -14.5q-34 0 -54 -12t-32.5 -40.5
t-22.5 -83.5q-19 -112 -40.5 -162t-60.5 -71q21 -21 30.5 -46t9.5 -66q0 -33 -13 -115q-9 -56 -9 -77q0 -38 16.5 -55.5t51.5 -17.5q20 0 32.5 -13t12.5 -31q0 -23 -21 -43.5t-47 -20.5q-71 0 -112.5 46.5z" />
    <glyph glyph-name="bar" unicode="|" horiz-adv-x="297" 
d="M52.5 -83q-12.5 9 -9.5 24q12 63 68 364l19 102q51 279 81 456q3 12 18.5 20.5t34.5 8.5q18 0 31.5 -8t11.5 -19l-83 -456q-51 -281 -87 -468q-3 -15 -17 -24t-35 -9q-20 0 -32.5 9z" />
    <glyph glyph-name="braceright" unicode="}" horiz-adv-x="424" 
d="M1 -175.5q-13 11.5 -13 28.5q0 22 19 41t45 19q91 0 115 135q14 79 29 126t34.5 74.5t49.5 49.5q-19 12 -27.5 33t-8.5 57q0 32 13 123q10 70 10 85q0 42 -17.5 60.5t-56.5 18.5q-22 0 -39.5 9t-17.5 33q0 37 22 48t63 11q68 0 108.5 -44t40.5 -116q0 -32 -11 -100
q-14 -84 -14 -128q0 -30 7 -33q16 -6 25 -19t9 -29q0 -19 -14.5 -38t-38.5 -31q-21 -11 -36.5 -58.5t-34.5 -152.5q-10 -60 -42.5 -109t-80.5 -77t-103 -28q-22 0 -35 11.5z" />
    <glyph glyph-name="asciitilde" unicode="~" horiz-adv-x="553" 
d="M271 275q-31 10 -45.5 13.5t-32.5 3.5q-17 0 -43 -8q-4 -1 -21 -7t-31 -6q-12 0 -21.5 11t-9.5 26t14 31q18 19 59 32t82 13q39 0 97 -23q34 -13 62 -13q20 0 45 11q4 2 18.5 8.5t24.5 6.5q17 0 29.5 -13.5t12.5 -30.5q0 -14 -6 -21t-22 -18q-21 -15 -52 -24.5t-58 -9.5
q-48 0 -102 18z" />
    <glyph glyph-name="uni00A0" unicode="&#xa0;" horiz-adv-x="347" 
 />
    <glyph glyph-name="exclamdown" unicode="&#xa1;" horiz-adv-x="273" 
d="M109 373.5q-19 18.5 -19 45.5q0 36 29 64.5t65 28.5q28 0 47.5 -20t19.5 -48q0 -22 -14 -42.5t-36.5 -33.5t-44.5 -13q-28 0 -47 18.5zM33 -186.5q-10 9.5 -10 26.5q0 8 1 12l78 414q5 23 19 36t33 13q17 0 26.5 -12t9.5 -30q0 -7 -1 -10l-76 -409q-5 -23 -19 -36.5
t-34 -13.5q-17 0 -27 9.5z" />
    <glyph glyph-name="cent" unicode="&#xa2;" horiz-adv-x="595" 
d="M534.5 237q13.5 -8 13.5 -29q0 -58 -35.5 -104.5t-95 -73.5t-129.5 -30l-12 -66q-1 -12 -11 -19t-23 -7q-32 0 -29 25l13 71q-82 14 -133 70.5t-51 133.5q0 81 35.5 149t99 109.5t142.5 46.5l12 69q2 12 13 18t23 6t20.5 -6t6.5 -18l-13 -71q73 -13 126 -56.5t53 -98.5
q0 -25 -18.5 -37.5t-46.5 -12.5q-19 0 -29.5 10t-16.5 29q-3 16 -16.5 33t-36.5 29t-51 12q-49 0 -91 -30.5t-66 -79.5t-24 -101t30.5 -82.5t89.5 -30.5q45 0 80 17t54.5 43.5t19.5 52.5q0 14 17 25.5t41 11.5q25 0 38.5 -8z" />
    <glyph glyph-name="sterling" unicode="&#xa3;" horiz-adv-x="613" 
d="M521 656q52 -44 52 -115q0 -16 -1 -25q-3 -51 -55 -51q-23 0 -31.5 10.5t-7.5 30.5v25q0 39 -27 60.5t-64 21.5q-54 0 -88.5 -33.5t-34.5 -86.5q0 -31 5.5 -58.5t16.5 -67.5l6 -24l112 -1q31 -1 44 -7t10 -27q-4 -20 -19.5 -27t-46.5 -7l-88 1q1 -6 1 -19
q0 -37 -12 -69.5t-34 -67.5q75 -36 120 -36q23 0 40 10t40 34q12 13 21.5 19.5t20.5 6.5q14 0 27 -11.5t13 -25.5q0 -11 -9 -23q-28 -40 -72.5 -66.5t-97.5 -26.5q-39 0 -64.5 7.5t-54.5 21.5q-19 9 -30.5 13t-25.5 4q-19 0 -36.5 -8t-43.5 -26q-21 -16 -39 -16t-30.5 14.5
t-12.5 27.5q0 10 3.5 16t14.5 18q15 16 50.5 33.5t73.5 25.5q19 23 30 61.5t11 63.5q0 13 -1 19l-63 1q-47 0 -47 29q0 24 15 32t45 8h39l-15 48q-12 35 -17.5 56t-5.5 44q0 61 31 108t83.5 73t112.5 26q84 0 136 -44z" />
    <glyph glyph-name="currency" unicode="&#xa4;" horiz-adv-x="844" 
d="M589 48l-29 38q-83 -44 -166 -44q-44 0 -89 12t-78 34l-43 -39q-32 -28 -51 -28q-20 0 -38 16t-18 36q0 8 4 15t12 17l60 56q-20 31 -31 69.5t-11 76.5q0 63 28 125.5t78 112.5l-32 40q-12 16 -12 28q0 23 22.5 42.5t49.5 19.5q16 0 26 -7.5t20 -21.5l25 -31q42 23 82 34
t85 11q47 0 94.5 -12.5t79.5 -33.5l35 32q17 15 28.5 22.5t25.5 7.5q20 0 37.5 -17t17.5 -39q0 -10 -5 -19t-21 -22l-44 -40q18 -29 27.5 -67t9.5 -76q0 -130 -110 -237q35 -45 39 -52q9 -10 9 -22q0 -23 -23.5 -43.5t-47.5 -20.5q-23 0 -46 27zM522 177q55 37 88 96t33 123
q0 49 -21 87t-58.5 59.5t-85.5 21.5q-62 0 -117.5 -35t-89 -92.5t-33.5 -121.5q0 -50 21 -89.5t59 -62.5t86 -23q63 0 118 37z" />
    <glyph glyph-name="yen" unicode="&#xa5;" horiz-adv-x="655" 
d="M481.5 378.5q-32.5 -27.5 -56.5 -39.5l105 1q11 0 16 -6.5t5 -17.5q0 -17 -9 -29.5t-23 -12.5l-124 -2l-8 -54l124 2q23 0 23 -24q0 -18 -9 -29.5t-24 -11.5l-125 -2l-15 -91q-5 -28 -23.5 -44t-48.5 -16q-25 0 -39 12t-14 32q0 9 1 13l16 93l-120 -2q-22 0 -22 25
q0 17 8.5 28.5t24.5 11.5l120 2l9 54l-123 -2q-11 0 -16.5 6.5t-5.5 17.5q0 17 9 29.5t25 12.5l109 1q-18 13 -42 45.5t-39 66.5q-47 101 -64 186q-1 4 -1 12q0 26 25 40.5t57 14.5q21 0 33 -11t19 -35q23 -92 48 -153q34 -79 53 -79q12 0 35.5 23.5t47.5 56.5
q26 34 53 75.5t32 49.5l20 31q4 5 12 17t17 17.5t23 5.5q29 0 50 -17t21 -39q0 -12 -8 -25q-17 -34 -54.5 -87.5t-66.5 -90.5q-28 -34 -60.5 -61.5z" />
    <glyph glyph-name="brokenbar" unicode="&#xa6;" horiz-adv-x="303" 
d="M154 437q-11 9 -9 25l64 396q2 15 17.5 24.5t36.5 9.5t31.5 -9t8.5 -25l-64 -396q-2 -16 -16.5 -25t-36.5 -9q-21 0 -32 9zM48.5 -118q-11.5 9 -7.5 26l75 397q4 18 18 27.5t36 9.5q23 0 33 -9.5t7 -27.5l-74 -397q-7 -35 -54 -35q-22 0 -33.5 9z" />
    <glyph glyph-name="section" unicode="&#xa7;" horiz-adv-x="671" 
d="M525 742q47 -18 75.5 -51t28.5 -76q0 -14 -3 -31q-8 -46 -57 -46q-21 0 -34.5 8.5t-10.5 23.5t3 27q0 44 -28 63t-73 19q-62 0 -104.5 -33.5t-42.5 -83.5q0 -36 30 -60t98 -44q90 -25 135 -70.5t45 -99.5q0 -47 -28 -87t-74 -66q28 -40 28 -92q0 -98 -66.5 -152
t-172.5 -54q-61 0 -111.5 23t-79 64t-28.5 93q0 12 4 40q3 18 19 28.5t40 10.5q20 0 31.5 -8.5t11.5 -24.5q0 -8 -1 -15.5t-1 -15.5q0 -49 30 -81.5t85 -32.5q61 0 101.5 35.5t40.5 91.5q0 27 -14.5 44.5t-40 29.5t-77.5 29q-180 62 -180 175q0 48 27 91t72 75
q-20 35 -20 75q0 55 31 100t86.5 70.5t125.5 25.5q52 0 99 -18zM255 432q-23 -20 -38 -50.5t-15 -57.5q0 -35 28.5 -57.5t96.5 -41.5q59 -16 100 -41q27 17 45.5 46.5t18.5 55.5q0 32 -32 53.5t-103 42.5q-60 18 -101 50z" />
    <glyph glyph-name="dieresis" unicode="&#xa8;" horiz-adv-x="376" 
d="M76.5 582q-17.5 17 -17.5 42q0 33 25.5 57.5t58.5 24.5q25 0 43 -17t18 -41q0 -32 -26.5 -57.5t-58.5 -25.5q-25 0 -42.5 17zM340.5 582q-17.5 17 -17.5 42q0 33 25.5 57.5t58.5 24.5q26 0 43 -16.5t17 -41.5q0 -32 -26 -57.5t-58 -25.5q-25 0 -42.5 17z" />
    <glyph glyph-name="copyright" unicode="&#xa9;" horiz-adv-x="905" 
d="M695 664q70 -38 108 -103.5t38 -145.5q0 -112 -53.5 -207.5t-146 -151.5t-205.5 -56q-94 0 -169.5 41.5t-118 111.5t-42.5 152q0 112 57.5 203t156 142.5t215.5 51.5q90 0 160 -38zM602.5 121.5q72.5 44.5 112.5 122t40 172.5q0 98 -55 155t-168 57q-91 0 -169.5 -44
t-125 -118t-46.5 -160q0 -66 30 -118t85.5 -81.5t129.5 -29.5q94 0 166.5 44.5zM655.5 548.5q10.5 -7.5 7.5 -20.5q-10 -59 -22 -79t-37 -21q-17 0 -25 12q-18 28 -32 39.5t-38 11.5q-38 0 -71.5 -28.5t-53 -73.5t-19.5 -90q0 -86 97 -86q42 0 69 21.5t33 57.5q2 13 15 21.5
t32 8.5q18 0 27.5 -8.5t6.5 -21.5q-12 -65 -62 -105t-128 -40q-80 0 -131 39.5t-51 110.5q0 65 32.5 125t86 97.5t112.5 37.5q54 0 91 -34v3q7 30 32 30q18 0 28.5 -7.5z" />
    <glyph glyph-name="ordfeminine" unicode="&#xaa;" horiz-adv-x="358" 
d="M354 630q-16 -78 -16 -98q0 -6 2.5 -8t9.5 -5q2 -1 5 -3t4.5 -4.5t1.5 -7.5q0 -34 -32 -34q-30 0 -43 19l-4 8q-14 -16 -30 -23t-40 -7q-50 0 -77 27t-27 74q0 42 19.5 78.5t52.5 58.5t71 22q42 0 61 -24l2 7q2 6 9.5 10.5t19.5 4.5q28 0 28 -20q0 -5 -1 -8
q-9 -29 -16 -67zM256.5 536.5q16.5 12.5 20.5 31.5q2 9 5 23.5t4 25.5q1 5 1 15q0 39 -37 39q-36 0 -54 -33t-18 -69q0 -45 39 -45q23 0 39.5 12.5z" />
    <glyph glyph-name="guillemotleft" unicode="&#xab;" horiz-adv-x="597" 
d="M195 218.5q-46 27.5 -79.5 67t-33.5 71.5q0 35 49 80t113.5 77.5t102.5 32.5q16 0 26.5 -9t10.5 -23q0 -19 -13.5 -31.5t-38.5 -22.5q-27 -9 -66.5 -30.5t-69.5 -42.5t-30 -28q0 -6 22 -24.5t50.5 -36t49.5 -23.5q16 -4 24.5 -15t8.5 -25q0 -20 -14.5 -32.5t-33.5 -12.5
q-32 0 -78 27.5zM400 213.5q-46 28.5 -79.5 68t-33.5 71.5q0 33 49.5 78t114.5 78t101 33q14 0 22.5 -9t8.5 -23q0 -42 -43 -54q-32 -8 -71 -29t-67 -42.5t-28 -29.5q0 -7 21 -24.5t50 -35t51 -24.5q31 -13 31 -38q0 -20 -15 -34t-34 -14q-32 0 -78 28.5z" />
    <glyph glyph-name="logicalnot" unicode="&#xac;" horiz-adv-x="778" 
d="M613 206q0 12 1 18q5 29 15 77q11 57 15 82l-220 1l-276 -1q-54 0 -54 39q0 29 17.5 46t50.5 17l286 1h248q28 0 42.5 -13.5t11.5 -35.5l-37 -214q-5 -24 -20.5 -37.5t-41.5 -13.5q-38 0 -38 34z" />
    <glyph glyph-name="uni00AD" unicode="&#xad;" horiz-adv-x="381" 
d="M56 235.5q-10 11.5 -10 29.5q0 28 16.5 44t36.5 17q72 3 205 3q22 0 33.5 -10.5t11.5 -29.5q0 -25 -19 -42.5t-46 -17.5q-25 0 -99 -2q-55 -3 -102 -3q-17 0 -27 11.5z" />
    <glyph glyph-name="registered" unicode="&#xae;" horiz-adv-x="905" 
d="M700.5 671.5q68.5 -38.5 104.5 -105.5t36 -149q0 -113 -56 -208.5t-151.5 -152t-208.5 -56.5q-95 0 -167.5 39t-112 106.5t-39.5 149.5q0 111 60 206.5t160 152t213 56.5q93 0 161.5 -38.5zM599.5 119q75.5 46 119 123t43.5 165q0 65 -27 117t-79.5 82.5t-126.5 30.5
q-90 0 -167.5 -45.5t-123.5 -121.5t-46 -163q0 -66 29.5 -119t84.5 -84t128 -31q90 0 165.5 46zM626 524.5q37 -28.5 37 -78.5q0 -49 -26.5 -81t-68 -47.5t-85.5 -15.5h-19l131 -97q8 -5 8 -17q0 -15 -16.5 -30.5t-31.5 -15.5q-13 0 -23 8l-125 112q-2 -8 -4 -22
q-7 -31 -13 -68q-2 -13 -14 -22.5t-31 -9.5q-20 0 -28 9.5t-6 25.5q3 22 7 36q1 7 3 17t4 25q14 74 18 97l14 98q-8 4 -11.5 13.5t-2.5 20.5q0 10 5 16.5t18 12.5l1 10q3 17 19 25t34 8q22 0 30 -13q43 12 81 12q58 0 95 -28.5zM559.5 383.5q25.5 18.5 25.5 52.5
q0 24 -20 37t-53 13q-30 0 -68 -11l-6 -34q-3 -15 -11 -68q7 -4 27 -6t38 -2q42 0 67.5 18.5z" />
    <glyph glyph-name="macron" unicode="&#xaf;" horiz-adv-x="415" 
d="M188.5 595q-11.5 -1 -21.5 -1q-24 0 -52 10q-25 11 -25 36q0 24 17 40t39 15l28 -4t46 -3q20 0 66 4q50 4 79 4q22 0 64 -4q15 -2 26 -13t11 -27q0 -15 -10 -28.5t-24 -20t-25 -3.5q-21 4 -52 4q-29 0 -73 -4q-42 -4 -67 -4q-15 0 -26.5 -1z" />
    <glyph glyph-name="degree" unicode="&#xb0;" horiz-adv-x="399" 
d="M156 591.5q-36 31.5 -36 83.5q0 49 26 90.5t69.5 65.5t93.5 24q61 0 98 -34.5t37 -85.5q0 -46 -26.5 -86.5t-70.5 -64.5t-93 -24q-62 0 -98 31.5zM333.5 658q27.5 25 27.5 65q0 25 -16.5 41.5t-51.5 16.5q-38 0 -64.5 -28.5t-26.5 -65.5q0 -26 17.5 -40t46.5 -14
q40 0 67.5 25z" />
    <glyph glyph-name="plusminus" unicode="&#xb1;" horiz-adv-x="553" 
d="M507 380q0 -26 -17 -41t-48 -15q-60 0 -101 1l-15 -87q-4 -23 -19 -36.5t-40 -13.5q-21 0 -30.5 8t-9.5 26q0 8 1 12q2 14 4 22l11 69q-45 1 -112 1q-21 0 -31.5 9.5t-10.5 25.5q0 27 15.5 43t45.5 16l109 -1l15 88q4 21 18.5 33.5t39.5 12.5q23 0 32.5 -12.5t7.5 -32.5
q-1 -11 -3.5 -25t-5.5 -33l-6 -33q40 -1 100 -1q50 0 50 -36zM442 125.5q14 -10.5 14 -28.5q0 -26 -19.5 -40t-54.5 -15l-283 -3q-24 0 -36 9t-12 26q0 29 17.5 44t50.5 15l283 3q26 0 40 -10.5z" />
    <glyph glyph-name="uni00B2" unicode="&#xb2;" horiz-adv-x="399" 
d="M387.5 442q11.5 -10 11.5 -26q0 -21 -15.5 -35.5t-39.5 -14.5l-40 1q-35 3 -84 3q-25 0 -67 -2l-50 -1q-20 0 -32.5 9.5t-11.5 24.5q6 46 61.5 102.5t132.5 104.5q42 25 63 55t21 62q0 22 -13 34.5t-35 12.5t-42 -19t-26 -48q-4 -20 -18.5 -29t-41.5 -9q-43 0 -43 35
q0 41 25 76.5t66 57t86 21.5q42 0 77 -17t55.5 -46t20.5 -65q0 -57 -37 -103t-109 -89q-74 -46 -105 -83h37l120 -2q22 0 33.5 -10z" />
    <glyph glyph-name="uni00B3" unicode="&#xb3;" horiz-adv-x="441" 
d="M460 522q0 -46 -26 -82t-70.5 -56t-99.5 -20q-85 0 -133.5 33t-48.5 94q0 16 3 34q9 49 59 49q26 0 34.5 -10.5t7.5 -32.5v-24q0 -27 17.5 -42.5t61.5 -15.5q33 0 62 15.5t29 53.5q0 43 -65 44q-36 0 -36 29q0 54 49 54q37 1 58.5 24.5t21.5 57.5q0 22 -14.5 33.5
t-35.5 11.5q-34 0 -55 -21t-20 -54q0 -14 -15.5 -25.5t-44.5 -11.5q-47 0 -47 43q0 41 27 76.5t70 56.5t89 21q41 0 76 -17t55.5 -45.5t20.5 -60.5q0 -42 -22.5 -77t-59.5 -54q52 -24 52 -81z" />
    <glyph glyph-name="acute" unicode="&#xb4;" horiz-adv-x="376" 
d="M168.5 571q-9.5 10 -9.5 26q0 24 20 44l106 106q16 16 29 22.5t28 6.5q18 0 28.5 -11t10.5 -28q0 -27 -33 -59l-105 -94q-15 -13 -25.5 -18t-23.5 -5q-16 0 -25.5 10z" />
    <glyph glyph-name="paragraph" unicode="&#xb6;" horiz-adv-x="631" 
d="M263 -5l47 278q-91 3 -148 54t-57 134q0 87 49 152t132 99.5t182 34.5q70 0 87 -2q57 -5 50 -42l-121 -690q-4 -24 -13.5 -33.5t-32.5 -9.5q-39 0 -37 24l113 660q1 3 1 7q0 6 -4.5 7.5t-18.5 1.5q-19 0 -25.5 -2.5t-8.5 -13.5l-114 -652q-2 -15 -14 -23.5t-33 -8.5
q-34 0 -34 25z" />
    <glyph glyph-name="periodcentered" unicode="&#xb7;" horiz-adv-x="436" 
d="M166.5 278.5q-21.5 20.5 -21.5 54.5q0 48 30 77t79 29q34 0 55 -20.5t21 -54.5q0 -47 -29.5 -76.5t-77.5 -29.5q-35 0 -56.5 20.5z" />
    <glyph glyph-name="cedilla" unicode="&#xb8;" horiz-adv-x="376" 
d="M29.5 -223q-21.5 4 -35.5 11q-25 10 -25 28q0 17 11.5 29t29.5 12q5 0 27 -6q3 -1 18 -5t28 -4q52 0 52 26q0 11 -13 17t-42 11q-33 6 -33 32q0 6 6 20l76 93q9 12 16.5 18t16.5 6q18 0 31 -8.5t13 -22.5q0 -7 -2.5 -12.5t-9.5 -13.5l-54 -64q28 -7 49.5 -24t21.5 -47
q0 -46 -40 -73t-100 -27q-20 0 -41.5 4z" />
    <glyph glyph-name="uni00B9" unicode="&#xb9;" horiz-adv-x="314" 
d="M319.5 836.5q15.5 -14.5 11.5 -35.5l-68 -389q-3 -19 -20.5 -30.5t-42.5 -11.5q-20 0 -30.5 9.5t-10.5 23.5q0 6 1 9l56 314q-28 -32 -46 -49q-16 -16 -37 -16q-15 0 -26.5 11.5t-8.5 28.5q2 14 28 42l89 91q8 8 26 12.5t37 4.5q26 0 41.5 -14.5z" />
    <glyph glyph-name="ordmasculine" unicode="&#xba;" horiz-adv-x="363" 
d="M146 494.5q-36 27.5 -36 85.5q0 60 40 100.5t106 40.5q54 0 89 -33.5t35 -81.5q0 -66 -39 -102.5t-109 -36.5q-50 0 -86 27.5zM289 543q22 22 22 63q0 27 -14.5 44t-40.5 17q-36 0 -58 -26t-22 -61q0 -26 16 -42.5t40 -16.5q35 0 57 22z" />
    <glyph glyph-name="guillemotright" unicode="&#xbb;" horiz-adv-x="598" 
d="M67 199q-9 9 -9 23q0 41 44 54q32 8 72 29.5t69 43t29 29.5q0 7 -21 24.5t-50.5 35t-53.5 24.5q-15 4 -23.5 14t-8.5 22q0 20 15 34.5t34 14.5q31 0 77.5 -28.5t80.5 -68t34 -70.5q0 -32 -50 -77.5t-114.5 -79t-100.5 -33.5q-15 0 -24 9zM270 194q-10 9 -10 24
q0 20 14.5 34t36.5 19q26 5 65 27t69.5 46t30.5 31q0 6 -21 23.5t-50 34.5t-50 23q-16 5 -24.5 15.5t-8.5 24.5q0 19 14 32t33 13q33 0 79 -27.5t79.5 -67t33.5 -71.5q0 -33 -41 -73t-103 -73t-121 -44q-16 0 -26 9z" />
    <glyph glyph-name="onequarter" unicode="&#xbc;" horiz-adv-x="893" 
d="M156 594q-19 -17 -38 -17q-13 0 -24 10t-11 25q0 10 8.5 23t19.5 24q13 15 25 25q66 69 64 67q8 8 26.5 12t37.5 4q25 0 40.5 -14.5t11.5 -34.5l-68 -389q-3 -19 -20.5 -31t-42.5 -12q-20 0 -30.5 9.5t-10.5 23.5q0 7 1 10l56 314q-33 -37 -45 -49zM723 686l-509 -666
q-9 -11 -22.5 -17t-27.5 -6q-20 0 -33.5 10.5t-10.5 29.5q3 15 18 34l509 668q21 27 54 27q18 0 29.5 -9t11.5 -25q0 -5 -1 -8q-4 -18 -18 -38zM842 199.5q9 -8.5 9 -24.5q0 -25 -12 -38.5t-36 -17.5l-24 -3l-17 -79q-3 -17 -21 -29.5t-42 -12.5q-20 0 -31 10t-11 26
q0 7 1 10l15 70h-71q-38 0 -74.5 4.5t-54.5 8.5q-35 9 -35 34q0 14 13 33q80 115 130.5 181.5t98.5 108.5q7 6 13 8.5t17 2.5q17 0 30.5 -11t13.5 -25q0 -11 -6 -22t-22 -27q-42 -40 -87 -100.5t-64 -94.5q-4 -6 -4 -8q0 -4 13 -7q13 -2 39 -2h40q19 0 29 1l27 122
q4 18 18.5 30.5t39.5 12.5q22 0 34 -10t12 -26q0 -7 -1 -10l-24 -111l20 2q15 2 24 -6.5z" />
    <glyph glyph-name="onehalf" unicode="&#xbd;" horiz-adv-x="914" 
d="M723 686l-510 -666q-8 -11 -21.5 -17t-28.5 -6q-20 0 -33.5 10.5t-9.5 29.5q2 14 17 34l509 668q10 13 25 20t30 7q17 0 28.5 -8.5t11.5 -23.5q0 -7 -1 -10q-4 -20 -17 -38zM155 592q-17 -17 -37 -17q-15 0 -26.5 12t-8.5 28q3 17 28 42q13 15 25 25q66 69 64 67
q8 8 26 12t37 4q26 0 41.5 -14.5t11.5 -34.5l-68 -389q-3 -19 -21 -31t-42 -12q-20 0 -30.5 9.5t-10.5 24.5q0 6 1 9l56 314q-32 -36 -46 -49zM838 75q11 -10 11 -26q0 -21 -15.5 -35.5t-39.5 -14.5l-39 1q-35 3 -85 3q-25 0 -67 -2l-50 -1q-20 0 -32.5 9.5t-11.5 24.5
q6 46 61.5 102.5t132.5 104.5q42 25 63 55t21 62q0 22 -13 34.5t-35 12.5t-42 -19t-25 -48q-4 -20 -19 -29t-42 -9q-43 0 -43 35q0 41 25 76.5t66 57t86 21.5q42 0 77 -17t55.5 -46t20.5 -65q0 -57 -37 -103t-109 -89q-74 -46 -105 -83h38l120 -2q22 0 33 -10z" />
    <glyph glyph-name="threequarters" unicode="&#xbe;" horiz-adv-x="1007" 
d="M852 686l-509 -666q-9 -11 -22.5 -17t-27.5 -6q-20 0 -33.5 10.5t-10.5 29.5q4 17 18 34l509 668q21 27 54 27q19 0 31 -11t9 -31q-6 -23 -18 -38zM418 348q-26 -36 -70.5 -56t-99.5 -20q-85 0 -133.5 33t-48.5 94q0 16 3 34q9 49 59 49q26 0 34.5 -10.5t7.5 -32.5v-24
q0 -27 17.5 -42.5t61.5 -15.5q33 0 62 15.5t29 53.5q0 43 -65 44q-36 0 -36 29q0 54 49 54q37 1 58.5 24.5t21.5 57.5q0 22 -14.5 33.5t-35.5 11.5q-34 0 -55 -21t-20 -54q0 -14 -15.5 -25.5t-44.5 -11.5q-47 0 -47 43q0 41 27 76.5t70 56.5t89 21q41 0 76 -17t55.5 -45.5
t20.5 -60.5q0 -42 -22.5 -77t-59.5 -54q52 -24 52 -81q0 -46 -26 -82zM955 194.5q9 -8.5 9 -24.5q0 -25 -12 -38.5t-36 -17.5l-24 -3l-17 -79q-3 -17 -21 -29.5t-42 -12.5q-20 0 -31 10t-11 26q0 7 1 10l15 70h-71q-38 0 -74.5 4.5t-54.5 8.5q-35 9 -35 34q0 14 13 33
q80 115 130.5 181.5t98.5 108.5q7 6 13 8.5t17 2.5q17 0 30.5 -11t13.5 -25q0 -11 -6 -22t-22 -27q-42 -40 -87 -100.5t-64 -94.5q-4 -6 -4 -8q0 -4 13 -7q13 -2 39 -2h40q19 0 29 1l27 122q4 18 18.5 30.5t39.5 12.5q22 0 34 -10t12 -26q0 -7 -1 -10l-24 -111l20 2
q15 2 24 -6.5z" />
    <glyph glyph-name="questiondown" unicode="&#xbf;" horiz-adv-x="542" 
d="M266 467q-16 16 -16 39q0 31 24 54.5t54 23.5q25 0 41.5 -15.5t16.5 -39.5q0 -30 -25 -54t-56 -24q-23 0 -39 16zM121 -103q-43 22 -67.5 60.5t-24.5 86.5t19.5 87.5t46.5 68t71 66.5q42 37 62 60t20 48q0 21 15 33t36 12q17 0 27 -10t10 -27q0 -42 -27.5 -78t-84.5 -91
q-52 -48 -79 -83t-27 -73q0 -44 26.5 -69.5t74.5 -25.5q68 0 107.5 30.5t39.5 85.5q0 20 -11 33.5t-29 13.5q-19 0 -29.5 9t-10.5 26q0 24 16 38t39 14q32 0 58 -19t40.5 -50t14.5 -65q0 -62 -30 -108t-83.5 -70.5t-121.5 -24.5q-55 0 -98 22z" />
    <glyph glyph-name="Agrave" unicode="&#xc0;" horiz-adv-x="695" 
d="M618.5 179.5q-11.5 -19.5 -31.5 -19.5h-6q10 -79 13 -103q1 -4 1 -9q0 -26 -20 -42.5t-49 -16.5q-22 0 -39 9.5t-19 26.5l-14 136l-228 3l-14 -29q-16 -35 -51 -107q-19 -38 -64 -38q-29 0 -50 14.5t-17 36.5q2 12 5 17q184 360 271 533q35 69 59 95t64 26t63 -25.5
t32 -86.5q10 -69 20 -151t15 -118l7 -58h13q51 0 51 -44q0 -30 -11.5 -49.5zM443 274l-19 187q-4 43 -7.5 59.5t-8.5 16.5q-4 0 -9.5 -9.5t-15.5 -32.5l-14 -29l-90 -190zM456 757q-9 5 -18 17l-64 86q-13 18 -13 37q0 21 16 36.5t37 15.5q24 0 44 -29l58 -85q11 -18 11 -33
q0 -20 -15 -35t-35 -15q-12 0 -21 5z" />
    <glyph glyph-name="Aacute" unicode="&#xc1;" horiz-adv-x="695" 
d="M618.5 179.5q-11.5 -19.5 -31.5 -19.5h-6q10 -79 13 -103q1 -4 1 -9q0 -26 -20 -42.5t-49 -16.5q-22 0 -39 9.5t-19 26.5l-14 136l-228 3l-14 -29q-16 -35 -51 -107q-19 -38 -64 -38q-29 0 -50 14.5t-17 36.5q2 12 5 17q184 360 271 533q35 69 59 95t64 26t63 -25.5
t32 -86.5q10 -69 20 -151t15 -118l7 -58h13q51 0 51 -44q0 -30 -11.5 -49.5zM443 274l-19 187q-4 43 -7.5 59.5t-8.5 16.5q-4 0 -9.5 -9.5t-15.5 -32.5l-14 -29l-90 -190zM371 770.5q-11 12.5 -11 28.5q0 23 27 44l99 79q22 17 33.5 24t23.5 7q17 0 28 -13t11 -30
q0 -28 -31 -51l-107 -80q-16 -12 -25.5 -16.5t-20.5 -4.5q-16 0 -27 12.5z" />
    <glyph glyph-name="Acircumflex" unicode="&#xc2;" horiz-adv-x="695" 
d="M618.5 179.5q-11.5 -19.5 -31.5 -19.5h-6q10 -79 13 -103q1 -4 1 -9q0 -26 -20 -42.5t-49 -16.5q-22 0 -39 9.5t-19 26.5l-14 136l-228 3l-14 -29q-16 -35 -51 -107q-19 -38 -64 -38q-29 0 -50 14.5t-17 36.5q2 12 5 17q184 360 271 533q35 69 59 95t64 26t63 -25.5
t32 -86.5q10 -69 20 -151t15 -118l7 -58h13q51 0 51 -44q0 -30 -11.5 -49.5zM443 274l-19 187q-4 43 -7.5 59.5t-8.5 16.5q-4 0 -9.5 -9.5t-15.5 -32.5l-14 -29l-90 -190zM523 773l-28 45q-12 20 -21.5 34.5t-13.5 14.5t-15.5 -9.5t-23 -20.5t-20.5 -19l-36 -34
q-16 -13 -26.5 -19t-20.5 -6q-16 0 -27.5 11t-11.5 27q0 9 5 20t15 20q18 16 31 29q51 46 84.5 71.5t57.5 25.5q28 0 45.5 -17t44.5 -58q21 -34 40 -58q8 -12 8 -23q0 -21 -15.5 -37t-36.5 -16q-25 0 -35 19z" />
    <glyph glyph-name="Atilde" unicode="&#xc3;" horiz-adv-x="695" 
d="M618.5 179.5q-11.5 -19.5 -31.5 -19.5h-6q10 -79 13 -103q1 -4 1 -9q0 -26 -20 -42.5t-49 -16.5q-22 0 -39 9.5t-19 26.5l-14 136l-228 3l-14 -29q-16 -35 -51 -107q-19 -38 -64 -38q-29 0 -50 14.5t-17 36.5q2 12 5 17q184 360 271 533q35 69 59 95t64 26t63 -25.5
t32 -86.5q10 -69 20 -151t15 -118l7 -58h13q51 0 51 -44q0 -30 -11.5 -49.5zM443 274l-19 187q-4 43 -7.5 59.5t-8.5 16.5q-4 0 -9.5 -9.5t-15.5 -32.5l-14 -29l-90 -190zM280 780q-10 11 -10 26q0 21 18 39q32 32 57 45.5t54 13.5q23 0 47 -6.5t44 -17.5q16 -10 26.5 -15
t16.5 -5q9 0 20 11q12 11 21 16t19 5q16 0 27.5 -12t11.5 -29q0 -21 -20 -39q-50 -43 -96 -43q-19 0 -35 6t-28 13t-17 9q-33 19 -46 19q-6 0 -14.5 -6.5t-15 -12t-9.5 -8.5q-23 -20 -44 -20q-17 0 -27 11z" />
    <glyph glyph-name="Adieresis" unicode="&#xc4;" horiz-adv-x="695" 
d="M618.5 179.5q-11.5 -19.5 -31.5 -19.5h-6q10 -79 13 -103q1 -4 1 -9q0 -26 -20 -42.5t-49 -16.5q-22 0 -39 9.5t-19 26.5l-14 136l-228 3l-14 -29q-16 -35 -51 -107q-19 -38 -64 -38q-29 0 -50 14.5t-17 36.5q2 12 5 17q184 360 271 533q35 69 59 95t64 26t63 -25.5
t32 -86.5q10 -69 20 -151t15 -118l7 -58h13q51 0 51 -44q0 -30 -11.5 -49.5zM443 274l-19 187q-4 43 -7.5 59.5t-8.5 16.5q-4 0 -9.5 -9.5t-15.5 -32.5l-14 -29l-90 -190zM266.5 782q-16.5 17 -16.5 42q0 32 25 56t57 24q25 0 43 -17t18 -41q0 -31 -26.5 -56t-58.5 -25
q-25 0 -41.5 17zM530.5 782q-16.5 17 -16.5 42q0 32 25 56t57 24q25 0 42.5 -16.5t17.5 -40.5q0 -31 -26 -56.5t-58 -25.5q-25 0 -41.5 17z" />
    <glyph glyph-name="Aring" unicode="&#xc5;" horiz-adv-x="695" 
d="M618.5 179.5q-11.5 -19.5 -31.5 -19.5h-6q10 -79 13 -103q1 -4 1 -9q0 -26 -20 -42.5t-49 -16.5q-22 0 -39 9.5t-19 26.5l-14 136l-228 3l-14 -29q-16 -35 -51 -107q-19 -38 -64 -38q-29 0 -50 14.5t-17 36.5q2 12 5 17q184 360 271 533q35 69 59 95t64 26t63 -25.5
t32 -86.5q10 -69 20 -151t15 -118l7 -58h13q51 0 51 -44q0 -30 -11.5 -49.5zM443 274l-19 187q-4 43 -7.5 59.5t-8.5 16.5q-4 0 -9.5 -9.5t-15.5 -32.5l-14 -29l-90 -190zM363.5 768.5q-31.5 31.5 -31.5 76.5q0 37 20 69t54 51t73 19q45 0 75 -31.5t30 -74.5
q0 -38 -19 -70.5t-52 -51.5t-72 -19q-46 0 -77.5 31.5zM490 827.5q17 15.5 19 38.5q2 17 -9.5 30.5t-32.5 13.5q-24 0 -41.5 -17t-17.5 -39q0 -19 11.5 -30.5t30.5 -11.5q23 0 40 15.5z" />
    <glyph glyph-name="AE" unicode="&#xc6;" horiz-adv-x="890" 
d="M918 678.5q6 -6.5 6 -20.5q0 -9 -1 -15q-7 -35 -20.5 -45.5t-32.5 -9.5q-48 4 -117 4q-71 0 -111 -3q-8 -69 -30 -185q46 -2 66 -2q91 -2 107 -3q16 -3 16 -24q0 -10 -1 -15q-4 -22 -16.5 -32.5t-38.5 -10.5l-46 1l-48 2h-54q-11 -54 -23 -103t-28 -110q50 -6 123 -6
q35 0 49.5 1t57.5 7q13 2 26 -7.5t13 -31.5q0 -8 -1 -12q-5 -26 -20.5 -40t-30.5 -18q-14 -4 -37 -5t-51 -1q-67 0 -104 1l-157 1q-55 0 -55 39q0 7 1 11q10 53 56 53q10 32 24 90l-177 1q-80 -119 -109 -164q-10 -12 -19 -19t-26 -7q-26 0 -52 15t-26 32q0 6 3 10
q149 235 285.5 425t203.5 207q4 2 8 2q34 0 66 1t55 2l75 2q45 0 171 -9q14 -2 20 -8.5zM459 275q27 127 45 237q2 10 2 13q-64 -74 -184 -248z" />
    <glyph glyph-name="Ccedilla" unicode="&#xc7;" horiz-adv-x="733" 
d="M729.5 697.5q13.5 -11.5 13.5 -31.5q0 -6 -1 -10l-22 -114q-11 -61 -70 -61q-34 0 -45 20q-19 34 -33 53.5t-40 34t-64 14.5q-71 0 -136.5 -47t-106 -120.5t-40.5 -147.5q0 -57 25 -98t67.5 -62t95.5 -21q69 0 127.5 36t77.5 108q6 25 21 41.5t49 16.5q62 0 56 -61
q-8 -57 -49 -115.5t-113.5 -97.5t-168.5 -39h-2l-45 -52q29 -7 50.5 -24t21.5 -47q0 -46 -40.5 -73t-100.5 -27q-20 0 -41.5 4t-35.5 11q-25 10 -25 28q0 17 12 29t30 12q4 0 26 -6q32 -9 46 -9q52 0 52 26q0 11 -12.5 17t-42.5 11q-32 6 -32 32q0 8 5 20l47 58
q-102 24 -163.5 98.5t-61.5 185.5q0 107 56 205t150 158.5t201 60.5q108 0 157 -63l3 18q4 18 20 29t42 11t39.5 -11.5z" />
    <glyph glyph-name="Egrave" unicode="&#xc8;" horiz-adv-x="618" 
d="M638 680q12 -9 12 -28q0 -29 -17.5 -49t-41.5 -19q-92 8 -168 8q-69 0 -117 -3l-14 -89l-12 -78h30q149 -2 184 -4q14 -2 23 -9.5t9 -26.5q0 -27 -14.5 -49.5t-36.5 -22.5q-38 0 -54 1q-14 0 -41 0.5t-83 0.5h-36q-11 -56 -21.5 -97.5t-26.5 -92.5q59 -4 115 -4
q58 0 92 2t72 7l11 1q19 0 30 -10.5t11 -31.5q0 -28 -14.5 -45t-41.5 -22q-48 -9 -196 -9q-58 0 -108.5 2.5t-119.5 11.5q-31 4 -31 36q0 28 12.5 48.5t33.5 20.5h13q26 81 45 185h-9q-16 0 -25.5 9.5t-9.5 28.5q0 31 14 51.5t37 20.5h12l29 160h-4q-13 0 -18.5 11t-5.5 26
q0 67 71 74q52 5 175 5q136 0 202 -8q21 -3 33 -12zM440 757q-9 5 -18 17l-64 86q-13 18 -13 37q0 21 16 36.5t37 15.5q24 0 44 -29l58 -85q11 -18 11 -33q0 -20 -15 -35t-35 -15q-12 0 -21 5z" />
    <glyph glyph-name="Eacute" unicode="&#xc9;" horiz-adv-x="618" 
d="M638 680q12 -9 12 -28q0 -29 -17.5 -49t-41.5 -19q-92 8 -168 8q-69 0 -117 -3l-14 -89l-12 -78h30q149 -2 184 -4q14 -2 23 -9.5t9 -26.5q0 -27 -14.5 -49.5t-36.5 -22.5q-38 0 -54 1q-14 0 -41 0.5t-83 0.5h-36q-11 -56 -21.5 -97.5t-26.5 -92.5q59 -4 115 -4
q58 0 92 2t72 7l11 1q19 0 30 -10.5t11 -31.5q0 -28 -14.5 -45t-41.5 -22q-48 -9 -196 -9q-58 0 -108.5 2.5t-119.5 11.5q-31 4 -31 36q0 28 12.5 48.5t33.5 20.5h13q26 81 45 185h-9q-16 0 -25.5 9.5t-9.5 28.5q0 31 14 51.5t37 20.5h12l29 160h-4q-13 0 -18.5 11t-5.5 26
q0 67 71 74q52 5 175 5q136 0 202 -8q21 -3 33 -12zM355 770.5q-11 12.5 -11 28.5q0 23 27 44l99 79q22 17 33.5 24t23.5 7q17 0 28 -13t11 -30q0 -28 -31 -51l-107 -80q-16 -12 -25.5 -16.5t-20.5 -4.5q-16 0 -27 12.5z" />
    <glyph glyph-name="Ecircumflex" unicode="&#xca;" horiz-adv-x="618" 
d="M638 680q12 -9 12 -28q0 -29 -17.5 -49t-41.5 -19q-92 8 -168 8q-69 0 -117 -3l-14 -89l-12 -78h30q149 -2 184 -4q14 -2 23 -9.5t9 -26.5q0 -27 -14.5 -49.5t-36.5 -22.5q-38 0 -54 1q-14 0 -41 0.5t-83 0.5h-36q-11 -56 -21.5 -97.5t-26.5 -92.5q59 -4 115 -4
q58 0 92 2t72 7l11 1q19 0 30 -10.5t11 -31.5q0 -28 -14.5 -45t-41.5 -22q-48 -9 -196 -9q-58 0 -108.5 2.5t-119.5 11.5q-31 4 -31 36q0 28 12.5 48.5t33.5 20.5h13q26 81 45 185h-9q-16 0 -25.5 9.5t-9.5 28.5q0 31 14 51.5t37 20.5h12l29 160h-4q-13 0 -18.5 11t-5.5 26
q0 67 71 74q52 5 175 5q136 0 202 -8q21 -3 33 -12zM507 773l-28 45q-12 20 -21.5 34.5t-13.5 14.5t-15.5 -9.5t-23 -20.5t-20.5 -19l-36 -34q-16 -13 -26.5 -19t-20.5 -6q-16 0 -27.5 11t-11.5 27q0 9 5 20t15 20q18 16 31 29q51 46 84.5 71.5t57.5 25.5q28 0 45.5 -17
t44.5 -58q21 -34 40 -58q8 -12 8 -23q0 -21 -15.5 -37t-36.5 -16q-25 0 -35 19z" />
    <glyph glyph-name="Edieresis" unicode="&#xcb;" horiz-adv-x="618" 
d="M638 680q12 -9 12 -28q0 -29 -17.5 -49t-41.5 -19q-92 8 -168 8q-69 0 -117 -3l-14 -89l-12 -78h30q149 -2 184 -4q14 -2 23 -9.5t9 -26.5q0 -27 -14.5 -49.5t-36.5 -22.5q-38 0 -54 1q-14 0 -41 0.5t-83 0.5h-36q-11 -56 -21.5 -97.5t-26.5 -92.5q59 -4 115 -4
q58 0 92 2t72 7l11 1q19 0 30 -10.5t11 -31.5q0 -28 -14.5 -45t-41.5 -22q-48 -9 -196 -9q-58 0 -108.5 2.5t-119.5 11.5q-31 4 -31 36q0 28 12.5 48.5t33.5 20.5h13q26 81 45 185h-9q-16 0 -25.5 9.5t-9.5 28.5q0 31 14 51.5t37 20.5h12l29 160h-4q-13 0 -18.5 11t-5.5 26
q0 67 71 74q52 5 175 5q136 0 202 -8q21 -3 33 -12zM250.5 782q-16.5 17 -16.5 42q0 32 25 56t57 24q25 0 43 -17t18 -41q0 -31 -26.5 -56t-58.5 -25q-25 0 -41.5 17zM514.5 782q-16.5 17 -16.5 42q0 32 25 56t57 24q25 0 42.5 -16.5t17.5 -40.5q0 -31 -26 -56.5t-58 -25.5
q-25 0 -41.5 17z" />
    <glyph glyph-name="Igrave" unicode="&#xcc;" horiz-adv-x="486" 
d="M522 663q0 -30 -16 -49t-48 -18q-30 2 -70 2q-50 -271 -103 -483l87 -1q47 -1 47 -40q0 -32 -18 -51.5t-49 -19.5l-300 4q-42 1 -42 41q0 29 17.5 49.5t44.5 20.5l94 -1q58 251 100 481l-78 -5q-27 -3 -42 -3q-18 0 -28.5 11t-10.5 30q0 30 16 48t45 22q19 3 70.5 6
t109.5 3q76 0 134 -6q40 -3 40 -41zM360 757q-9 5 -18 17l-64 86q-13 18 -13 37q0 21 16 36.5t37 15.5q24 0 44 -29l58 -85q11 -18 11 -33q0 -20 -15 -35t-35 -15q-12 0 -21 5z" />
    <glyph glyph-name="Iacute" unicode="&#xcd;" horiz-adv-x="486" 
d="M522 663q0 -30 -16 -49t-48 -18q-30 2 -70 2q-50 -271 -103 -483l87 -1q47 -1 47 -40q0 -32 -18 -51.5t-49 -19.5l-300 4q-42 1 -42 41q0 29 17.5 49.5t44.5 20.5l94 -1q58 251 100 481l-78 -5q-27 -3 -42 -3q-18 0 -28.5 11t-10.5 30q0 30 16 48t45 22q19 3 70.5 6
t109.5 3q76 0 134 -6q40 -3 40 -41zM275 770.5q-11 12.5 -11 28.5q0 23 27 44l99 79q22 17 33.5 24t23.5 7q17 0 28 -13t11 -30q0 -28 -31 -51l-107 -80q-16 -12 -25.5 -16.5t-20.5 -4.5q-16 0 -27 12.5z" />
    <glyph glyph-name="Icircumflex" unicode="&#xce;" horiz-adv-x="486" 
d="M522 663q0 -30 -16 -49t-48 -18q-30 2 -70 2q-50 -271 -103 -483l87 -1q47 -1 47 -40q0 -32 -18 -51.5t-49 -19.5l-300 4q-42 1 -42 41q0 29 17.5 49.5t44.5 20.5l94 -1q58 251 100 481l-78 -5q-27 -3 -42 -3q-18 0 -28.5 11t-10.5 30q0 30 16 48t45 22q19 3 70.5 6
t109.5 3q76 0 134 -6q40 -3 40 -41zM427 773l-28 45q-12 20 -21.5 34.5t-13.5 14.5t-15.5 -9.5t-23 -20.5t-20.5 -19l-36 -34q-16 -13 -26.5 -19t-20.5 -6q-16 0 -27.5 11t-11.5 27q0 9 5 20t15 20q18 16 31 29q51 46 84.5 71.5t57.5 25.5q28 0 45.5 -17t44.5 -58
q21 -34 40 -58q8 -12 8 -23q0 -21 -15.5 -37t-36.5 -16q-25 0 -35 19z" />
    <glyph glyph-name="Idieresis" unicode="&#xcf;" horiz-adv-x="486" 
d="M522 663q0 -30 -16 -49t-48 -18q-30 2 -70 2q-50 -271 -103 -483l87 -1q47 -1 47 -40q0 -32 -18 -51.5t-49 -19.5l-300 4q-42 1 -42 41q0 29 17.5 49.5t44.5 20.5l94 -1q58 251 100 481l-78 -5q-27 -3 -42 -3q-18 0 -28.5 11t-10.5 30q0 30 16 48t45 22q19 3 70.5 6
t109.5 3q76 0 134 -6q40 -3 40 -41zM170.5 782q-16.5 17 -16.5 42q0 32 25 56t57 24q25 0 43 -17t18 -41q0 -31 -26.5 -56t-58.5 -25q-25 0 -41.5 17zM434.5 782q-16.5 17 -16.5 42q0 32 25 56t57 24q25 0 42.5 -16.5t17.5 -40.5q0 -31 -26 -56.5t-58 -25.5q-25 0 -41.5 17z
" />
    <glyph glyph-name="Eth" unicode="&#xd0;" horiz-adv-x="722" 
d="M594 612q98 -77 98 -215q0 -116 -69.5 -205t-187 -137.5t-257.5 -48.5h-67q-32 0 -46.5 9.5t-14.5 33.5q0 30 19 46.5t50 18.5l28 189l-31 1q-33 1 -51 14t-18 37q0 32 25.5 52.5t67.5 19.5l25 -1l26 172q-19 5 -28 16t-9 29q0 26 17 39t49 17q17 17 54 17t53 -16
q169 -11 267 -88zM411.5 165q67.5 38 105.5 98.5t38 135.5q0 94 -64 136t-163 52l-25 -164l56 -2q32 -1 48.5 -15t16.5 -38q0 -30 -24 -49.5t-63 -19.5l-52 1l-27 -183q86 10 153.5 48z" />
    <glyph glyph-name="Ntilde" unicode="&#xd1;" horiz-adv-x="752" 
d="M752 668q0 -5 -2 -19q-21 -125 -58 -321q-23 -124 -42.5 -190.5t-44.5 -96.5t-64 -30q-35 0 -62 26t-56 80.5t-82 170.5l-79 175l-19 44l-15 -93l-15 -90q-24 -143 -47 -263q-4 -22 -24 -37t-46 -15t-41 16t-12 36q14 86 26 149q20 111 23 126q-2 -11 14 85
q24 136 24 139q10 57 21 88t28 45t46 14q35 0 61 -24t55 -80.5t82 -179.5q75 -173 116 -252l34 179l56 311q4 24 22 38.5t50 14.5q51 0 51 -46zM316 780q-10 11 -10 26q0 21 18 39q32 32 57 45.5t54 13.5q23 0 47 -6.5t44 -17.5q16 -10 26.5 -15t16.5 -5q9 0 20 11
q12 11 21 16t19 5q16 0 27.5 -12t11.5 -29q0 -21 -20 -39q-50 -43 -96 -43q-19 0 -35 6t-28 13t-17 9q-33 19 -46 19q-6 0 -14.5 -6.5t-15 -12t-9.5 -8.5q-23 -20 -44 -20q-17 0 -27 11z" />
    <glyph glyph-name="Ograve" unicode="&#xd2;" horiz-adv-x="805" 
d="M212.5 42.5q-70.5 35.5 -110 102.5t-39.5 157q0 109 50.5 202.5t140.5 148.5t201 55q94 0 167.5 -39.5t114.5 -111t41 -164.5q0 -110 -53 -198t-145 -138t-206 -50q-91 0 -161.5 35.5zM523 154.5q63 37.5 98 102t35 141.5q0 91 -52 145.5t-142 54.5q-79 0 -141.5 -42
t-97.5 -111t-35 -146q0 -92 53.5 -137t137.5 -45q81 0 144 37.5zM507 757q-9 5 -18 17l-64 86q-13 18 -13 37q0 21 16 36.5t37 15.5q24 0 44 -29l58 -85q11 -18 11 -33q0 -20 -15 -35t-35 -15q-12 0 -21 5z" />
    <glyph glyph-name="Oacute" unicode="&#xd3;" horiz-adv-x="805" 
d="M212.5 42.5q-70.5 35.5 -110 102.5t-39.5 157q0 109 50.5 202.5t140.5 148.5t201 55q94 0 167.5 -39.5t114.5 -111t41 -164.5q0 -110 -53 -198t-145 -138t-206 -50q-91 0 -161.5 35.5zM523 154.5q63 37.5 98 102t35 141.5q0 91 -52 145.5t-142 54.5q-79 0 -141.5 -42
t-97.5 -111t-35 -146q0 -92 53.5 -137t137.5 -45q81 0 144 37.5zM422 770.5q-11 12.5 -11 28.5q0 23 27 44l99 79q22 17 33.5 24t23.5 7q17 0 28 -13t11 -30q0 -28 -31 -51l-107 -80q-16 -12 -25.5 -16.5t-20.5 -4.5q-16 0 -27 12.5z" />
    <glyph glyph-name="Ocircumflex" unicode="&#xd4;" horiz-adv-x="805" 
d="M212.5 42.5q-70.5 35.5 -110 102.5t-39.5 157q0 109 50.5 202.5t140.5 148.5t201 55q94 0 167.5 -39.5t114.5 -111t41 -164.5q0 -110 -53 -198t-145 -138t-206 -50q-91 0 -161.5 35.5zM523 154.5q63 37.5 98 102t35 141.5q0 91 -52 145.5t-142 54.5q-79 0 -141.5 -42
t-97.5 -111t-35 -146q0 -92 53.5 -137t137.5 -45q81 0 144 37.5zM574 773l-28 45q-12 20 -21.5 34.5t-13.5 14.5t-15.5 -9.5t-23 -20.5t-20.5 -19l-36 -34q-16 -13 -26.5 -19t-20.5 -6q-16 0 -27.5 11t-11.5 27q0 9 5 20t15 20q18 16 31 29q51 46 84.5 71.5t57.5 25.5
q28 0 45.5 -17t44.5 -58q21 -34 40 -58q8 -12 8 -23q0 -21 -15.5 -37t-36.5 -16q-25 0 -35 19z" />
    <glyph glyph-name="Otilde" unicode="&#xd5;" horiz-adv-x="805" 
d="M212.5 42.5q-70.5 35.5 -110 102.5t-39.5 157q0 109 50.5 202.5t140.5 148.5t201 55q94 0 167.5 -39.5t114.5 -111t41 -164.5q0 -110 -53 -198t-145 -138t-206 -50q-91 0 -161.5 35.5zM523 154.5q63 37.5 98 102t35 141.5q0 91 -52 145.5t-142 54.5q-79 0 -141.5 -42
t-97.5 -111t-35 -146q0 -92 53.5 -137t137.5 -45q81 0 144 37.5zM331 780q-10 11 -10 26q0 21 18 39q32 32 57 45.5t54 13.5q23 0 47 -6.5t44 -17.5q16 -10 26.5 -15t16.5 -5q9 0 20 11q12 11 21 16t19 5q16 0 27.5 -12t11.5 -29q0 -21 -20 -39q-50 -43 -96 -43q-19 0 -35 6
t-28 13t-17 9q-33 19 -46 19q-6 0 -14.5 -6.5t-15 -12t-9.5 -8.5q-23 -20 -44 -20q-17 0 -27 11z" />
    <glyph glyph-name="Odieresis" unicode="&#xd6;" horiz-adv-x="805" 
d="M212.5 42.5q-70.5 35.5 -110 102.5t-39.5 157q0 109 50.5 202.5t140.5 148.5t201 55q94 0 167.5 -39.5t114.5 -111t41 -164.5q0 -110 -53 -198t-145 -138t-206 -50q-91 0 -161.5 35.5zM523 154.5q63 37.5 98 102t35 141.5q0 91 -52 145.5t-142 54.5q-79 0 -141.5 -42
t-97.5 -111t-35 -146q0 -92 53.5 -137t137.5 -45q81 0 144 37.5zM317.5 782q-16.5 17 -16.5 42q0 32 25 56t57 24q25 0 43 -17t18 -41q0 -31 -26.5 -56t-58.5 -25q-25 0 -41.5 17zM581.5 782q-16.5 17 -16.5 42q0 32 25 56t57 24q25 0 42.5 -16.5t17.5 -40.5
q0 -31 -26 -56.5t-58 -25.5q-25 0 -41.5 17z" />
    <glyph glyph-name="multiply" unicode="&#xd7;" horiz-adv-x="553" 
d="M458 475q13 -12 10 -32q-2 -10 -5 -15.5t-14 -15.5l-107 -100q51 -63 94 -118q7 -8 9 -14t0 -14q-2 -16 -19.5 -29.5t-37.5 -13.5q-16 0 -25.5 6.5t-19.5 18.5l-78 93q-58 -54 -85 -78l-25 -23q-12 -10 -22 -15t-24 -5q-20 0 -35 14.5t-13 26.5q2 17 17 31l129 119
q-16 20 -25 30q-42 51 -57 70q-10 13 -11.5 17.5t-0.5 14.5q3 16 21 31.5t43 15.5q14 0 24 -6t20 -19q22 -29 63 -81l83 78q25 25 51 25q27 0 40 -12z" />
    <glyph glyph-name="Oslash" unicode="&#xd8;" horiz-adv-x="822" 
d="M841.5 744.5q11.5 -13.5 8.5 -32.5q-5 -20 -22 -35l-103 -101q53 -78 53 -183q0 -110 -53 -198t-145 -138t-206 -50q-105 0 -181 47l-70 -69q-22 -24 -48 -24q-17 0 -29 10.5t-12 26.5q0 10 2.5 16t12.5 17l79 78q-65 78 -65 193q0 109 50.5 202.5t140.5 148.5t201 55
q62 0 116 -18t96 -51l96 94q24 25 49 25q18 0 29.5 -13.5zM215 194l371 365q-50 39 -124 39q-79 0 -141.5 -42t-97.5 -111t-35 -146q0 -62 27 -105zM638 491l-360 -353q42 -21 101 -21q81 0 144 37.5t98 102t35 141.5q0 53 -18 93z" />
    <glyph glyph-name="Ugrave" unicode="&#xd9;" horiz-adv-x="692" 
d="M675 697q14 -12 14 -32q0 -7 -1 -11q-16 -88 -26 -156q-2 -12 -11 -65l-63 -373q-6 -35 -21.5 -49t-46.5 -14q-57 0 -57 44q0 8 1 12l6 36q-31 -40 -77.5 -64t-102.5 -24q-105 0 -161.5 58t-56.5 150q0 45 16.5 136t61.5 307q5 23 22.5 37t48.5 14q51 0 51 -36
q0 -5 -2 -17q-43 -205 -59 -300.5t-16 -133.5q0 -48 27 -76t72 -28t91.5 28.5t80.5 76t44 102.5q26 151 57 335q9 55 67 55q27 0 41 -12zM451 757q-9 5 -18 17l-64 86q-13 18 -13 37q0 21 16 36.5t37 15.5q24 0 44 -29l58 -85q11 -18 11 -33q0 -20 -15 -35t-35 -15
q-12 0 -21 5z" />
    <glyph glyph-name="Uacute" unicode="&#xda;" horiz-adv-x="692" 
d="M675 697q14 -12 14 -32q0 -7 -1 -11q-16 -88 -26 -156q-2 -12 -11 -65l-63 -373q-6 -35 -21.5 -49t-46.5 -14q-57 0 -57 44q0 8 1 12l6 36q-31 -40 -77.5 -64t-102.5 -24q-105 0 -161.5 58t-56.5 150q0 45 16.5 136t61.5 307q5 23 22.5 37t48.5 14q51 0 51 -36
q0 -5 -2 -17q-43 -205 -59 -300.5t-16 -133.5q0 -48 27 -76t72 -28t91.5 28.5t80.5 76t44 102.5q26 151 57 335q9 55 67 55q27 0 41 -12zM366 770.5q-11 12.5 -11 28.5q0 23 27 44l99 79q22 17 33.5 24t23.5 7q17 0 28 -13t11 -30q0 -28 -31 -51l-107 -80
q-16 -12 -25.5 -16.5t-20.5 -4.5q-16 0 -27 12.5z" />
    <glyph glyph-name="Ucircumflex" unicode="&#xdb;" horiz-adv-x="692" 
d="M675 697q14 -12 14 -32q0 -7 -1 -11q-16 -88 -26 -156q-2 -12 -11 -65l-63 -373q-6 -35 -21.5 -49t-46.5 -14q-57 0 -57 44q0 8 1 12l6 36q-31 -40 -77.5 -64t-102.5 -24q-105 0 -161.5 58t-56.5 150q0 45 16.5 136t61.5 307q5 23 22.5 37t48.5 14q51 0 51 -36
q0 -5 -2 -17q-43 -205 -59 -300.5t-16 -133.5q0 -48 27 -76t72 -28t91.5 28.5t80.5 76t44 102.5q26 151 57 335q9 55 67 55q27 0 41 -12zM518 773l-28 45q-12 20 -21.5 34.5t-13.5 14.5t-15.5 -9.5t-23 -20.5t-20.5 -19l-36 -34q-16 -13 -26.5 -19t-20.5 -6q-16 0 -27.5 11
t-11.5 27q0 9 5 20t15 20q18 16 31 29q51 46 84.5 71.5t57.5 25.5q28 0 45.5 -17t44.5 -58q21 -34 40 -58q8 -12 8 -23q0 -21 -15.5 -37t-36.5 -16q-25 0 -35 19z" />
    <glyph glyph-name="Udieresis" unicode="&#xdc;" horiz-adv-x="692" 
d="M675 697q14 -12 14 -32q0 -7 -1 -11q-16 -88 -26 -156q-2 -12 -11 -65l-63 -373q-6 -35 -21.5 -49t-46.5 -14q-57 0 -57 44q0 8 1 12l6 36q-31 -40 -77.5 -64t-102.5 -24q-105 0 -161.5 58t-56.5 150q0 45 16.5 136t61.5 307q5 23 22.5 37t48.5 14q51 0 51 -36
q0 -5 -2 -17q-43 -205 -59 -300.5t-16 -133.5q0 -48 27 -76t72 -28t91.5 28.5t80.5 76t44 102.5q26 151 57 335q9 55 67 55q27 0 41 -12zM261.5 782q-16.5 17 -16.5 42q0 32 25 56t57 24q25 0 43 -17t18 -41q0 -31 -26.5 -56t-58.5 -25q-25 0 -41.5 17zM525.5 782
q-16.5 17 -16.5 42q0 32 25 56t57 24q25 0 42.5 -16.5t17.5 -40.5q0 -31 -26 -56.5t-58 -25.5q-25 0 -41.5 17z" />
    <glyph glyph-name="Yacute" unicode="&#xdd;" horiz-adv-x="655" 
d="M250 14q-14 12 -14 32q0 9 1 13l46 272q-18 3 -46.5 40t-46.5 77q-47 101 -64 186q-1 4 -1 12q0 26 25 40.5t57 14.5q21 0 33 -11t19 -35q23 -92 48 -153q34 -79 53 -79q12 0 35.5 23.5t47.5 56.5q26 34 53 75.5t32 49.5l20 31q4 5 12 17t17 17.5t23 5.5q29 0 50 -17
t21 -39q0 -12 -8 -25q-17 -34 -54.5 -87.5t-66.5 -90.5q-35 -43 -77.5 -75t-59.5 -34l-44 -269q-5 -28 -23.5 -44t-48.5 -16q-25 0 -39 12zM349 770.5q-11 12.5 -11 28.5q0 23 27 44l99 79q22 17 33.5 24t23.5 7q17 0 28 -13t11 -30q0 -28 -31 -51l-107 -80
q-16 -12 -25.5 -16.5t-20.5 -4.5q-16 0 -27 12.5z" />
    <glyph glyph-name="Thorn" unicode="&#xde;" horiz-adv-x="668" 
d="M543.5 619.5q57.5 -27.5 89 -76t31.5 -110.5q0 -75 -44 -131.5t-116.5 -87t-155.5 -30.5q-54 0 -102 17l-32 -153q-5 -23 -27.5 -39.5t-51.5 -16.5q-27 0 -44 14t-17 35q0 6 1 9q26 133 48 235l6 30q4 19 21 120l8 45l-13 -7q-13 -6 -25 -6q-18 0 -32.5 15.5t-14.5 33.5
q0 29 34 52q22 15 71 35l17 107q3 23 23 39.5t49 16.5q26 0 45.5 -12.5t19.5 -36.5q0 -7 -7 -46q-1 -10 -5 -32q51 8 91 8q75 0 132.5 -27.5zM477.5 331q47.5 37 47.5 99q0 49 -37 77.5t-108 28.5q-37 0 -79 -8l-17 -105q0 3 -8 -50l-10 -63q52 -16 94 -16q70 0 117.5 37z
" />
    <glyph glyph-name="germandbls" unicode="&#xdf;" horiz-adv-x="628" 
d="M216 20q-19 13 -19 32q0 20 16 41t35 21q9 0 16 -5q44 -21 74 -21q49 0 78 20t29 56q0 21 -14.5 36.5t-45.5 37.5q-37 26 -56 47t-19 54q0 40 34.5 73t100.5 56q18 36 18 62q0 39 -25.5 65t-62.5 26q-61 0 -101 -50.5t-61 -163.5l-68 -349q-5 -24 -21 -37t-43 -13
q-24 0 -36.5 11.5t-12.5 29.5q0 7 1 10l65 349q19 105 51.5 172t87 101.5t138.5 34.5q55 0 103 -25t76 -66t28 -87q0 -33 -13 -69t-35 -64q-46 -7 -79 -25t-33 -40q0 -11 12 -22t37 -29q44 -31 69.5 -59.5t25.5 -70.5q0 -49 -30.5 -86.5t-83.5 -58t-118 -20.5q-79 0 -118 26
z" />
    <glyph glyph-name="agrave" unicode="&#xe0;" horiz-adv-x="617" 
d="M532.5 86.5q6.5 -5.5 6.5 -23.5q0 -26 -14.5 -44t-47.5 -18t-51.5 11.5t-30.5 37.5q-23 -30 -61 -45t-86 -15q-63 0 -110.5 26.5t-73 74t-25.5 109.5q0 81 35.5 148t97.5 106.5t138 39.5q48 0 82.5 -16.5t51.5 -42.5l5 17q12 37 53 37q26 0 42.5 -10t16.5 -26
q0 -11 -15 -50l-13 -38q-17 -53 -31.5 -125t-14.5 -108q0 -19 5 -26.5t18 -9.5q16 -4 22.5 -9.5zM333.5 109q31.5 24 40.5 69q10 48 17.5 90t7.5 57q0 35 -24 54.5t-56 19.5q-44 0 -79.5 -30.5t-55.5 -78.5t-20 -97t23 -78.5t71 -29.5q44 0 75.5 24zM366 557q-9 5 -18 17
l-64 86q-13 18 -13 37q0 21 16 36.5t37 15.5q24 0 44 -29l58 -85q11 -18 11 -33q0 -20 -15 -35t-35 -15q-12 0 -21 5z" />
    <glyph glyph-name="aacute" unicode="&#xe1;" horiz-adv-x="617" 
d="M532.5 86.5q6.5 -5.5 6.5 -23.5q0 -26 -14.5 -44t-47.5 -18t-51.5 11.5t-30.5 37.5q-23 -30 -61 -45t-86 -15q-63 0 -110.5 26.5t-73 74t-25.5 109.5q0 81 35.5 148t97.5 106.5t138 39.5q48 0 82.5 -16.5t51.5 -42.5l5 17q12 37 53 37q26 0 42.5 -10t16.5 -26
q0 -11 -15 -50l-13 -38q-17 -53 -31.5 -125t-14.5 -108q0 -19 5 -26.5t18 -9.5q16 -4 22.5 -9.5zM333.5 109q31.5 24 40.5 69q10 48 17.5 90t7.5 57q0 35 -24 54.5t-56 19.5q-44 0 -79.5 -30.5t-55.5 -78.5t-20 -97t23 -78.5t71 -29.5q44 0 75.5 24zM281 570.5
q-11 12.5 -11 28.5q0 23 27 44l99 79q22 17 33.5 24t23.5 7q17 0 28 -13t11 -30q0 -28 -31 -51l-107 -80q-16 -12 -25.5 -16.5t-20.5 -4.5q-16 0 -27 12.5z" />
    <glyph glyph-name="acircumflex" unicode="&#xe2;" horiz-adv-x="617" 
d="M532.5 86.5q6.5 -5.5 6.5 -23.5q0 -26 -14.5 -44t-47.5 -18t-51.5 11.5t-30.5 37.5q-23 -30 -61 -45t-86 -15q-63 0 -110.5 26.5t-73 74t-25.5 109.5q0 81 35.5 148t97.5 106.5t138 39.5q48 0 82.5 -16.5t51.5 -42.5l5 17q12 37 53 37q26 0 42.5 -10t16.5 -26
q0 -11 -15 -50l-13 -38q-17 -53 -31.5 -125t-14.5 -108q0 -19 5 -26.5t18 -9.5q16 -4 22.5 -9.5zM333.5 109q31.5 24 40.5 69q10 48 17.5 90t7.5 57q0 35 -24 54.5t-56 19.5q-44 0 -79.5 -30.5t-55.5 -78.5t-20 -97t23 -78.5t71 -29.5q44 0 75.5 24zM433 573l-28 45
q-12 20 -21.5 34.5t-13.5 14.5t-15.5 -9.5t-23 -20.5t-20.5 -19l-36 -34q-16 -13 -26.5 -19t-20.5 -6q-16 0 -27.5 11t-11.5 27q0 9 5 20t15 20q18 16 31 29q51 46 84.5 71.5t57.5 25.5q28 0 45.5 -17t44.5 -58q21 -34 40 -58q8 -12 8 -23q0 -21 -15.5 -37t-36.5 -16
q-25 0 -35 19z" />
    <glyph glyph-name="atilde" unicode="&#xe3;" horiz-adv-x="617" 
d="M532.5 86.5q6.5 -5.5 6.5 -23.5q0 -26 -14.5 -44t-47.5 -18t-51.5 11.5t-30.5 37.5q-23 -30 -61 -45t-86 -15q-63 0 -110.5 26.5t-73 74t-25.5 109.5q0 81 35.5 148t97.5 106.5t138 39.5q48 0 82.5 -16.5t51.5 -42.5l5 17q12 37 53 37q26 0 42.5 -10t16.5 -26
q0 -11 -15 -50l-13 -38q-17 -53 -31.5 -125t-14.5 -108q0 -19 5 -26.5t18 -9.5q16 -4 22.5 -9.5zM333.5 109q31.5 24 40.5 69q10 48 17.5 90t7.5 57q0 35 -24 54.5t-56 19.5q-44 0 -79.5 -30.5t-55.5 -78.5t-20 -97t23 -78.5t71 -29.5q44 0 75.5 24zM190 580q-10 11 -10 26
q0 21 18 39q32 32 57 45.5t54 13.5q23 0 47 -6.5t44 -17.5q16 -10 26.5 -15t16.5 -5q9 0 20 11q12 11 21 16t19 5q16 0 27.5 -12t11.5 -29q0 -21 -20 -39q-50 -43 -96 -43q-19 0 -35 6t-28 13t-17 9q-33 19 -46 19q-6 0 -14.5 -6.5t-15 -12t-9.5 -8.5q-23 -20 -44 -20
q-17 0 -27 11z" />
    <glyph glyph-name="adieresis" unicode="&#xe4;" horiz-adv-x="617" 
d="M532.5 86.5q6.5 -5.5 6.5 -23.5q0 -26 -14.5 -44t-47.5 -18t-51.5 11.5t-30.5 37.5q-23 -30 -61 -45t-86 -15q-63 0 -110.5 26.5t-73 74t-25.5 109.5q0 81 35.5 148t97.5 106.5t138 39.5q48 0 82.5 -16.5t51.5 -42.5l5 17q12 37 53 37q26 0 42.5 -10t16.5 -26
q0 -11 -15 -50l-13 -38q-17 -53 -31.5 -125t-14.5 -108q0 -19 5 -26.5t18 -9.5q16 -4 22.5 -9.5zM333.5 109q31.5 24 40.5 69q10 48 17.5 90t7.5 57q0 35 -24 54.5t-56 19.5q-44 0 -79.5 -30.5t-55.5 -78.5t-20 -97t23 -78.5t71 -29.5q44 0 75.5 24zM176.5 582
q-16.5 17 -16.5 42q0 32 25 56t57 24q25 0 43 -17t18 -41q0 -31 -26.5 -56t-58.5 -25q-25 0 -41.5 17zM440.5 582q-16.5 17 -16.5 42q0 32 25 56t57 24q25 0 42.5 -16.5t17.5 -40.5q0 -31 -26 -56.5t-58 -25.5q-25 0 -41.5 17z" />
    <glyph glyph-name="aring" unicode="&#xe5;" horiz-adv-x="617" 
d="M532.5 86.5q6.5 -5.5 6.5 -23.5q0 -26 -14.5 -44t-47.5 -18t-51.5 11.5t-30.5 37.5q-23 -30 -61 -45t-86 -15q-63 0 -110.5 26.5t-73 74t-25.5 109.5q0 81 35.5 148t97.5 106.5t138 39.5q48 0 82.5 -16.5t51.5 -42.5l5 17q12 37 53 37q26 0 42.5 -10t16.5 -26
q0 -11 -15 -50l-13 -38q-17 -53 -31.5 -125t-14.5 -108q0 -19 5 -26.5t18 -9.5q16 -4 22.5 -9.5zM333.5 109q31.5 24 40.5 69q10 48 17.5 90t7.5 57q0 35 -24 54.5t-56 19.5q-44 0 -79.5 -30.5t-55.5 -78.5t-20 -97t23 -78.5t71 -29.5q44 0 75.5 24zM273.5 568.5
q-31.5 31.5 -31.5 76.5q0 37 20 69t54 51t73 19q45 0 75 -31.5t30 -74.5q0 -38 -19 -70.5t-52 -51.5t-72 -19q-46 0 -77.5 31.5zM400 627.5q17 15.5 19 38.5q2 17 -9.5 30.5t-32.5 13.5q-24 0 -41.5 -17t-17.5 -39q0 -19 11.5 -30.5t30.5 -11.5q23 0 40 15.5z" />
    <glyph glyph-name="ae" unicode="&#xe6;" horiz-adv-x="951" 
d="M810 492q50 -25 79.5 -67.5t29.5 -90.5q0 -15 -3 -32q-8 -40 -27.5 -54t-55.5 -15l-325 -7l-1 -9q-3 -12 -3 -33q0 -55 30 -77t93 -22q58 0 94.5 19t67.5 56q19 23 43 23q15 0 30.5 -14.5t15.5 -30.5q0 -21 -17 -43q-82 -105 -234 -105q-73 0 -125 24t-68 71
q-27 -45 -81 -70t-125 -25q-104 0 -153 33t-49 104q0 89 60.5 135t185.5 49l132 3l3 14q1 5 1 14q0 34 -28.5 55t-76.5 21q-47 0 -83 -12.5t-70 -38.5q-27 -19 -45 -19q-15 0 -25.5 13.5t-10.5 27.5q0 19 28 42q47 42 98.5 62t114.5 20q65 0 112.5 -29.5t59.5 -77.5
q33 49 91.5 80t126.5 31q60 0 110 -25zM596 391.5q-45 -30.5 -66 -74.5l274 6l1 8q1 4 1 11q0 35 -33 57.5t-80 22.5q-52 0 -97 -30.5zM383 188l6 35l-117 -4q-63 -2 -94.5 -24.5t-31.5 -60.5q0 -27 22 -39t69 -12q129 0 146 105z" />
    <glyph glyph-name="ccedilla" unicode="&#xe7;" horiz-adv-x="595" 
d="M534.5 237q13.5 -8 13.5 -29q0 -56 -33 -101t-88.5 -72.5t-122.5 -33.5l-48 -57q28 -7 49.5 -24t21.5 -47q0 -46 -40 -73t-100 -27q-20 0 -41.5 4t-35.5 11q-25 10 -25 28q0 17 11.5 29t29.5 12q5 0 27 -6q3 -1 18 -5t28 -4q52 0 52 26q0 11 -13 17t-42 11q-33 6 -33 32
q0 6 6 20l47 58q-78 17 -126 72.5t-48 129.5q0 84 38.5 154t106.5 111t152 41q53 0 104.5 -21.5t84 -58t32.5 -78.5q0 -25 -18.5 -37.5t-46.5 -12.5q-19 0 -29.5 10t-16.5 29q-3 16 -16.5 33t-36.5 29t-51 12q-49 0 -91 -30.5t-66 -79.5t-24 -101t30.5 -82.5t89.5 -30.5
q45 0 80 17t54.5 43.5t19.5 52.5q0 14 17 25.5t41 11.5q25 0 38.5 -8z" />
    <glyph glyph-name="egrave" unicode="&#xe8;" horiz-adv-x="604" 
d="M156.5 21.5q-54.5 29.5 -83.5 80.5t-29 115q0 80 39 148.5t106.5 108.5t150.5 40q61 0 113 -22t83.5 -66t31.5 -105q0 -99 -78 -99l-340 -4q-1 -6 -1 -16q0 -49 37.5 -80.5t98.5 -31.5q49 0 79.5 16t65.5 46q19 15 35 15q18 0 32.5 -12.5t14.5 -29.5q0 -18 -16 -38
q-33 -38 -81.5 -66.5t-129.5 -28.5q-74 0 -128.5 29.5zM446 302q15 0 19.5 5t4.5 19q0 46 -35.5 71t-89.5 25q-48 0 -88 -21t-64.5 -50.5t-28.5 -52.5zM384 557q-9 5 -18 17l-64 86q-13 18 -13 37q0 21 16 36.5t37 15.5q24 0 44 -29l58 -85q11 -18 11 -33q0 -20 -15 -35
t-35 -15q-12 0 -21 5z" />
    <glyph glyph-name="eacute" unicode="&#xe9;" horiz-adv-x="604" 
d="M156.5 21.5q-54.5 29.5 -83.5 80.5t-29 115q0 80 39 148.5t106.5 108.5t150.5 40q61 0 113 -22t83.5 -66t31.5 -105q0 -99 -78 -99l-340 -4q-1 -6 -1 -16q0 -49 37.5 -80.5t98.5 -31.5q49 0 79.5 16t65.5 46q19 15 35 15q18 0 32.5 -12.5t14.5 -29.5q0 -18 -16 -38
q-33 -38 -81.5 -66.5t-129.5 -28.5q-74 0 -128.5 29.5zM446 302q15 0 19.5 5t4.5 19q0 46 -35.5 71t-89.5 25q-48 0 -88 -21t-64.5 -50.5t-28.5 -52.5zM293.5 571q-9.5 10 -9.5 26q0 24 20 44l106 106q16 16 29 22.5t28 6.5q18 0 28.5 -11t10.5 -28q0 -27 -33 -59l-105 -94
q-15 -13 -25.5 -18t-23.5 -5q-16 0 -25.5 10z" />
    <glyph glyph-name="ecircumflex" unicode="&#xea;" horiz-adv-x="604" 
d="M156.5 21.5q-54.5 29.5 -83.5 80.5t-29 115q0 80 39 148.5t106.5 108.5t150.5 40q61 0 113 -22t83.5 -66t31.5 -105q0 -99 -78 -99l-340 -4q-1 -6 -1 -16q0 -49 37.5 -80.5t98.5 -31.5q49 0 79.5 16t65.5 46q19 15 35 15q18 0 32.5 -12.5t14.5 -29.5q0 -18 -16 -38
q-33 -38 -81.5 -66.5t-129.5 -28.5q-74 0 -128.5 29.5zM446 302q15 0 19.5 5t4.5 19q0 46 -35.5 71t-89.5 25q-48 0 -88 -21t-64.5 -50.5t-28.5 -52.5zM451 573l-28 45q-12 20 -21.5 34.5t-13.5 14.5t-15.5 -9.5t-23 -20.5t-20.5 -19l-36 -34q-16 -13 -26.5 -19t-20.5 -6
q-16 0 -27.5 11t-11.5 27q0 9 5 20t15 20q18 16 31 29q51 46 84.5 71.5t57.5 25.5q28 0 45.5 -17t44.5 -58q21 -34 40 -58q8 -12 8 -23q0 -21 -15.5 -37t-36.5 -16q-25 0 -35 19z" />
    <glyph glyph-name="edieresis" unicode="&#xeb;" horiz-adv-x="604" 
d="M156.5 21.5q-54.5 29.5 -83.5 80.5t-29 115q0 80 39 148.5t106.5 108.5t150.5 40q61 0 113 -22t83.5 -66t31.5 -105q0 -99 -78 -99l-340 -4q-1 -6 -1 -16q0 -49 37.5 -80.5t98.5 -31.5q49 0 79.5 16t65.5 46q19 15 35 15q18 0 32.5 -12.5t14.5 -29.5q0 -18 -16 -38
q-33 -38 -81.5 -66.5t-129.5 -28.5q-74 0 -128.5 29.5zM446 302q15 0 19.5 5t4.5 19q0 46 -35.5 71t-89.5 25q-48 0 -88 -21t-64.5 -50.5t-28.5 -52.5zM194.5 582q-16.5 17 -16.5 42q0 32 25 56t57 24q25 0 43 -17t18 -41q0 -31 -26.5 -56t-58.5 -25q-25 0 -41.5 17z
M458.5 582q-16.5 17 -16.5 42q0 32 25 56t57 24q25 0 42.5 -16.5t17.5 -40.5q0 -31 -26 -56.5t-58 -25.5q-25 0 -41.5 17z" />
    <glyph glyph-name="igrave" unicode="&#xec;" horiz-adv-x="338" 
d="M83.5 15q-14.5 12 -14.5 31q0 6 1 10l79 399q4 24 24 38t47 14q25 0 39.5 -12t14.5 -33l-1 -9l-83 -399q-5 -22 -23.5 -36.5t-44.5 -14.5q-24 0 -38.5 12zM241 557q-9 5 -18 17l-64 86q-13 18 -13 37q0 21 16 36.5t37 15.5q24 0 44 -29l58 -85q11 -18 11 -33
q0 -20 -15 -35t-35 -15q-12 0 -21 5z" />
    <glyph glyph-name="iacute" unicode="&#xed;" horiz-adv-x="338" 
d="M83.5 15q-14.5 12 -14.5 31q0 6 1 10l79 399q4 24 24 38t47 14q25 0 39.5 -12t14.5 -33l-1 -9l-83 -399q-5 -22 -23.5 -36.5t-44.5 -14.5q-24 0 -38.5 12zM156 570.5q-11 12.5 -11 28.5q0 23 27 44l99 79q22 17 33.5 24t23.5 7q17 0 28 -13t11 -30q0 -28 -31 -51
l-107 -80q-16 -12 -25.5 -16.5t-20.5 -4.5q-16 0 -27 12.5z" />
    <glyph glyph-name="icircumflex" unicode="&#xee;" horiz-adv-x="338" 
d="M83.5 15q-14.5 12 -14.5 31q0 6 1 10l79 399q4 24 24 38t47 14q25 0 39.5 -12t14.5 -33l-1 -9l-83 -399q-5 -22 -23.5 -36.5t-44.5 -14.5q-24 0 -38.5 12zM308 573l-28 45q-12 20 -21.5 34.5t-13.5 14.5t-15.5 -9.5t-23 -20.5t-20.5 -19l-36 -34q-16 -13 -26.5 -19
t-20.5 -6q-16 0 -27.5 11t-11.5 27q0 9 5 20t15 20q18 16 31 29q51 46 84.5 71.5t57.5 25.5q28 0 45.5 -17t44.5 -58q21 -34 40 -58q8 -12 8 -23q0 -21 -15.5 -37t-36.5 -16q-25 0 -35 19z" />
    <glyph glyph-name="idieresis" unicode="&#xef;" horiz-adv-x="338" 
d="M83.5 15q-14.5 12 -14.5 31q0 6 1 10l79 399q4 24 24 38t47 14q25 0 39.5 -12t14.5 -33l-1 -9l-83 -399q-5 -22 -23.5 -36.5t-44.5 -14.5q-24 0 -38.5 12zM51.5 582q-16.5 17 -16.5 42q0 32 25 56t57 24q25 0 43 -17t18 -41q0 -31 -26.5 -56t-58.5 -25q-25 0 -41.5 17z
M315.5 582q-16.5 17 -16.5 42q0 32 25 56t57 24q25 0 42.5 -16.5t17.5 -40.5q0 -31 -26 -56.5t-58 -25.5q-25 0 -41.5 17z" />
    <glyph glyph-name="eth" unicode="&#xf0;" horiz-adv-x="609" 
d="M555.5 456q15.5 -62 15.5 -121q0 -97 -37.5 -173t-106 -118.5t-158.5 -42.5q-66 0 -117.5 27.5t-80 74.5t-28.5 104q0 80 39 146.5t106 104.5t147 38q43 0 79 -12q-10 20 -21 35q-17 24 -34 43l-64 -33q-25 -11 -42 -11t-29 13t-11 31q0 23 31 38l39 20l-27 15
q-14 7 -20.5 14.5t-6.5 18.5q0 24 18.5 43.5t42.5 19.5q17 0 50 -15q6 -4 24.5 -13.5t35.5 -21.5l81 42q10 5 19 5q17 0 30.5 -13t13.5 -33q0 -16 -8 -24.5t-28 -19.5l-37 -19q22 -23 39 -52q30 -49 45.5 -111zM398 162.5q45 64.5 49 161.5q-16 34 -44 55.5t-68 21.5
q-47 0 -86 -27t-61 -70.5t-22 -90.5q0 -52 29 -83.5t80 -31.5q78 0 123 64.5z" />
    <glyph glyph-name="ntilde" unicode="&#xf1;" horiz-adv-x="567" 
d="M482 466.5q42 -43.5 42 -122.5q0 -27 -10.5 -92.5t-24.5 -145.5l-11 -61q-4 -21 -22.5 -33t-45.5 -12q-28 0 -43 12.5t-12 32.5l22 129q10 59 17.5 105.5t7.5 63.5q0 37 -13 54t-42 17q-38 0 -67.5 -31.5t-54.5 -103.5q-16 -48 -25 -101l-4 -25q-10 -63 -19 -109
q-4 -21 -22 -33t-45 -12q-29 0 -43.5 12.5t-11.5 32.5l5 29q34 200 48 306q2 14 -0.5 25t-6.5 20.5t-6 13.5q-5 8 -5 18q-1 20 22.5 35.5t44.5 15.5t37 -25q8 -12 12.5 -29t3.5 -27l-2 -12q52 96 163 96q69 0 111 -43.5zM192 580q-10 11 -10 26q0 21 18 39q32 32 57 45.5
t54 13.5q23 0 47 -6.5t44 -17.5q16 -10 26.5 -15t16.5 -5q9 0 20 11q12 11 21 16t19 5q16 0 27.5 -12t11.5 -29q0 -21 -20 -39q-50 -43 -96 -43q-19 0 -35 6t-28 13t-17 9q-33 19 -46 19q-6 0 -14.5 -6.5t-15 -12t-9.5 -8.5q-23 -20 -44 -20q-17 0 -27 11z" />
    <glyph glyph-name="ograve" unicode="&#xf2;" horiz-adv-x="602" 
d="M96.5 51.5q-67.5 53.5 -67.5 162.5q0 80 38.5 150t108 112t157.5 42q111 0 177.5 -61.5t66.5 -173.5q0 -80 -37 -145t-105 -102.5t-158 -37.5q-113 0 -180.5 53.5zM407 147q47 54 47 136q0 64 -31.5 101.5t-89.5 37.5q-53 0 -94.5 -30t-64 -78t-22.5 -100q0 -63 34.5 -92
t90.5 -29q83 0 130 54zM375 557q-9 5 -18 17l-64 86q-13 18 -13 37q0 21 16 36.5t37 15.5q24 0 44 -29l58 -85q11 -18 11 -33q0 -20 -15 -35t-35 -15q-12 0 -21 5z" />
    <glyph glyph-name="oacute" unicode="&#xf3;" horiz-adv-x="602" 
d="M96.5 51.5q-67.5 53.5 -67.5 162.5q0 80 38.5 150t108 112t157.5 42q111 0 177.5 -61.5t66.5 -173.5q0 -80 -37 -145t-105 -102.5t-158 -37.5q-113 0 -180.5 53.5zM407 147q47 54 47 136q0 64 -31.5 101.5t-89.5 37.5q-53 0 -94.5 -30t-64 -78t-22.5 -100q0 -63 34.5 -92
t90.5 -29q83 0 130 54zM290 570.5q-11 12.5 -11 28.5q0 23 27 44l99 79q22 17 33.5 24t23.5 7q17 0 28 -13t11 -30q0 -28 -31 -51l-107 -80q-16 -12 -25.5 -16.5t-20.5 -4.5q-16 0 -27 12.5z" />
    <glyph glyph-name="ocircumflex" unicode="&#xf4;" horiz-adv-x="602" 
d="M96.5 51.5q-67.5 53.5 -67.5 162.5q0 80 38.5 150t108 112t157.5 42q111 0 177.5 -61.5t66.5 -173.5q0 -80 -37 -145t-105 -102.5t-158 -37.5q-113 0 -180.5 53.5zM407 147q47 54 47 136q0 64 -31.5 101.5t-89.5 37.5q-53 0 -94.5 -30t-64 -78t-22.5 -100q0 -63 34.5 -92
t90.5 -29q83 0 130 54zM442 573l-28 45q-12 20 -21.5 34.5t-13.5 14.5t-15.5 -9.5t-23 -20.5t-20.5 -19l-36 -34q-16 -13 -26.5 -19t-20.5 -6q-16 0 -27.5 11t-11.5 27q0 9 5 20t15 20q18 16 31 29q51 46 84.5 71.5t57.5 25.5q28 0 45.5 -17t44.5 -58q21 -34 40 -58
q8 -12 8 -23q0 -21 -15.5 -37t-36.5 -16q-25 0 -35 19z" />
    <glyph glyph-name="otilde" unicode="&#xf5;" horiz-adv-x="602" 
d="M96.5 51.5q-67.5 53.5 -67.5 162.5q0 80 38.5 150t108 112t157.5 42q111 0 177.5 -61.5t66.5 -173.5q0 -80 -37 -145t-105 -102.5t-158 -37.5q-113 0 -180.5 53.5zM407 147q47 54 47 136q0 64 -31.5 101.5t-89.5 37.5q-53 0 -94.5 -30t-64 -78t-22.5 -100q0 -63 34.5 -92
t90.5 -29q83 0 130 54zM199 580q-10 11 -10 26q0 21 18 39q32 32 57 45.5t54 13.5q23 0 47 -6.5t44 -17.5q16 -10 26.5 -15t16.5 -5q9 0 20 11q12 11 21 16t19 5q16 0 27.5 -12t11.5 -29q0 -21 -20 -39q-50 -43 -96 -43q-19 0 -35 6t-28 13t-17 9q-33 19 -46 19
q-6 0 -14.5 -6.5t-15 -12t-9.5 -8.5q-23 -20 -44 -20q-17 0 -27 11z" />
    <glyph glyph-name="odieresis" unicode="&#xf6;" horiz-adv-x="602" 
d="M96.5 51.5q-67.5 53.5 -67.5 162.5q0 80 38.5 150t108 112t157.5 42q111 0 177.5 -61.5t66.5 -173.5q0 -80 -37 -145t-105 -102.5t-158 -37.5q-113 0 -180.5 53.5zM407 147q47 54 47 136q0 64 -31.5 101.5t-89.5 37.5q-53 0 -94.5 -30t-64 -78t-22.5 -100q0 -63 34.5 -92
t90.5 -29q83 0 130 54zM185.5 582q-16.5 17 -16.5 42q0 32 25 56t57 24q25 0 43 -17t18 -41q0 -31 -26.5 -56t-58.5 -25q-25 0 -41.5 17zM449.5 582q-16.5 17 -16.5 42q0 32 25 56t57 24q25 0 42.5 -16.5t17.5 -40.5q0 -31 -26 -56.5t-58 -25.5q-25 0 -41.5 17z" />
    <glyph glyph-name="divide" unicode="&#xf7;" horiz-adv-x="553" 
d="M263 417q-15 14 -15 36q0 29 23.5 50.5t52.5 21.5q23 0 39 -14.5t16 -36.5q0 -29 -23 -50t-53 -21q-25 0 -40 14zM73.5 269.5q-10.5 9.5 -10.5 23.5q0 16 16 37q20 23 55 37t75 14q27 0 57 -5.5t50 -12.5q14 -5 38.5 -8.5t41.5 -3.5q21 0 45 12q3 1 13 5t21 4
q17 0 27.5 -10.5t10.5 -28.5q0 -27 -38 -49q-17 -9 -45.5 -15.5t-51.5 -6.5q-26 0 -57 6.5t-53 15.5q-29 11 -69 11q-26 0 -56 -19q-26 -16 -45 -16q-14 0 -24.5 9.5zM214.5 127.5q-15.5 14.5 -15.5 37.5q0 29 26 50.5t54 21.5q23 0 38.5 -15t15.5 -37q0 -29 -24 -50.5
t-54 -21.5q-25 0 -40.5 14.5z" />
    <glyph glyph-name="oslash" unicode="&#xf8;" horiz-adv-x="603" 
d="M588 540q10 -10 10 -24q0 -20 -17 -35l-49 -47q46 -60 46 -151q0 -80 -37 -145t-105.5 -102.5t-158.5 -37.5q-95 0 -157 37l-56 -54q-11 -10 -19.5 -14t-19.5 -4q-16 0 -27 11.5t-9 27.5q3 16 17 30l58 56q-35 51 -35 126q0 80 39 150t108.5 112t157.5 42q82 0 140 -34
l49 48q8 9 19 13.5t21 4.5q15 0 25 -10zM157 178l238 230q-26 14 -61 14q-54 0 -95 -30t-63.5 -78t-22.5 -100q0 -21 4 -36zM444 348l-244 -236q31 -19 77 -19q84 0 130.5 54t46.5 136q0 38 -10 65z" />
    <glyph glyph-name="ugrave" unicode="&#xf9;" horiz-adv-x="564" 
d="M457 106q-1 -15 3.5 -27t5.5 -14q7 -12 7 -21q0 -14 -19 -30t-37 -16q-23 0 -44 21.5t-20 51.5v1q-54 -73 -154 -73q-72 0 -109 42.5t-37 117.5q0 24 10.5 90t18.5 109t11 61l8 42q4 19 23 31.5t44 12.5q26 0 42 -12.5t12 -31.5l-15 -86q-31 -165 -31 -202q0 -79 56 -79
q49 0 80 45t48 142q14 73 32 179q4 24 23 37t46 13t42 -14.5t12 -35.5l-54 -315zM341 557q-9 5 -18 17l-64 86q-13 18 -13 37q0 21 16 36.5t37 15.5q24 0 44 -29l58 -85q11 -18 11 -33q0 -20 -15 -35t-35 -15q-12 0 -21 5z" />
    <glyph glyph-name="uacute" unicode="&#xfa;" horiz-adv-x="564" 
d="M457 106q-1 -15 3.5 -27t5.5 -14q7 -12 7 -21q0 -14 -19 -30t-37 -16q-23 0 -44 21.5t-20 51.5v1q-54 -73 -154 -73q-72 0 -109 42.5t-37 117.5q0 24 10.5 90t18.5 109t11 61l8 42q4 19 23 31.5t44 12.5q26 0 42 -12.5t12 -31.5l-15 -86q-31 -165 -31 -202q0 -79 56 -79
q49 0 80 45t48 142q14 73 32 179q4 24 23 37t46 13t42 -14.5t12 -35.5l-54 -315zM256 570.5q-11 12.5 -11 28.5q0 23 27 44l99 79q22 17 33.5 24t23.5 7q17 0 28 -13t11 -30q0 -28 -31 -51l-107 -80q-16 -12 -25.5 -16.5t-20.5 -4.5q-16 0 -27 12.5z" />
    <glyph glyph-name="ucircumflex" unicode="&#xfb;" horiz-adv-x="564" 
d="M457 106q-1 -15 3.5 -27t5.5 -14q7 -12 7 -21q0 -14 -19 -30t-37 -16q-23 0 -44 21.5t-20 51.5v1q-54 -73 -154 -73q-72 0 -109 42.5t-37 117.5q0 24 10.5 90t18.5 109t11 61l8 42q4 19 23 31.5t44 12.5q26 0 42 -12.5t12 -31.5l-15 -86q-31 -165 -31 -202q0 -79 56 -79
q49 0 80 45t48 142q14 73 32 179q4 24 23 37t46 13t42 -14.5t12 -35.5l-54 -315zM408 573l-28 45q-12 20 -21.5 34.5t-13.5 14.5t-15.5 -9.5t-23 -20.5t-20.5 -19l-36 -34q-16 -13 -26.5 -19t-20.5 -6q-16 0 -27.5 11t-11.5 27q0 9 5 20t15 20q18 16 31 29q51 46 84.5 71.5
t57.5 25.5q28 0 45.5 -17t44.5 -58q21 -34 40 -58q8 -12 8 -23q0 -21 -15.5 -37t-36.5 -16q-25 0 -35 19z" />
    <glyph glyph-name="udieresis" unicode="&#xfc;" horiz-adv-x="564" 
d="M457 106q-1 -15 3.5 -27t5.5 -14q7 -12 7 -21q0 -14 -19 -30t-37 -16q-23 0 -44 21.5t-20 51.5v1q-54 -73 -154 -73q-72 0 -109 42.5t-37 117.5q0 24 10.5 90t18.5 109t11 61l8 42q4 19 23 31.5t44 12.5q26 0 42 -12.5t12 -31.5l-15 -86q-31 -165 -31 -202q0 -79 56 -79
q49 0 80 45t48 142q14 73 32 179q4 24 23 37t46 13t42 -14.5t12 -35.5l-54 -315zM151.5 582q-16.5 17 -16.5 42q0 32 25 56t57 24q25 0 43 -17t18 -41q0 -31 -26.5 -56t-58.5 -25q-25 0 -41.5 17zM415.5 582q-16.5 17 -16.5 42q0 32 25 56t57 24q25 0 42.5 -16.5t17.5 -40.5
q0 -31 -26 -56.5t-58 -25.5q-25 0 -41.5 17z" />
    <glyph glyph-name="yacute" unicode="&#xfd;" horiz-adv-x="535" 
d="M99 -248.5q-15 13.5 -14 33.5q0 15 8 29q25 41 63.5 113t50.5 94l21 40q-41 38 -75 104.5t-54 142t-20 138.5q0 10 1 17q2 21 20.5 34t45.5 13q24 0 32 -9.5t9 -28.5q6 -118 32 -198t58 -117q37 78 113 252l29 67q8 20 20.5 28t34.5 8q29 0 44.5 -12.5t13.5 -33.5
q0 -6 -3 -11q-87 -203 -172 -375q-119 -240 -159 -305q-11 -18 -23.5 -27.5t-34.5 -9.5q-26 0 -41 13.5zM256 570.5q-11 12.5 -11 28.5q0 23 27 44l99 79q22 17 33.5 24t23.5 7q17 0 28 -13t11 -30q0 -28 -31 -51l-107 -80q-16 -12 -25.5 -16.5t-20.5 -4.5q-16 0 -27 12.5z
" />
    <glyph glyph-name="thorn" unicode="&#xfe;" horiz-adv-x="599" 
d="M457 489.5q50 -26.5 79 -75.5t29 -114q0 -92 -36.5 -159.5t-105.5 -104t-163 -36.5q-39 0 -73.5 12t-60.5 31q-21 -111 -43 -196q-5 -21 -25 -33.5t-46 -12.5q-22 0 -36 11t-14 29q0 19 40 198q21 99 46 242q23 131 36 208q10 57 18 102t14 75q4 25 22.5 39t44.5 14
q27 0 43 -14t12 -35l-36 -197q30 20 66.5 31.5t75.5 11.5q63 0 113 -26.5zM358 122.5q41 27.5 62.5 74t21.5 103.5q0 58 -32 89.5t-82 31.5q-31 0 -62.5 -14.5t-55 -35t-31.5 -37.5q0 -2 -9 -53l-7 -39l-7 -34l-13 -71q6 -14 42.5 -28t74.5 -14q57 0 98 27.5z" />
    <glyph glyph-name="ydieresis" unicode="&#xff;" horiz-adv-x="535" 
d="M99 -248.5q-15 13.5 -14 33.5q0 15 8 29q25 41 63.5 113t50.5 94l21 40q-41 38 -75 104.5t-54 142t-20 138.5q0 10 1 17q2 21 20.5 34t45.5 13q24 0 32 -9.5t9 -28.5q6 -118 32 -198t58 -117q37 78 113 252l29 67q8 20 20.5 28t34.5 8q29 0 44.5 -12.5t13.5 -33.5
q0 -6 -3 -11q-87 -203 -172 -375q-119 -240 -159 -305q-11 -18 -23.5 -27.5t-34.5 -9.5q-26 0 -41 13.5zM151.5 582q-16.5 17 -16.5 42q0 32 25 56t57 24q25 0 43 -17t18 -41q0 -31 -26.5 -56t-58.5 -25q-25 0 -41.5 17zM415.5 582q-16.5 17 -16.5 42q0 32 25 56t57 24
q25 0 42.5 -16.5t17.5 -40.5q0 -31 -26 -56.5t-58 -25.5q-25 0 -41.5 17z" />
    <glyph glyph-name="Amacron" unicode="&#x100;" horiz-adv-x="695" 
d="M618.5 179.5q-11.5 -19.5 -31.5 -19.5h-6q10 -79 13 -103q1 -4 1 -9q0 -26 -20 -42.5t-49 -16.5q-22 0 -39 9.5t-19 26.5l-14 136l-228 3l-14 -29q-16 -35 -51 -107q-19 -38 -64 -38q-29 0 -50 14.5t-17 36.5q2 12 5 17q184 360 271 533q35 69 59 95t64 26t63 -25.5
t32 -86.5q10 -69 20 -151t15 -118l7 -58h13q51 0 51 -44q0 -30 -11.5 -49.5zM443 274l-19 187q-4 43 -7.5 59.5t-8.5 16.5q-4 0 -9.5 -9.5t-15.5 -32.5l-14 -29l-90 -190zM360.5 795q-11.5 -1 -21.5 -1q-24 0 -52 10q-25 11 -25 36q0 24 17 40t39 15l28 -4t46 -3q20 0 66 4
q50 4 79 4q22 0 64 -4q15 -2 26 -13t11 -27q0 -15 -10 -28.5t-24 -20t-25 -3.5q-21 4 -52 4q-29 0 -73 -4q-42 -4 -67 -4q-15 0 -26.5 -1z" />
    <glyph glyph-name="amacron" unicode="&#x101;" horiz-adv-x="617" 
d="M532.5 86.5q6.5 -5.5 6.5 -23.5q0 -26 -14.5 -44t-47.5 -18t-51.5 11.5t-30.5 37.5q-23 -30 -61 -45t-86 -15q-63 0 -110.5 26.5t-73 74t-25.5 109.5q0 81 35.5 148t97.5 106.5t138 39.5q48 0 82.5 -16.5t51.5 -42.5l5 17q12 37 53 37q26 0 42.5 -10t16.5 -26
q0 -11 -15 -50l-13 -38q-17 -53 -31.5 -125t-14.5 -108q0 -19 5 -26.5t18 -9.5q16 -4 22.5 -9.5zM333.5 109q31.5 24 40.5 69q10 48 17.5 90t7.5 57q0 35 -24 54.5t-56 19.5q-44 0 -79.5 -30.5t-55.5 -78.5t-20 -97t23 -78.5t71 -29.5q44 0 75.5 24zM159 589.5
q-8 9.5 -8 25.5q0 25 14.5 40t37.5 19q39 7 75.5 11t92.5 4l148 1q19 0 30.5 -12t9.5 -31q-1 -23 -16 -37.5t-40 -14.5l-38 1q-78 3 -95 3q-74 0 -164 -15l-23 -3q-16 -1 -24 8.5z" />
    <glyph glyph-name="Abreve" unicode="&#x102;" horiz-adv-x="695" 
d="M618.5 179.5q-11.5 -19.5 -31.5 -19.5h-6q10 -79 13 -103q1 -4 1 -9q0 -26 -20 -42.5t-49 -16.5q-22 0 -39 9.5t-19 26.5l-14 136l-228 3l-14 -29q-16 -35 -51 -107q-19 -38 -64 -38q-29 0 -50 14.5t-17 36.5q2 12 5 17q184 360 271 533q35 69 59 95t64 26t63 -25.5
t32 -86.5q10 -69 20 -151t15 -118l7 -58h13q51 0 51 -44q0 -30 -11.5 -49.5zM443 274l-19 187q-4 43 -7.5 59.5t-8.5 16.5q-4 0 -9.5 -9.5t-15.5 -32.5l-14 -29l-90 -190zM366 771q-36 16 -56.5 44.5t-20.5 63.5q0 18 7 35q16 32 47 32q16 0 27 -7.5t11 -20.5v-13
q1 -35 20 -53t52 -18q31 0 58.5 21.5t35.5 58.5q4 17 18.5 26t31.5 9t28 -11t10 -27q-2 -40 -29.5 -76t-71 -58t-88.5 -22q-44 0 -80 16z" />
    <glyph glyph-name="abreve" unicode="&#x103;" horiz-adv-x="617" 
d="M532.5 86.5q6.5 -5.5 6.5 -23.5q0 -26 -14.5 -44t-47.5 -18t-51.5 11.5t-30.5 37.5q-23 -30 -61 -45t-86 -15q-63 0 -110.5 26.5t-73 74t-25.5 109.5q0 81 35.5 148t97.5 106.5t138 39.5q48 0 82.5 -16.5t51.5 -42.5l5 17q12 37 53 37q26 0 42.5 -10t16.5 -26
q0 -11 -15 -50l-13 -38q-17 -53 -31.5 -125t-14.5 -108q0 -19 5 -26.5t18 -9.5q16 -4 22.5 -9.5zM333.5 109q31.5 24 40.5 69q10 48 17.5 90t7.5 57q0 35 -24 54.5t-56 19.5q-44 0 -79.5 -30.5t-55.5 -78.5t-20 -97t23 -78.5t71 -29.5q44 0 75.5 24zM276 571
q-36 16 -56.5 44.5t-20.5 63.5q0 18 7 35q16 32 47 32q16 0 27 -7.5t11 -20.5v-13q1 -35 20 -53t52 -18q31 0 58.5 21.5t35.5 58.5q4 17 18.5 26t31.5 9t28 -11t10 -27q-2 -40 -29.5 -76t-71 -58t-88.5 -22q-44 0 -80 16z" />
    <glyph glyph-name="Aogonek" unicode="&#x104;" horiz-adv-x="695" 
d="M618.5 179.5q-11.5 -19.5 -31.5 -19.5h-6q10 -79 13 -103q1 -4 1 -9q0 -19 -11.5 -33.5t-30.5 -21.5q-2 -1 -6 -5q-31 -22 -47.5 -39t-16.5 -35q0 -20 31 -20q5 0 21 4q12 5 20 5q9 0 14.5 -6.5t5.5 -18.5q0 -29 -20 -45t-56 -16q-45 0 -73.5 24.5t-28.5 61.5q0 33 18 61
t54 56l-1 5l-14 136l-228 3l-14 -29q-16 -35 -51 -107q-19 -38 -64 -38q-29 0 -50 14.5t-17 36.5q2 12 5 17q184 360 271 533q35 69 59 95t64 26t63 -25.5t32 -86.5q10 -69 20 -151t15 -118l7 -58h13q51 0 51 -44q0 -30 -11.5 -49.5zM443 274l-19 187q-4 43 -7.5 59.5
t-8.5 16.5q-4 0 -9.5 -9.5t-15.5 -32.5l-14 -29l-90 -190z" />
    <glyph glyph-name="aogonek" unicode="&#x105;" horiz-adv-x="617" 
d="M459.5 -36q-16.5 -17 -16.5 -35q0 -20 31 -20q5 0 21 4q14 4 20 4q9 0 14.5 -6t5.5 -18q0 -30 -20 -46t-56 -16q-45 0 -73.5 24.5t-28.5 62.5q0 29 14.5 54t42.5 50q-10 9 -19 28q-23 -30 -61 -45t-86 -15q-63 0 -110.5 26.5t-73 74t-25.5 109.5q0 81 35.5 148
t97.5 106.5t138 39.5q48 0 82.5 -16.5t51.5 -42.5l5 17q12 37 53 37q26 0 42.5 -10t16.5 -26q0 -11 -15 -50l-13 -38q-17 -53 -31.5 -125t-14.5 -108q0 -19 5 -26.5t18 -9.5q16 -4 22.5 -9.5t6.5 -23.5q0 -34 -22 -51l-10 -9q-31 -22 -47.5 -39zM333.5 109q31.5 24 40.5 69
q10 48 17.5 90t7.5 57q0 35 -24 54.5t-56 19.5q-44 0 -79.5 -30.5t-55.5 -78.5t-20 -97t23 -78.5t71 -29.5q44 0 75.5 24z" />
    <glyph glyph-name="Cacute" unicode="&#x106;" horiz-adv-x="733" 
d="M729.5 697.5q13.5 -11.5 13.5 -31.5q0 -6 -1 -10l-22 -114q-11 -61 -70 -61q-34 0 -45 20q-19 34 -33 53.5t-40 34t-64 14.5q-71 0 -136.5 -47t-106 -120.5t-40.5 -147.5q0 -57 25 -98t67.5 -62t95.5 -21q69 0 127.5 36t77.5 108q6 25 21 41.5t49 16.5q62 0 56 -61
q-8 -57 -49 -115.5t-113.5 -97.5t-168.5 -39q-88 0 -159 36t-112 102.5t-41 155.5q0 107 56 205t150 158.5t201 60.5q108 0 157 -63l3 18q4 18 20 29t42 11t39.5 -11.5zM414 770.5q-11 12.5 -11 28.5q0 23 27 44l99 79q22 17 33.5 24t23.5 7q17 0 28 -13t11 -30
q0 -28 -31 -51l-107 -80q-16 -12 -25.5 -16.5t-20.5 -4.5q-16 0 -27 12.5z" />
    <glyph glyph-name="cacute" unicode="&#x107;" horiz-adv-x="595" 
d="M154 27.5q-53 27.5 -82.5 75t-29.5 105.5q0 84 38.5 154t106.5 111t152 41q53 0 104.5 -21.5t84 -58t32.5 -78.5q0 -25 -18.5 -37.5t-46.5 -12.5q-19 0 -29.5 10t-16.5 29q-3 16 -16.5 33t-36.5 29t-51 12q-49 0 -91 -30.5t-66 -79.5t-24 -101t30.5 -82.5t89.5 -30.5
q45 0 80 17t54.5 43.5t19.5 52.5q0 14 17 25.5t41 11.5q25 0 38.5 -8t13.5 -29q0 -60 -37.5 -107.5t-100.5 -74t-136 -26.5q-67 0 -120 27.5zM292 570.5q-11 12.5 -11 28.5q0 23 27 44l99 79q22 17 33.5 24t23.5 7q17 0 28 -13t11 -30q0 -28 -31 -51l-107 -80
q-16 -12 -25.5 -16.5t-20.5 -4.5q-16 0 -27 12.5z" />
    <glyph glyph-name="Ccircumflex" unicode="&#x108;" horiz-adv-x="733" 
d="M729.5 697.5q13.5 -11.5 13.5 -31.5q0 -6 -1 -10l-22 -114q-11 -61 -70 -61q-34 0 -45 20q-19 34 -33 53.5t-40 34t-64 14.5q-71 0 -136.5 -47t-106 -120.5t-40.5 -147.5q0 -57 25 -98t67.5 -62t95.5 -21q69 0 127.5 36t77.5 108q6 25 21 41.5t49 16.5q62 0 56 -61
q-8 -57 -49 -115.5t-113.5 -97.5t-168.5 -39q-88 0 -159 36t-112 102.5t-41 155.5q0 107 56 205t150 158.5t201 60.5q108 0 157 -63l3 18q4 18 20 29t42 11t39.5 -11.5zM566 773l-28 45q-12 20 -21.5 34.5t-13.5 14.5t-15.5 -9.5t-23 -20.5t-20.5 -19l-36 -34
q-16 -13 -26.5 -19t-20.5 -6q-16 0 -27.5 11t-11.5 27q0 9 5 20t15 20q18 16 31 29q51 46 84.5 71.5t57.5 25.5q28 0 45.5 -17t44.5 -58q21 -34 40 -58q8 -12 8 -23q0 -21 -15.5 -37t-36.5 -16q-25 0 -35 19z" />
    <glyph glyph-name="ccircumflex" unicode="&#x109;" horiz-adv-x="595" 
d="M154 27.5q-53 27.5 -82.5 75t-29.5 105.5q0 84 38.5 154t106.5 111t152 41q53 0 104.5 -21.5t84 -58t32.5 -78.5q0 -25 -18.5 -37.5t-46.5 -12.5q-19 0 -29.5 10t-16.5 29q-3 16 -16.5 33t-36.5 29t-51 12q-49 0 -91 -30.5t-66 -79.5t-24 -101t30.5 -82.5t89.5 -30.5
q45 0 80 17t54.5 43.5t19.5 52.5q0 14 17 25.5t41 11.5q25 0 38.5 -8t13.5 -29q0 -60 -37.5 -107.5t-100.5 -74t-136 -26.5q-67 0 -120 27.5zM444 573l-28 45q-12 20 -21.5 34.5t-13.5 14.5t-15.5 -9.5t-23 -20.5t-20.5 -19l-36 -34q-16 -13 -26.5 -19t-20.5 -6
q-16 0 -27.5 11t-11.5 27q0 9 5 20t15 20q18 16 31 29q51 46 84.5 71.5t57.5 25.5q28 0 45.5 -17t44.5 -58q21 -34 40 -58q8 -12 8 -23q0 -21 -15.5 -37t-36.5 -16q-25 0 -35 19z" />
    <glyph glyph-name="Cdotaccent" unicode="&#x10a;" horiz-adv-x="733" 
d="M729.5 697.5q13.5 -11.5 13.5 -31.5q0 -6 -1 -10l-22 -114q-11 -61 -70 -61q-34 0 -45 20q-19 34 -33 53.5t-40 34t-64 14.5q-71 0 -136.5 -47t-106 -120.5t-40.5 -147.5q0 -57 25 -98t67.5 -62t95.5 -21q69 0 127.5 36t77.5 108q6 25 21 41.5t49 16.5q62 0 56 -61
q-8 -57 -49 -115.5t-113.5 -97.5t-168.5 -39q-88 0 -159 36t-112 102.5t-41 155.5q0 107 56 205t150 158.5t201 60.5q108 0 157 -63l3 18q4 18 20 29t42 11t39.5 -11.5zM441.5 781.5q-16.5 16.5 -16.5 42.5q0 31 25.5 55.5t57.5 24.5q25 0 42 -16.5t17 -40.5
q0 -32 -25.5 -57t-57.5 -25q-26 0 -42.5 16.5z" />
    <glyph glyph-name="cdotaccent" unicode="&#x10b;" horiz-adv-x="595" 
d="M154 27.5q-53 27.5 -82.5 75t-29.5 105.5q0 84 38.5 154t106.5 111t152 41q53 0 104.5 -21.5t84 -58t32.5 -78.5q0 -25 -18.5 -37.5t-46.5 -12.5q-19 0 -29.5 10t-16.5 29q-3 16 -16.5 33t-36.5 29t-51 12q-49 0 -91 -30.5t-66 -79.5t-24 -101t30.5 -82.5t89.5 -30.5
q45 0 80 17t54.5 43.5t19.5 52.5q0 14 17 25.5t41 11.5q25 0 38.5 -8t13.5 -29q0 -60 -37.5 -107.5t-100.5 -74t-136 -26.5q-67 0 -120 27.5zM319.5 581.5q-16.5 16.5 -16.5 42.5q0 31 25.5 55.5t57.5 24.5q25 0 42 -16.5t17 -40.5q0 -32 -25.5 -57t-57.5 -25
q-26 0 -42.5 16.5z" />
    <glyph glyph-name="Ccaron" unicode="&#x10c;" horiz-adv-x="733" 
d="M729.5 697.5q13.5 -11.5 13.5 -31.5q0 -6 -1 -10l-22 -114q-11 -61 -70 -61q-34 0 -45 20q-19 34 -33 53.5t-40 34t-64 14.5q-71 0 -136.5 -47t-106 -120.5t-40.5 -147.5q0 -57 25 -98t67.5 -62t95.5 -21q69 0 127.5 36t77.5 108q6 25 21 41.5t49 16.5q62 0 56 -61
q-8 -57 -49 -115.5t-113.5 -97.5t-168.5 -39q-88 0 -159 36t-112 102.5t-41 155.5q0 107 56 205t150 158.5t201 60.5q108 0 157 -63l3 18q4 18 20 29t42 11t39.5 -11.5zM663 960.5q10 -10.5 10 -25.5q0 -11 -4.5 -20t-14.5 -19l-15 -16q-58 -64 -91 -91t-70 -27
q-26 0 -54 29.5t-61 77.5l-14 20q-10 12 -8 27q0 19 17 34.5t38 15.5q10 0 18.5 -5.5t18.5 -19.5l25 -34q14 -20 25 -34t16 -14t25 19.5t45 46.5l27 28q17 18 42 18q15 0 25 -10.5z" />
    <glyph glyph-name="ccaron" unicode="&#x10d;" horiz-adv-x="595" 
d="M154 27.5q-53 27.5 -82.5 75t-29.5 105.5q0 84 38.5 154t106.5 111t152 41q53 0 104.5 -21.5t84 -58t32.5 -78.5q0 -25 -18.5 -37.5t-46.5 -12.5q-19 0 -29.5 10t-16.5 29q-3 16 -16.5 33t-36.5 29t-51 12q-49 0 -91 -30.5t-66 -79.5t-24 -101t30.5 -82.5t89.5 -30.5
q45 0 80 17t54.5 43.5t19.5 52.5q0 14 17 25.5t41 11.5q25 0 38.5 -8t13.5 -29q0 -60 -37.5 -107.5t-100.5 -74t-136 -26.5q-67 0 -120 27.5zM541 760.5q10 -10.5 10 -25.5q0 -11 -4.5 -20t-14.5 -19l-15 -16q-58 -64 -91 -91t-70 -27q-26 0 -54 29.5t-61 77.5l-14 20
q-10 12 -8 27q0 19 17 34.5t38 15.5q10 0 18.5 -5.5t18.5 -19.5l25 -34q14 -20 25 -34t16 -14t25 19.5t45 46.5l27 28q17 18 42 18q15 0 25 -10.5z" />
    <glyph glyph-name="Dcaron" unicode="&#x10e;" horiz-adv-x="707" 
d="M587.5 604.5q95.5 -75.5 95.5 -210.5q0 -117 -66.5 -205t-181 -135.5t-255.5 -47.5h-79q-33 0 -46.5 9.5t-13.5 33.5q0 27 15.5 46t43.5 19h17l72 479h-5q-21 0 -31 7.5t-10 29.5q0 37 18 54.5t46 17.5h12q16 16 51 16q38 0 47 -21q175 -17 270.5 -92.5zM399 160
q74 38 117.5 99.5t43.5 134.5q0 165 -250 193l-71 -472q86 7 160 45zM616 960.5q10 -10.5 10 -25.5q0 -11 -4.5 -20t-14.5 -19l-15 -16q-58 -64 -91 -91t-70 -27q-26 0 -54 29.5t-61 77.5l-14 20q-10 12 -8 27q0 19 17 34.5t38 15.5q10 0 18.5 -5.5t18.5 -19.5l25 -34
q14 -20 25 -34t16 -14t25 19.5t45 46.5l27 28q17 18 42 18q15 0 25 -10.5z" />
    <glyph glyph-name="dcaron" unicode="&#x10f;" horiz-adv-x="802" 
d="M105.5 43q-63.5 52 -63.5 152q0 84 38 156.5t106 116.5t153 44q49 0 89.5 -13.5t59.5 -34.5l70 346q4 21 23.5 33.5t44.5 12.5t41 -12.5t12 -31.5l-118 -614q-9 -51 -9 -85q0 -15 3.5 -23.5t11 -17.5t7.5 -16q0 -12 -13 -27t-32 -25.5t-37 -10.5q-25 0 -44 20.5t-24 53.5
q-36 -41 -69.5 -58.5t-88.5 -17.5q-97 0 -160.5 52zM354.5 106q32.5 17 53.5 45t27 59l27 150q-9 22 -44 39t-75 17q-50 0 -90.5 -30t-63.5 -77t-23 -98q0 -60 34 -91t84 -31q38 0 70.5 17zM865.5 823q18.5 -17 18.5 -44q0 -39 -34.5 -84.5t-84.5 -82.5q-15 -9 -25 -9
q-15 0 -25.5 10t-10.5 23q0 8 3 13.5t11 13.5l16 14q4 4 14.5 13t17.5 17q-14 4 -23.5 17.5t-9.5 29.5q0 34 26 60t60 26q28 0 46.5 -17z" />
    <glyph glyph-name="Dcroat" unicode="&#x110;" horiz-adv-x="722" 
d="M594 612q98 -77 98 -215q0 -116 -69.5 -205t-187 -137.5t-257.5 -48.5h-67q-32 0 -46.5 9.5t-14.5 33.5q0 30 19 46.5t50 18.5l28 189l-31 1q-33 1 -51 14t-18 37q0 32 25.5 52.5t67.5 19.5l25 -1l26 172q-19 5 -28 16t-9 29q0 26 17 39t49 17q17 17 54 17t53 -16
q169 -11 267 -88zM411.5 165q67.5 38 105.5 98.5t38 135.5q0 94 -64 136t-163 52l-25 -164l56 -2q32 -1 48.5 -15t16.5 -38q0 -30 -24 -49.5t-63 -19.5l-52 1l-27 -183q86 10 153.5 48z" />
    <glyph glyph-name="dcroat" unicode="&#x111;" horiz-adv-x="707" 
d="M739 718.5q12 -9.5 12 -26.5q0 -24 -18 -40.5t-44 -17.5l-44 -1l-84 -435q-9 -51 -9 -85q0 -15 3.5 -23.5t11 -17.5t7.5 -16q0 -12 -13 -27t-32 -25.5t-37 -10.5q-25 0 -44 20.5t-24 53.5q-36 -41 -69.5 -58.5t-88.5 -17.5q-97 0 -160.5 52t-63.5 152q0 84 38 156.5
t106 116.5t153 44q49 0 89.5 -13.5t59.5 -34.5l34 167l-60 -1q-20 -1 -31.5 9.5t-11.5 27.5q0 24 16.5 38.5t42.5 15.5l62 2l18 87q4 21 23.5 33.5t44.5 12.5t41 -12.5t12 -31.5l-17 -86l43 1q22 1 34 -8.5zM462 360q-9 22 -44 39t-75 17q-50 0 -90.5 -30t-63.5 -77t-23 -98
q0 -60 34 -91t84 -31q38 0 70.5 17t53.5 45t27 59z" />
    <glyph glyph-name="Emacron" unicode="&#x112;" horiz-adv-x="618" 
d="M638 680q12 -9 12 -28q0 -29 -17.5 -49t-41.5 -19q-92 8 -168 8q-69 0 -117 -3l-14 -89l-12 -78h30q149 -2 184 -4q14 -2 23 -9.5t9 -26.5q0 -27 -14.5 -49.5t-36.5 -22.5q-38 0 -54 1q-14 0 -41 0.5t-83 0.5h-36q-11 -56 -21.5 -97.5t-26.5 -92.5q59 -4 115 -4
q58 0 92 2t72 7l11 1q19 0 30 -10.5t11 -31.5q0 -28 -14.5 -45t-41.5 -22q-48 -9 -196 -9q-58 0 -108.5 2.5t-119.5 11.5q-31 4 -31 36q0 28 12.5 48.5t33.5 20.5h13q26 81 45 185h-9q-16 0 -25.5 9.5t-9.5 28.5q0 31 14 51.5t37 20.5h12l29 160h-4q-13 0 -18.5 11t-5.5 26
q0 67 71 74q52 5 175 5q136 0 202 -8q21 -3 33 -12zM233 789.5q-8 9.5 -8 25.5q0 25 14.5 40t37.5 19q39 7 75.5 11t92.5 4l148 1q19 0 30.5 -12t9.5 -31q-1 -23 -16 -37.5t-40 -14.5l-38 1q-78 3 -95 3q-74 0 -164 -15l-23 -3q-16 -1 -24 8.5z" />
    <glyph glyph-name="emacron" unicode="&#x113;" horiz-adv-x="604" 
d="M156.5 21.5q-54.5 29.5 -83.5 80.5t-29 115q0 80 39 148.5t106.5 108.5t150.5 40q61 0 113 -22t83.5 -66t31.5 -105q0 -99 -78 -99l-340 -4q-1 -6 -1 -16q0 -49 37.5 -80.5t98.5 -31.5q49 0 79.5 16t65.5 46q19 15 35 15q18 0 32.5 -12.5t14.5 -29.5q0 -18 -16 -38
q-33 -38 -81.5 -66.5t-129.5 -28.5q-74 0 -128.5 29.5zM446 302q15 0 19.5 5t4.5 19q0 46 -35.5 71t-89.5 25q-48 0 -88 -21t-64.5 -50.5t-28.5 -52.5zM177 589.5q-8 9.5 -8 25.5q0 25 14.5 40t37.5 19q39 7 75.5 11t92.5 4l148 1q19 0 30.5 -12t9.5 -31q-1 -23 -16 -37.5
t-40 -14.5l-38 1q-78 3 -95 3q-74 0 -164 -15l-23 -3q-16 -1 -24 8.5z" />
    <glyph glyph-name="Ebreve" unicode="&#x114;" horiz-adv-x="618" 
d="M638 680q12 -9 12 -28q0 -29 -17.5 -49t-41.5 -19q-92 8 -168 8q-69 0 -117 -3l-14 -89l-12 -78h30q149 -2 184 -4q14 -2 23 -9.5t9 -26.5q0 -27 -14.5 -49.5t-36.5 -22.5q-38 0 -54 1q-14 0 -41 0.5t-83 0.5h-36q-11 -56 -21.5 -97.5t-26.5 -92.5q59 -4 115 -4
q58 0 92 2t72 7l11 1q19 0 30 -10.5t11 -31.5q0 -28 -14.5 -45t-41.5 -22q-48 -9 -196 -9q-58 0 -108.5 2.5t-119.5 11.5q-31 4 -31 36q0 28 12.5 48.5t33.5 20.5h13q26 81 45 185h-9q-16 0 -25.5 9.5t-9.5 28.5q0 31 14 51.5t37 20.5h12l29 160h-4q-13 0 -18.5 11t-5.5 26
q0 67 71 74q52 5 175 5q136 0 202 -8q21 -3 33 -12zM350 771q-36 16 -56.5 44.5t-20.5 63.5q0 18 7 35q16 32 47 32q16 0 27 -7.5t11 -20.5v-13q1 -35 20 -53t52 -18q31 0 58.5 21.5t35.5 58.5q4 17 18.5 26t31.5 9t28 -11t10 -27q-2 -40 -29.5 -76t-71 -58t-88.5 -22
q-44 0 -80 16z" />
    <glyph glyph-name="ebreve" unicode="&#x115;" horiz-adv-x="604" 
d="M156.5 21.5q-54.5 29.5 -83.5 80.5t-29 115q0 80 39 148.5t106.5 108.5t150.5 40q61 0 113 -22t83.5 -66t31.5 -105q0 -99 -78 -99l-340 -4q-1 -6 -1 -16q0 -49 37.5 -80.5t98.5 -31.5q49 0 79.5 16t65.5 46q19 15 35 15q18 0 32.5 -12.5t14.5 -29.5q0 -18 -16 -38
q-33 -38 -81.5 -66.5t-129.5 -28.5q-74 0 -128.5 29.5zM446 302q15 0 19.5 5t4.5 19q0 46 -35.5 71t-89.5 25q-48 0 -88 -21t-64.5 -50.5t-28.5 -52.5zM294 571q-36 16 -56.5 44.5t-20.5 63.5q0 18 7 35q16 32 47 32q16 0 27 -7.5t11 -20.5v-13q1 -35 20 -53t52 -18
q31 0 58.5 21.5t35.5 58.5q4 17 18.5 26t31.5 9t28 -11t10 -27q-2 -40 -29.5 -76t-71 -58t-88.5 -22q-44 0 -80 16z" />
    <glyph glyph-name="Edotaccent" unicode="&#x116;" horiz-adv-x="618" 
d="M638 680q12 -9 12 -28q0 -29 -17.5 -49t-41.5 -19q-92 8 -168 8q-69 0 -117 -3l-14 -89l-12 -78h30q149 -2 184 -4q14 -2 23 -9.5t9 -26.5q0 -27 -14.5 -49.5t-36.5 -22.5q-38 0 -54 1q-14 0 -41 0.5t-83 0.5h-36q-11 -56 -21.5 -97.5t-26.5 -92.5q59 -4 115 -4
q58 0 92 2t72 7l11 1q19 0 30 -10.5t11 -31.5q0 -28 -14.5 -45t-41.5 -22q-48 -9 -196 -9q-58 0 -108.5 2.5t-119.5 11.5q-31 4 -31 36q0 28 12.5 48.5t33.5 20.5h13q26 81 45 185h-9q-16 0 -25.5 9.5t-9.5 28.5q0 31 14 51.5t37 20.5h12l29 160h-4q-13 0 -18.5 11t-5.5 26
q0 67 71 74q52 5 175 5q136 0 202 -8q21 -3 33 -12zM382.5 781.5q-16.5 16.5 -16.5 42.5q0 31 25.5 55.5t57.5 24.5q25 0 42 -16.5t17 -40.5q0 -32 -25.5 -57t-57.5 -25q-26 0 -42.5 16.5z" />
    <glyph glyph-name="edotaccent" unicode="&#x117;" horiz-adv-x="604" 
d="M156.5 21.5q-54.5 29.5 -83.5 80.5t-29 115q0 80 39 148.5t106.5 108.5t150.5 40q61 0 113 -22t83.5 -66t31.5 -105q0 -99 -78 -99l-340 -4q-1 -6 -1 -16q0 -49 37.5 -80.5t98.5 -31.5q49 0 79.5 16t65.5 46q19 15 35 15q18 0 32.5 -12.5t14.5 -29.5q0 -18 -16 -38
q-33 -38 -81.5 -66.5t-129.5 -28.5q-74 0 -128.5 29.5zM446 302q15 0 19.5 5t4.5 19q0 46 -35.5 71t-89.5 25q-48 0 -88 -21t-64.5 -50.5t-28.5 -52.5zM325.5 581.5q-16.5 16.5 -16.5 42.5q0 31 25.5 55.5t57.5 24.5q25 0 42 -16.5t17 -40.5q0 -32 -25.5 -57t-57.5 -25
q-26 0 -42.5 16.5z" />
    <glyph glyph-name="Eogonek" unicode="&#x118;" horiz-adv-x="618" 
d="M638 680q12 -9 12 -28q0 -29 -17.5 -49t-41.5 -19q-92 8 -168 8q-69 0 -117 -3l-14 -89l-12 -78h30q149 -2 184 -4q14 -2 23 -9.5t9 -26.5q0 -27 -14.5 -49.5t-36.5 -22.5q-38 0 -54 1q-14 0 -41 0.5t-83 0.5h-36q-11 -56 -21.5 -97.5t-26.5 -92.5q59 -4 115 -4
q58 0 92 2t72 7l11 1q19 0 30 -10.5t11 -31.5q0 -35 -23 -53l-8 -7q-30 -21 -46.5 -38.5t-16.5 -35.5q0 -20 30 -20q9 0 21 5q16 4 20 4q9 0 15 -6.5t6 -18.5q0 -29 -20.5 -45t-56.5 -16q-45 0 -73 24.5t-28 61.5t25 70q-30 -1 -97 -1q-58 0 -108.5 2.5t-119.5 11.5
q-31 4 -31 36q0 28 12.5 48.5t33.5 20.5h13q26 81 45 185h-9q-16 0 -25.5 9.5t-9.5 28.5q0 31 14 51.5t37 20.5h12l29 160h-4q-13 0 -18.5 11t-5.5 26q0 67 71 74q52 5 175 5q136 0 202 -8q21 -3 33 -12z" />
    <glyph glyph-name="eogonek" unicode="&#x119;" horiz-adv-x="604" 
d="M150 218q-1 -6 -1 -16q0 -49 37.5 -80.5t98.5 -31.5q49 0 79.5 16t65.5 46q19 15 35 15q18 0 32.5 -12.5t14.5 -29.5q0 -18 -16 -38q-30 -35 -67 -58q-29 -26 -29 -47q0 -20 30 -20q6 0 21.5 4.5t19.5 4.5q9 0 15 -6.5t6 -18.5q0 -29 -20 -45t-56 -16q-45 0 -73.5 24.5
t-28.5 61.5q0 8 2 22q-10 -1 -31 -1q-74 0 -128.5 29.5t-83.5 80.5t-29 115q0 80 39 148.5t106.5 108.5t150.5 40q61 0 113 -22t83.5 -66t31.5 -105q0 -99 -78 -99zM257 401q-40 -21 -64.5 -50.5t-28.5 -52.5l282 4q15 0 19.5 5t4.5 19q0 46 -35.5 71t-89.5 25
q-48 0 -88 -21z" />
    <glyph glyph-name="Ecaron" unicode="&#x11a;" horiz-adv-x="618" 
d="M638 680q12 -9 12 -28q0 -29 -17.5 -49t-41.5 -19q-92 8 -168 8q-69 0 -117 -3l-14 -89l-12 -78h30q149 -2 184 -4q14 -2 23 -9.5t9 -26.5q0 -27 -14.5 -49.5t-36.5 -22.5q-38 0 -54 1q-14 0 -41 0.5t-83 0.5h-36q-11 -56 -21.5 -97.5t-26.5 -92.5q59 -4 115 -4
q58 0 92 2t72 7l11 1q19 0 30 -10.5t11 -31.5q0 -28 -14.5 -45t-41.5 -22q-48 -9 -196 -9q-58 0 -108.5 2.5t-119.5 11.5q-31 4 -31 36q0 28 12.5 48.5t33.5 20.5h13q26 81 45 185h-9q-16 0 -25.5 9.5t-9.5 28.5q0 31 14 51.5t37 20.5h12l29 160h-4q-13 0 -18.5 11t-5.5 26
q0 67 71 74q52 5 175 5q136 0 202 -8q21 -3 33 -12zM604 960.5q10 -10.5 10 -25.5q0 -11 -4.5 -20t-14.5 -19l-15 -16q-58 -64 -91 -91t-70 -27q-26 0 -54 29.5t-61 77.5l-14 20q-10 12 -8 27q0 19 17 34.5t38 15.5q10 0 18.5 -5.5t18.5 -19.5l25 -34q14 -20 25 -34t16 -14
t25 19.5t45 46.5l27 28q17 18 42 18q15 0 25 -10.5z" />
    <glyph glyph-name="ecaron" unicode="&#x11b;" horiz-adv-x="604" 
d="M156.5 21.5q-54.5 29.5 -83.5 80.5t-29 115q0 80 39 148.5t106.5 108.5t150.5 40q61 0 113 -22t83.5 -66t31.5 -105q0 -99 -78 -99l-340 -4q-1 -6 -1 -16q0 -49 37.5 -80.5t98.5 -31.5q49 0 79.5 16t65.5 46q19 15 35 15q18 0 32.5 -12.5t14.5 -29.5q0 -18 -16 -38
q-33 -38 -81.5 -66.5t-129.5 -28.5q-74 0 -128.5 29.5zM446 302q15 0 19.5 5t4.5 19q0 46 -35.5 71t-89.5 25q-48 0 -88 -21t-64.5 -50.5t-28.5 -52.5zM548 760.5q10 -10.5 10 -25.5q0 -11 -4.5 -20t-14.5 -19l-15 -16q-58 -64 -91 -91t-70 -27q-26 0 -54 29.5t-61 77.5
l-14 20q-10 12 -8 27q0 19 17 34.5t38 15.5q10 0 18.5 -5.5t18.5 -19.5l25 -34q14 -20 25 -34t16 -14t25 19.5t45 46.5l27 28q17 18 42 18q15 0 25 -10.5z" />
    <glyph glyph-name="Gcircumflex" unicode="&#x11c;" horiz-adv-x="760" 
d="M322.5 541.5q-63.5 -38.5 -100 -102.5t-36.5 -137q0 -57 23.5 -100.5t65.5 -67.5t96 -24q67 0 112.5 39.5t66.5 118.5l-114 2q-49 1 -49 44q0 30 17.5 49t47.5 18l237 -5q56 0 56 -43q0 -27 -15.5 -46.5t-43.5 -19.5h-17q-32 -130 -108.5 -198.5t-197.5 -68.5
q-92 0 -160.5 39.5t-104.5 107.5t-36 153q0 106 52.5 196t142 142.5t194.5 52.5q72 0 118.5 -26.5t68.5 -62.5l5 21q5 22 16.5 32t36.5 10q26 0 43 -11t16 -31q-2 -27 -11.5 -59.5t-20.5 -48.5q-21 -29 -61 -29q-15 0 -29 7t-31 25q-28 30 -57 46t-82 16q-77 0 -140.5 -38.5
zM567 773l-28 45q-12 20 -21.5 34.5t-13.5 14.5t-15.5 -9.5t-23 -20.5t-20.5 -19l-36 -34q-16 -13 -26.5 -19t-20.5 -6q-16 0 -27.5 11t-11.5 27q0 9 5 20t15 20q18 16 31 29q51 46 84.5 71.5t57.5 25.5q28 0 45.5 -17t44.5 -58q21 -34 40 -58q8 -12 8 -23q0 -21 -15.5 -37
t-36.5 -16q-25 0 -35 19z" />
    <glyph glyph-name="gcircumflex" unicode="&#x11d;" horiz-adv-x="591" 
d="M545 518.5q19 -10.5 19 -28.5q0 -10 -5 -18q-16 -31 -29 -60l-6 -154l-3 -86q-3 -70 -6 -108t-9 -71q-39 -243 -284 -243q-56 0 -101 19.5t-70 53.5t-25 76q0 35 15.5 51.5t48.5 16.5q42 0 42 -33q0 -41 23.5 -63t66.5 -22q46 0 78 11.5t54 43t32 90.5q5 26 6 53
q-26 -22 -63.5 -35t-80.5 -13q-62 0 -109.5 28.5t-73 78t-25.5 110.5q0 77 37.5 143.5t102.5 106t144 39.5q41 0 70.5 -10.5t45.5 -27.5l24 45q6 10 14.5 13.5t25.5 3.5q22 0 41 -10.5zM350 116q41 21 53 46l3 201q-7 17 -29.5 31t-53.5 14q-44 0 -81 -28.5t-58.5 -74
t-21.5 -93.5q0 -51 27 -84t81 -33q39 0 80 21zM437 573l-28 45q-12 20 -21.5 34.5t-13.5 14.5t-15.5 -9.5t-23 -20.5t-20.5 -19l-36 -34q-16 -13 -26.5 -19t-20.5 -6q-16 0 -27.5 11t-11.5 27q0 9 5 20t15 20q18 16 31 29q51 46 84.5 71.5t57.5 25.5q28 0 45.5 -17t44.5 -58
q21 -34 40 -58q8 -12 8 -23q0 -21 -15.5 -37t-36.5 -16q-25 0 -35 19z" />
    <glyph glyph-name="Gbreve" unicode="&#x11e;" horiz-adv-x="760" 
d="M322.5 541.5q-63.5 -38.5 -100 -102.5t-36.5 -137q0 -57 23.5 -100.5t65.5 -67.5t96 -24q67 0 112.5 39.5t66.5 118.5l-114 2q-49 1 -49 44q0 30 17.5 49t47.5 18l237 -5q56 0 56 -43q0 -27 -15.5 -46.5t-43.5 -19.5h-17q-32 -130 -108.5 -198.5t-197.5 -68.5
q-92 0 -160.5 39.5t-104.5 107.5t-36 153q0 106 52.5 196t142 142.5t194.5 52.5q72 0 118.5 -26.5t68.5 -62.5l5 21q5 22 16.5 32t36.5 10q26 0 43 -11t16 -31q-2 -27 -11.5 -59.5t-20.5 -48.5q-21 -29 -61 -29q-15 0 -29 7t-31 25q-28 30 -57 46t-82 16q-77 0 -140.5 -38.5
zM410 771q-36 16 -56.5 44.5t-20.5 63.5q0 18 7 35q16 32 47 32q16 0 27 -7.5t11 -20.5v-13q1 -35 20 -53t52 -18q31 0 58.5 21.5t35.5 58.5q4 17 18.5 26t31.5 9t28 -11t10 -27q-2 -40 -29.5 -76t-71 -58t-88.5 -22q-44 0 -80 16z" />
    <glyph glyph-name="gbreve" unicode="&#x11f;" horiz-adv-x="591" 
d="M545 518.5q19 -10.5 19 -28.5q0 -10 -5 -18q-16 -31 -29 -60l-6 -154l-3 -86q-3 -70 -6 -108t-9 -71q-39 -243 -284 -243q-56 0 -101 19.5t-70 53.5t-25 76q0 35 15.5 51.5t48.5 16.5q42 0 42 -33q0 -41 23.5 -63t66.5 -22q46 0 78 11.5t54 43t32 90.5q5 26 6 53
q-26 -22 -63.5 -35t-80.5 -13q-62 0 -109.5 28.5t-73 78t-25.5 110.5q0 77 37.5 143.5t102.5 106t144 39.5q41 0 70.5 -10.5t45.5 -27.5l24 45q6 10 14.5 13.5t25.5 3.5q22 0 41 -10.5zM350 116q41 21 53 46l3 201q-7 17 -29.5 31t-53.5 14q-44 0 -81 -28.5t-58.5 -74
t-21.5 -93.5q0 -51 27 -84t81 -33q39 0 80 21zM280 571q-36 16 -56.5 44.5t-20.5 63.5q0 18 7 35q16 32 47 32q16 0 27 -7.5t11 -20.5v-13q1 -35 20 -53t52 -18q31 0 58.5 21.5t35.5 58.5q4 17 18.5 26t31.5 9t28 -11t10 -27q-2 -40 -29.5 -76t-71 -58t-88.5 -22
q-44 0 -80 16z" />
    <glyph glyph-name="Gdotaccent" unicode="&#x120;" horiz-adv-x="760" 
d="M322.5 541.5q-63.5 -38.5 -100 -102.5t-36.5 -137q0 -57 23.5 -100.5t65.5 -67.5t96 -24q67 0 112.5 39.5t66.5 118.5l-114 2q-49 1 -49 44q0 30 17.5 49t47.5 18l237 -5q56 0 56 -43q0 -27 -15.5 -46.5t-43.5 -19.5h-17q-32 -130 -108.5 -198.5t-197.5 -68.5
q-92 0 -160.5 39.5t-104.5 107.5t-36 153q0 106 52.5 196t142 142.5t194.5 52.5q72 0 118.5 -26.5t68.5 -62.5l5 21q5 22 16.5 32t36.5 10q26 0 43 -11t16 -31q-2 -27 -11.5 -59.5t-20.5 -48.5q-21 -29 -61 -29q-15 0 -29 7t-31 25q-28 30 -57 46t-82 16q-77 0 -140.5 -38.5
zM441.5 781.5q-16.5 16.5 -16.5 42.5q0 31 25.5 55.5t57.5 24.5q25 0 42 -16.5t17 -40.5q0 -32 -25.5 -57t-57.5 -25q-26 0 -42.5 16.5z" />
    <glyph glyph-name="gdotaccent" unicode="&#x121;" horiz-adv-x="591" 
d="M545 518.5q19 -10.5 19 -28.5q0 -10 -5 -18q-16 -31 -29 -60l-6 -154l-3 -86q-3 -70 -6 -108t-9 -71q-39 -243 -284 -243q-56 0 -101 19.5t-70 53.5t-25 76q0 35 15.5 51.5t48.5 16.5q42 0 42 -33q0 -41 23.5 -63t66.5 -22q46 0 78 11.5t54 43t32 90.5q5 26 6 53
q-26 -22 -63.5 -35t-80.5 -13q-62 0 -109.5 28.5t-73 78t-25.5 110.5q0 77 37.5 143.5t102.5 106t144 39.5q41 0 70.5 -10.5t45.5 -27.5l24 45q6 10 14.5 13.5t25.5 3.5q22 0 41 -10.5zM350 116q41 21 53 46l3 201q-7 17 -29.5 31t-53.5 14q-44 0 -81 -28.5t-58.5 -74
t-21.5 -93.5q0 -51 27 -84t81 -33q39 0 80 21zM311.5 581.5q-16.5 16.5 -16.5 42.5q0 31 25.5 55.5t57.5 24.5q25 0 42 -16.5t17 -40.5q0 -32 -25.5 -57t-57.5 -25q-26 0 -42.5 16.5z" />
    <glyph glyph-name="uni0122" unicode="&#x122;" horiz-adv-x="760" 
d="M322.5 541.5q-63.5 -38.5 -100 -102.5t-36.5 -137q0 -57 23.5 -100.5t65.5 -67.5t96 -24q67 0 112.5 39.5t66.5 118.5l-114 2q-49 1 -49 44q0 30 17.5 49t47.5 18l237 -5q56 0 56 -43q0 -27 -15.5 -46.5t-43.5 -19.5h-17q-32 -130 -108.5 -198.5t-197.5 -68.5
q-92 0 -160.5 39.5t-104.5 107.5t-36 153q0 106 52.5 196t142 142.5t194.5 52.5q72 0 118.5 -26.5t68.5 -62.5l5 21q5 22 16.5 32t36.5 10q26 0 43 -11t16 -31q-2 -27 -11.5 -59.5t-20.5 -48.5q-21 -29 -61 -29q-15 0 -29 7t-31 25q-28 30 -57 46t-82 16q-77 0 -140.5 -38.5
zM391 -82.5q17 -18.5 17 -45.5q0 -40 -35 -84t-85 -80q-13 -9 -30 -9q-12 0 -22 8t-10 21q0 17 10 27l17 16q25 21 38 35q-15 4 -24.5 18t-9.5 31q0 33 25.5 57t62.5 24q29 0 46 -18.5z" />
    <glyph glyph-name="uni0123" unicode="&#x123;" horiz-adv-x="591" 
d="M545 518.5q19 -10.5 19 -28.5q0 -10 -5 -18q-16 -31 -29 -60l-6 -154l-3 -86q-3 -70 -6 -108t-9 -71q-39 -243 -284 -243q-56 0 -101 19.5t-70 53.5t-25 76q0 35 15.5 51.5t48.5 16.5q42 0 42 -33q0 -41 23.5 -63t66.5 -22q46 0 78 11.5t54 43t32 90.5q5 26 6 53
q-26 -22 -63.5 -35t-80.5 -13q-62 0 -109.5 28.5t-73 78t-25.5 110.5q0 77 37.5 143.5t102.5 106t144 39.5q41 0 70.5 -10.5t45.5 -27.5l24 45q6 10 14.5 13.5t25.5 3.5q22 0 41 -10.5zM350 116q41 21 53 46l3 201q-7 17 -29.5 31t-53.5 14q-44 0 -81 -28.5t-58.5 -74
t-21.5 -93.5q0 -51 27 -84t81 -33q39 0 80 21zM457.5 781q9.5 -10 9.5 -23q0 -19 -17 -31q-19 -13 -50 -43q17 -5 27.5 -18t10.5 -32q0 -34 -27 -57.5t-62 -23.5q-27 0 -44.5 18t-17.5 44q0 42 37 89.5t86 77.5q14 9 26 9t21.5 -10z" />
    <glyph glyph-name="Hcircumflex" unicode="&#x124;" horiz-adv-x="774" 
d="M728 330q0 -34 -17 -50.5t-46 -16.5h-10l-30 -206q-5 -27 -23.5 -43t-46.5 -16t-42.5 16t-11.5 40l31 211l-279 4l-59 -232q-11 -44 -68 -44q-26 0 -40.5 9.5t-14.5 27.5q0 10 2 16l57 225h-13q-18 0 -27 9.5t-9 31.5q0 32 15.5 50.5t43.5 18.5h18l74 289q7 25 26.5 39
t47.5 14q25 0 37.5 -12t12.5 -32q0 -12 -2 -18l-72 -282l266 -3l43 289q4 25 23 41.5t48 16.5q26 0 40 -11.5t14 -32.5q0 -7 -1 -11l-43 -294h14q42 0 42 -44zM572 773l-28 45q-12 20 -21.5 34.5t-13.5 14.5t-15.5 -9.5t-23 -20.5t-20.5 -19l-36 -34q-16 -13 -26.5 -19
t-20.5 -6q-16 0 -27.5 11t-11.5 27q0 9 5 20t15 20q18 16 31 29q51 46 84.5 71.5t57.5 25.5q28 0 45.5 -17t44.5 -58q21 -34 40 -58q8 -12 8 -23q0 -21 -15.5 -37t-36.5 -16q-25 0 -35 19z" />
    <glyph glyph-name="hcircumflex" unicode="&#x125;" horiz-adv-x="575" 
d="M493 482.5q45 -37.5 45 -111.5q0 -16 -3 -36q-23 -162 -45 -286q-4 -21 -23.5 -33.5t-44.5 -12.5q-27 0 -42.5 15.5t-11.5 36.5q39 225 48 284q2 16 2 21q0 31 -15 47t-42 16q-41 0 -81.5 -32.5t-59.5 -80.5q-8 -20 -14.5 -54.5t-13.5 -76.5q-16 -95 -23 -133
q-4 -19 -24.5 -31t-44.5 -12q-26 0 -41.5 12.5t-11.5 31.5q29 171 72 385q17 82 68 303q6 23 24.5 37t46.5 14q24 0 36 -9.5t12 -27.5q0 -7 -1 -11q-29 -136 -62 -270q56 52 137 52q68 0 113 -37.5zM356 859l-28 45q-12 20 -21.5 34.5t-13.5 14.5t-15.5 -9.5t-23 -20.5
t-20.5 -19l-36 -34q-16 -13 -26.5 -19t-20.5 -6q-16 0 -27.5 11t-11.5 27q0 9 5 20t15 20q18 16 31 29q51 46 84.5 71.5t57.5 25.5q28 0 45.5 -17t44.5 -58q21 -34 40 -58q8 -12 8 -23q0 -21 -15.5 -37t-36.5 -16q-25 0 -35 19z" />
    <glyph glyph-name="Hbar" unicode="&#x126;" horiz-adv-x="805" 
d="M702 479l-15 -105h14q42 0 42 -44q0 -34 -17 -50.5t-46 -16.5h-10l-30 -206q-5 -27 -23.5 -43t-46.5 -16t-42.5 16t-11.5 40l31 211l-279 4l-59 -232q-11 -44 -68 -44q-26 0 -40.5 9.5t-14.5 27.5q0 10 2 16l57 225h-13q-18 0 -27 9.5t-9 31.5q0 32 15.5 50.5t43.5 18.5
h18l28 107h-23q-27 1 -44 11.5t-17 29.5q0 26 24.5 41t55.5 14h28l22 86q7 25 26.5 39t47.5 14q25 0 37.5 -12t12.5 -32q0 -12 -2 -18l-20 -79l244 -3l13 86q4 25 23 41.5t48 16.5q26 0 40 -11.5t14 -32.5q0 -7 -1 -11l-13 -91h15q28 -1 45.5 -11t17.5 -29q0 -29 -23 -43.5
t-58 -14.5h-12zM579 481l-255 5l-27 -107l266 -3z" />
    <glyph glyph-name="hbar" unicode="&#x127;" horiz-adv-x="587" 
d="M504 482.5q45 -37.5 45 -111.5q0 -16 -3 -36q-23 -162 -45 -286q-4 -21 -23.5 -33.5t-44.5 -12.5q-27 0 -42 15t-12 37q39 225 48 284q2 16 2 21q0 31 -15 47t-42 16q-41 0 -81 -32.5t-59 -80.5q-8 -21 -15.5 -56.5t-14.5 -79.5q-8 -58 -22 -128q-4 -19 -24 -31t-45 -12
q-26 0 -41 12.5t-12 31.5q35 202 73 385q3 11 5.5 24.5t6.5 30.5q5 28 19 90l-29 1q-17 0 -28 11t-11 28q0 22 17.5 37.5t40.5 15.5l31 -1q6 22 16 66q5 23 24 37t46 14q24 0 36.5 -9.5t12.5 -25.5q0 -5 -2 -13l-16 -73l79 -3q20 0 31.5 -11t11.5 -29q0 -23 -17 -37.5
t-41 -14.5l-85 3l-25 -106q55 53 138 53q67 0 112 -37.5z" />
    <glyph glyph-name="Itilde" unicode="&#x128;" horiz-adv-x="486" 
d="M522 663q0 -30 -16 -49t-48 -18q-30 2 -70 2q-50 -271 -103 -483l87 -1q47 -1 47 -40q0 -32 -18 -51.5t-49 -19.5l-300 4q-42 1 -42 41q0 29 17.5 49.5t44.5 20.5l94 -1q58 251 100 481l-78 -5q-27 -3 -42 -3q-18 0 -28.5 11t-10.5 30q0 30 16 48t45 22q19 3 70.5 6
t109.5 3q76 0 134 -6q40 -3 40 -41zM184 780q-10 11 -10 26q0 21 18 39q32 32 57 45.5t54 13.5q23 0 47 -6.5t44 -17.5q16 -10 26.5 -15t16.5 -5q9 0 20 11q12 11 21 16t19 5q16 0 27.5 -12t11.5 -29q0 -21 -20 -39q-50 -43 -96 -43q-19 0 -35 6t-28 13t-17 9q-33 19 -46 19
q-6 0 -14.5 -6.5t-15 -12t-9.5 -8.5q-23 -20 -44 -20q-17 0 -27 11z" />
    <glyph glyph-name="itilde" unicode="&#x129;" horiz-adv-x="338" 
d="M83.5 15q-14.5 12 -14.5 31q0 6 1 10l79 399q4 24 24 38t47 14q25 0 39.5 -12t14.5 -33l-1 -9l-83 -399q-5 -22 -23.5 -36.5t-44.5 -14.5q-24 0 -38.5 12zM65 580q-10 11 -10 26q0 21 18 39q32 32 57 45.5t54 13.5q23 0 47 -6.5t44 -17.5q16 -10 26.5 -15t16.5 -5
q9 0 20 11q12 11 21 16t19 5q16 0 27.5 -12t11.5 -29q0 -21 -20 -39q-50 -43 -96 -43q-19 0 -35 6t-28 13t-17 9q-33 19 -46 19q-6 0 -14.5 -6.5t-15 -12t-9.5 -8.5q-23 -20 -44 -20q-17 0 -27 11z" />
    <glyph glyph-name="Imacron" unicode="&#x12a;" horiz-adv-x="486" 
d="M522 663q0 -30 -16 -49t-48 -18q-30 2 -70 2q-50 -271 -103 -483l87 -1q47 -1 47 -40q0 -32 -18 -51.5t-49 -19.5l-300 4q-42 1 -42 41q0 29 17.5 49.5t44.5 20.5l94 -1q58 251 100 481l-78 -5q-27 -3 -42 -3q-18 0 -28.5 11t-10.5 30q0 30 16 48t45 22q19 3 70.5 6
t109.5 3q76 0 134 -6q40 -3 40 -41zM153 789.5q-8 9.5 -8 25.5q0 25 14.5 40t37.5 19q39 7 75.5 11t92.5 4l148 1q19 0 30.5 -12t9.5 -31q-1 -23 -16 -37.5t-40 -14.5l-38 1q-78 3 -95 3q-74 0 -164 -15l-23 -3q-16 -1 -24 8.5z" />
    <glyph glyph-name="imacron" unicode="&#x12b;" horiz-adv-x="338" 
d="M83.5 15q-14.5 12 -14.5 31q0 6 1 10l79 399q4 24 24 38t47 14q25 0 39.5 -12t14.5 -33l-1 -9l-83 -399q-5 -22 -23.5 -36.5t-44.5 -14.5q-24 0 -38.5 12zM34 589.5q-8 9.5 -8 25.5q0 25 14.5 40t37.5 19q39 7 75.5 11t92.5 4l148 1q19 0 30.5 -12t9.5 -31
q-1 -23 -16 -37.5t-40 -14.5l-38 1q-78 3 -95 3q-74 0 -164 -15l-23 -3q-16 -1 -24 8.5z" />
    <glyph glyph-name="Ibreve" unicode="&#x12c;" horiz-adv-x="486" 
d="M522 663q0 -30 -16 -49t-48 -18q-30 2 -70 2q-50 -271 -103 -483l87 -1q47 -1 47 -40q0 -32 -18 -51.5t-49 -19.5l-300 4q-42 1 -42 41q0 29 17.5 49.5t44.5 20.5l94 -1q58 251 100 481l-78 -5q-27 -3 -42 -3q-18 0 -28.5 11t-10.5 30q0 30 16 48t45 22q19 3 70.5 6
t109.5 3q76 0 134 -6q40 -3 40 -41zM270 771q-36 16 -56.5 44.5t-20.5 63.5q0 18 7 35q16 32 47 32q16 0 27 -7.5t11 -20.5v-13q1 -35 20 -53t52 -18q31 0 58.5 21.5t35.5 58.5q4 17 18.5 26t31.5 9t28 -11t10 -27q-2 -40 -29.5 -76t-71 -58t-88.5 -22q-44 0 -80 16z" />
    <glyph glyph-name="ibreve" unicode="&#x12d;" horiz-adv-x="338" 
d="M83.5 15q-14.5 12 -14.5 31q0 6 1 10l79 399q4 24 24 38t47 14q25 0 39.5 -12t14.5 -33l-1 -9l-83 -399q-5 -22 -23.5 -36.5t-44.5 -14.5q-24 0 -38.5 12zM151 571q-36 16 -56.5 44.5t-20.5 63.5q0 18 7 35q16 32 47 32q16 0 27 -7.5t11 -20.5v-13q1 -35 20 -53t52 -18
q31 0 58.5 21.5t35.5 58.5q4 17 18.5 26t31.5 9t28 -11t10 -27q-2 -40 -29.5 -76t-71 -58t-88.5 -22q-44 0 -80 16z" />
    <glyph glyph-name="Iogonek" unicode="&#x12e;" horiz-adv-x="486" 
d="M522 663q0 -30 -16 -49t-48 -18q-30 2 -70 2q-50 -271 -103 -483l87 -1q47 -1 47 -40t-26 -59l-4 -3q-31 -22 -47.5 -39t-16.5 -35q0 -20 31 -20q5 0 21 4q14 4 20 4q9 0 14.5 -6t5.5 -18q0 -30 -20 -46t-56 -16q-45 0 -73.5 24.5t-28.5 62.5q0 41 30 77l-217 3
q-42 1 -42 41q0 29 17.5 49.5t44.5 20.5l94 -1q58 251 100 481l-78 -5q-27 -3 -42 -3q-18 0 -28.5 11t-10.5 30q0 30 16 48t45 22q19 3 70.5 6t109.5 3q76 0 134 -6q40 -3 40 -41z" />
    <glyph glyph-name="iogonek" unicode="&#x12f;" horiz-adv-x="338" 
d="M291.5 687.5q16.5 -16.5 16.5 -40.5q0 -32 -25 -57t-57 -25q-26 0 -43 16.5t-17 42.5q0 31 26 55.5t58 24.5q25 0 41.5 -16.5zM259.5 495q14.5 -12 14.5 -33l-1 -9l-83 -399q-3 -15 -12 -25q-5 -10 -18 -19q-31 -22 -47 -39t-16 -35q0 -20 30 -20q6 0 21.5 4.5t19.5 4.5
q9 0 15 -6.5t6 -18.5q0 -29 -20 -45t-56 -16q-45 0 -73.5 24.5t-28.5 61.5q0 57 60 107q-2 8 -2 14q0 7 1 10l79 399q4 24 24 38t47 14q25 0 39.5 -12z" />
    <glyph glyph-name="Idotaccent" unicode="&#x130;" horiz-adv-x="486" 
d="M522 663q0 -30 -16 -49t-48 -18q-30 2 -70 2q-50 -271 -103 -483l87 -1q47 -1 47 -40q0 -32 -18 -51.5t-49 -19.5l-300 4q-42 1 -42 41q0 29 17.5 49.5t44.5 20.5l94 -1q58 251 100 481l-78 -5q-27 -3 -42 -3q-18 0 -28.5 11t-10.5 30q0 30 16 48t45 22q19 3 70.5 6
t109.5 3q76 0 134 -6q40 -3 40 -41zM301.5 781.5q-16.5 16.5 -16.5 42.5q0 31 25.5 55.5t57.5 24.5q25 0 42 -16.5t17 -40.5q0 -32 -25.5 -57t-57.5 -25q-26 0 -42.5 16.5z" />
    <glyph glyph-name="dotlessi" unicode="&#x131;" horiz-adv-x="338" 
d="M83.5 15q-14.5 12 -14.5 31q0 6 1 10l79 399q4 24 24 38t47 14q25 0 39.5 -12t14.5 -33l-1 -9l-83 -399q-5 -22 -23.5 -36.5t-44.5 -14.5q-24 0 -38.5 12z" />
    <glyph glyph-name="IJ" unicode="&#x132;" horiz-adv-x="1108" 
d="M522 663q0 -30 -16 -49t-48 -18q-30 2 -70 2q-50 -271 -103 -483l87 -1q47 -1 47 -40q0 -32 -18 -51.5t-49 -19.5l-300 4q-42 1 -42 41q0 29 17.5 49.5t44.5 20.5l94 -1q58 251 100 481l-78 -5q-27 -3 -42 -3q-18 0 -28.5 11t-10.5 30q0 30 16 48t45 22q19 3 70.5 6
t109.5 3q76 0 134 -6q40 -3 40 -41zM1139 661q0 -28 -16.5 -47.5t-47.5 -19.5h-35q-18 -88 -47 -258l-12 -69q-23 -130 -88.5 -199t-172.5 -69q-94 0 -148 52.5t-54 146.5q0 34 5 60q11 63 75 63q26 0 38.5 -13t12.5 -34q0 -8 -1 -13q-5 -26 -5 -56q0 -95 77 -95q48 0 85 39
t50 119q28 159 63 326h-51q-24 0 -35.5 9t-11.5 28q0 9 1 14q3 25 17 39.5t32 15.5q66 3 135 3q50 0 90 -2q44 -3 44 -40z" />
    <glyph glyph-name="ij" unicode="&#x133;" horiz-adv-x="689" 
d="M171.5 554.5q-18.5 17.5 -18.5 46.5q0 41 28.5 68.5t69.5 27.5q31 0 49.5 -17.5t18.5 -46.5q0 -40 -28.5 -68t-69.5 -28q-31 0 -49.5 17.5zM73.5 17.5q-14.5 11.5 -14.5 29.5q0 6 1 9l78 388q4 23 23.5 36.5t46.5 13.5q25 0 39.5 -11.5t14.5 -29.5q0 -7 -1 -11l-77 -386
q-4 -23 -24 -36.5t-47 -13.5q-25 0 -39.5 11.5zM540 559.5q-20 19.5 -20 47.5q0 35 29 62t69 27q31 0 50 -17.5t19 -46.5q0 -39 -29.5 -65.5t-66.5 -26.5q-31 0 -51 19.5zM227 -200.5q-40 35.5 -40 88.5q0 42 17 62t53 20q29 0 38.5 -10.5t9.5 -30.5q0 -39 5 -54t26 -15
q34 0 54.5 39.5t38.5 125.5q39 198 81 432q4 19 22.5 30.5t45.5 11.5t41 -13t11 -32q-45 -247 -82 -429q-29 -140 -80 -200.5t-132 -60.5q-69 0 -109 35.5z" />
    <glyph glyph-name="Jcircumflex" unicode="&#x134;" horiz-adv-x="622" 
d="M653 661q0 -28 -16.5 -47.5t-47.5 -19.5h-35q-18 -88 -47 -258l-12 -69q-23 -130 -88.5 -199t-172.5 -69q-94 0 -148 52.5t-54 146.5q0 34 5 60q11 63 75 63q26 0 38.5 -13t12.5 -34q0 -8 -1 -13q-5 -26 -5 -56q0 -95 77 -95q48 0 85 39t50 119q28 159 63 326h-51
q-24 0 -35.5 9t-11.5 28q0 9 1 14q3 25 17 39.5t32 15.5q66 3 135 3q50 0 90 -2q44 -3 44 -40zM600 773l-28 45q-12 20 -21.5 34.5t-13.5 14.5t-15.5 -9.5t-23 -20.5t-20.5 -19l-36 -34q-16 -13 -26.5 -19t-20.5 -6q-16 0 -27.5 11t-11.5 27q0 9 5 20t15 20q18 16 31 29
q51 46 84.5 71.5t57.5 25.5q28 0 45.5 -17t44.5 -58q21 -34 40 -58q8 -12 8 -23q0 -21 -15.5 -37t-36.5 -16q-25 0 -35 19z" />
    <glyph glyph-name="jcircumflex" unicode="&#x135;" horiz-adv-x="334" 
d="M-100 -200.5q-40 35.5 -40 88.5q0 42 16.5 62t50.5 20q23 0 33 -7.5t12 -18t2 -31.5q0 -27 8 -40t27 -13q34 0 54.5 39.5t38.5 125.5q39 198 81 432q4 19 22.5 30.5t45.5 11.5t41 -13t11 -32q-45 -247 -82 -429q-29 -140 -80 -200.5t-132 -60.5q-69 0 -109 35.5zM347 573
l-28 45q-12 20 -21.5 34.5t-13.5 14.5t-15.5 -9.5t-23 -20.5t-20.5 -19l-36 -34q-16 -13 -26.5 -19t-20.5 -6q-16 0 -27.5 11t-11.5 27q0 9 5 20t15 20q18 16 31 29q51 46 84.5 71.5t57.5 25.5q28 0 45.5 -17t44.5 -58q21 -34 40 -58q8 -12 8 -23q0 -21 -15.5 -37t-36.5 -16
q-25 0 -35 19z" />
    <glyph glyph-name="uni0136" unicode="&#x136;" horiz-adv-x="641" 
d="M665.5 684.5q15.5 -14.5 15.5 -32.5q0 -15 -7.5 -29t-20.5 -23q-70 -45 -203 -122q-80 -47 -129 -74q-14 -8 -28.5 -16t-28.5 -17l132 -131q88 -87 146 -138q17 -17 17 -37q0 -27 -22 -47.5t-51 -20.5q-18 0 -35 12q-45 42 -138 139l-111 118l-39 -206q-4 -28 -24 -44.5
t-48 -16.5q-24 0 -38 10t-14 29l1 9q15 95 46 246l13 69q10 51 29 171q5 35 18 113q5 24 25 39t47 15q25 0 38.5 -13t13.5 -33q0 -7 -1 -11l-30 -177l153 96q82 51 195 125q17 12 41 12q22 0 37.5 -14.5zM319 -82.5q17 -18.5 17 -45.5q0 -40 -35 -84t-85 -80q-13 -9 -30 -9
q-12 0 -22 8t-10 21q0 17 10 27l17 16q25 21 38 35q-15 4 -24.5 18t-9.5 31q0 33 25.5 57t62.5 24q29 0 46 -18.5z" />
    <glyph glyph-name="uni0137" unicode="&#x137;" horiz-adv-x="536" 
d="M47.5 5.5q-15.5 12.5 -11.5 31.5l116 661q4 24 23.5 37.5t46.5 13.5q24 0 38.5 -11.5t14.5 -29.5q0 -6 -1 -10l-56 -305l250 137q19 10 35 10q18 0 29.5 -16.5t9.5 -35.5q0 -17 -8.5 -26t-29.5 -21l-284 -156l229 -197q11 -9 11 -25q0 -25 -21.5 -43.5t-45.5 -18.5
q-21 0 -41 16q-29 24 -112 101l-60 57l-24 -137q-4 -20 -22.5 -32.5t-44.5 -12.5t-41.5 12.5zM278 -82.5q17 -18.5 17 -45.5q0 -40 -35 -84t-85 -80q-13 -9 -30 -9q-12 0 -22 8t-10 21q0 17 10 27l17 16q25 21 38 35q-15 4 -24.5 18t-9.5 31q0 33 25.5 57t62.5 24
q29 0 46 -18.5z" />
    <glyph glyph-name="kgreenlandic" unicode="&#x138;" horiz-adv-x="536" 
d="M48 5.5q-15 12.5 -12 31.5l78 440q4 24 22.5 37.5t45.5 13.5q25 0 39.5 -11.5t14.5 -29.5q0 -7 -1 -10l-18 -92q20 11 115 67q14 8 54.5 32.5t81.5 45.5q22 12 39 10q15 -2 25.5 -17t10.5 -33t-8.5 -27.5t-30.5 -21.5l-275 -156l221 -197q9 -9 9 -25q0 -24 -21 -43
t-45 -19q-21 0 -41 16q-10 9 -50 49q-76 79 -120 118l-26 -146q-4 -20 -22.5 -32.5t-44.5 -12.5t-41 12.5z" />
    <glyph glyph-name="Lacute" unicode="&#x139;" horiz-adv-x="562" 
d="M121 13.5q-38 15.5 -53.5 49.5t-15.5 94q0 142 123 502q7 20 26 32.5t47 12.5q21 0 36 -10t15 -25q0 -3 -2 -11l-9 -26q-59 -164 -89.5 -273.5t-30.5 -201.5q0 -32 14 -42.5t55 -10.5q46 0 83 4.5t100 15.5q28 6 43 8q21 3 32 -10t11 -33q0 -59 -58 -69
q-114 -22 -218 -22q-71 0 -109 15.5zM194 770.5q-11 12.5 -11 28.5q0 23 27 44l99 79q22 17 33.5 24t23.5 7q17 0 28 -13t11 -30q0 -28 -31 -51l-107 -80q-16 -12 -25.5 -16.5t-20.5 -4.5q-16 0 -27 12.5z" />
    <glyph glyph-name="lacute" unicode="&#x13a;" horiz-adv-x="264" 
d="M51.5 22q-14.5 13 -12.5 32l115 685q4 24 24 38.5t48 14.5q24 0 39.5 -13.5t12.5 -32.5l-117 -685q-4 -24 -24.5 -38t-45.5 -14t-39.5 13zM169 862.5q-11 12.5 -11 28.5q0 23 27 44l99 79q22 17 33.5 24t23.5 7q17 0 28 -13t11 -30q0 -28 -31 -51l-107 -80
q-16 -12 -25.5 -16.5t-20.5 -4.5q-16 0 -27 12.5z" />
    <glyph glyph-name="uni013B" unicode="&#x13b;" horiz-adv-x="562" 
d="M121 13.5q-38 15.5 -53.5 49.5t-15.5 94q0 142 123 502q7 20 26 32.5t47 12.5q21 0 36 -10t15 -25q0 -3 -2 -11l-9 -26q-59 -164 -89.5 -273.5t-30.5 -201.5q0 -32 14 -42.5t55 -10.5q46 0 83 4.5t100 15.5q28 6 43 8q21 3 32 -10t11 -33q0 -59 -58 -69
q-114 -22 -218 -22q-71 0 -109 15.5zM273 -82.5q17 -18.5 17 -45.5q0 -40 -35 -84t-85 -80q-13 -9 -30 -9q-12 0 -22 8t-10 21q0 17 10 27l17 16q25 21 38 35q-15 4 -24.5 18t-9.5 31q0 33 25.5 57t62.5 24q29 0 46 -18.5z" />
    <glyph glyph-name="uni013C" unicode="&#x13c;" horiz-adv-x="264" 
d="M51.5 22q-14.5 13 -12.5 32l115 685q4 24 24 38.5t48 14.5q24 0 39.5 -13.5t12.5 -32.5l-117 -685q-4 -24 -24.5 -38t-45.5 -14t-39.5 13zM128 -82.5q17 -18.5 17 -45.5q0 -40 -35 -84t-85 -80q-13 -9 -30 -9q-12 0 -22 8t-10 21q0 17 10 27l17 16q25 21 38 35
q-15 4 -24.5 18t-9.5 31q0 33 25.5 57t62.5 24q29 0 46 -18.5z" />
    <glyph glyph-name="Lcaron" unicode="&#x13d;" horiz-adv-x="562" 
d="M121 13.5q-38 15.5 -53.5 49.5t-15.5 94q0 142 123 502q7 20 26 32.5t47 12.5q21 0 36 -10t15 -25q0 -3 -2 -11l-9 -26q-59 -164 -89.5 -273.5t-30.5 -201.5q0 -32 14 -42.5t55 -10.5q46 0 83 4.5t100 15.5q28 6 43 8q21 3 32 -10t11 -33q0 -59 -58 -69
q-114 -22 -218 -22q-71 0 -109 15.5zM565.5 697q18.5 -17 18.5 -44q0 -39 -34.5 -84.5t-84.5 -82.5q-15 -9 -25 -9q-15 0 -25.5 10t-10.5 23q0 8 3 13.5t11 13.5l16 14q4 4 14.5 13t17.5 17q-14 4 -23.5 17.5t-9.5 29.5q0 34 26 60t60 26q28 0 46.5 -17z" />
    <glyph glyph-name="lcaron" unicode="&#x13e;" horiz-adv-x="430" 
d="M51.5 22q-14.5 13 -12.5 32l115 685q4 24 24 38.5t48 14.5q24 0 39.5 -13.5t12.5 -32.5l-117 -685q-4 -24 -24.5 -38t-45.5 -14t-39.5 13zM466.5 778q18.5 -17 18.5 -44q0 -39 -34.5 -84.5t-84.5 -82.5q-15 -9 -25 -9q-15 0 -25.5 10t-10.5 23q0 8 3 13.5t11 13.5l16 14
q4 4 14.5 13t17.5 17q-14 4 -23.5 17.5t-9.5 29.5q0 34 26 60t60 26q28 0 46.5 -17z" />
    <glyph glyph-name="Ldot" unicode="&#x13f;" horiz-adv-x="562" 
d="M121 13.5q-38 15.5 -53.5 49.5t-15.5 94q0 142 123 502q7 20 26 32.5t47 12.5q21 0 36 -10t15 -25q0 -3 -2 -11l-9 -26q-59 -164 -89.5 -273.5t-30.5 -201.5q0 -32 14 -42.5t55 -10.5q46 0 83 4.5t100 15.5q28 6 43 8q21 3 32 -10t11 -33q0 -59 -58 -69
q-114 -22 -218 -22q-71 0 -109 15.5zM300.5 276.5q-21.5 20.5 -21.5 54.5q0 48 30 77t79 29q34 0 55 -20.5t21 -54.5q0 -47 -29.5 -76.5t-77.5 -29.5q-35 0 -56.5 20.5z" />
    <glyph glyph-name="ldot" unicode="&#x140;" horiz-adv-x="427" 
d="M51.5 22q-14.5 13 -12.5 32l115 685q4 24 24 38.5t48 14.5q24 0 39.5 -13.5t12.5 -32.5l-117 -685q-4 -24 -24.5 -38t-45.5 -14t-39.5 13zM256.5 187.5q-21.5 20.5 -21.5 54.5q0 48 30 77t79 29q34 0 55 -20.5t21 -54.5q0 -47 -29.5 -76.5t-77.5 -29.5q-35 0 -56.5 20.5z
" />
    <glyph glyph-name="Lslash" unicode="&#x141;" horiz-adv-x="562" 
d="M495 122q11 -13 11 -33q0 -59 -58 -69q-114 -22 -218 -22q-71 0 -109 15.5t-53.5 49.5t-15.5 94q0 29 7 81h-5q-27 0 -35 14q-10 14 -10 29q0 33 44 63l33 23q28 112 89 292q7 20 26 32.5t47 12.5q21 0 36 -10t15 -25q0 -3 -2 -11q-44 -125 -66 -191l98 68q17 13 40 13
q30 0 43 -21q8 -13 8 -26q0 -17 -12.5 -36t-33.5 -33l-189 -131q-17 -79 -17 -144q0 -32 14 -42.5t55 -10.5q46 0 83 4.5t100 15.5q28 6 43 8q21 3 32 -10z" />
    <glyph glyph-name="lslash" unicode="&#x142;" horiz-adv-x="343" 
d="M368 548q11 -12 11 -30q0 -35 -40 -53l-67 -34l-63 -370q-4 -24 -24.5 -38t-45.5 -14t-39.5 13t-12.5 32l52 309l-38 -19q-17 -8 -29 -8q-16 0 -27.5 11.5t-11.5 27.5q0 32 36 51l88 45l45 268q4 24 24 38.5t48 14.5q24 0 39.5 -13.5t12.5 -32.5l-35 -206l25 13
q11 7 24 7q17 0 28 -12z" />
    <glyph glyph-name="Nacute" unicode="&#x143;" horiz-adv-x="752" 
d="M752 668q0 -5 -2 -19q-21 -125 -58 -321q-23 -124 -42.5 -190.5t-44.5 -96.5t-64 -30q-35 0 -62 26t-56 80.5t-82 170.5l-79 175l-19 44l-15 -93l-15 -90q-24 -143 -47 -263q-4 -22 -24 -37t-46 -15t-41 16t-12 36q14 86 26 149q20 111 23 126q-2 -11 14 85
q24 136 24 139q10 57 21 88t28 45t46 14q35 0 61 -24t55 -80.5t82 -179.5q75 -173 116 -252l34 179l56 311q4 24 22 38.5t50 14.5q51 0 51 -46zM407 770.5q-11 12.5 -11 28.5q0 23 27 44l99 79q22 17 33.5 24t23.5 7q17 0 28 -13t11 -30q0 -28 -31 -51l-107 -80
q-16 -12 -25.5 -16.5t-20.5 -4.5q-16 0 -27 12.5z" />
    <glyph glyph-name="nacute" unicode="&#x144;" horiz-adv-x="567" 
d="M482 466.5q42 -43.5 42 -122.5q0 -27 -10.5 -92.5t-24.5 -145.5l-11 -61q-4 -21 -22.5 -33t-45.5 -12q-28 0 -43 12.5t-12 32.5l22 129q10 59 17.5 105.5t7.5 63.5q0 37 -13 54t-42 17q-38 0 -67.5 -31.5t-54.5 -103.5q-16 -48 -25 -101l-4 -25q-10 -63 -19 -109
q-4 -21 -22 -33t-45 -12q-29 0 -43.5 12.5t-11.5 32.5l5 29q34 200 48 306q2 14 -0.5 25t-6.5 20.5t-6 13.5q-5 8 -5 18q-1 20 22.5 35.5t44.5 15.5t37 -25q8 -12 12.5 -29t3.5 -27l-2 -12q52 96 163 96q69 0 111 -43.5zM283 570.5q-11 12.5 -11 28.5q0 23 27 44l99 79
q22 17 33.5 24t23.5 7q17 0 28 -13t11 -30q0 -28 -31 -51l-107 -80q-16 -12 -25.5 -16.5t-20.5 -4.5q-16 0 -27 12.5z" />
    <glyph glyph-name="uni0145" unicode="&#x145;" horiz-adv-x="752" 
d="M752 668q0 -5 -2 -19q-21 -125 -58 -321q-23 -124 -42.5 -190.5t-44.5 -96.5t-64 -30q-35 0 -62 26t-56 80.5t-82 170.5l-79 175l-19 44l-15 -93l-15 -90q-24 -143 -47 -263q-4 -22 -24 -37t-46 -15t-41 16t-12 36q14 86 26 149q20 111 23 126q-2 -11 14 85
q24 136 24 139q10 57 21 88t28 45t46 14q35 0 61 -24t55 -80.5t82 -179.5q75 -173 116 -252l34 179l56 311q4 24 22 38.5t50 14.5q51 0 51 -46zM383 -82.5q17 -18.5 17 -45.5q0 -40 -35 -84t-85 -80q-13 -9 -30 -9q-12 0 -22 8t-10 21q0 17 10 27l17 16q25 21 38 35
q-15 4 -24.5 18t-9.5 31q0 33 25.5 57t62.5 24q29 0 46 -18.5z" />
    <glyph glyph-name="uni0146" unicode="&#x146;" horiz-adv-x="567" 
d="M482 466.5q42 -43.5 42 -122.5q0 -27 -10.5 -92.5t-24.5 -145.5l-11 -61q-4 -21 -22.5 -33t-45.5 -12q-28 0 -43 12.5t-12 32.5l22 129q10 59 17.5 105.5t7.5 63.5q0 37 -13 54t-42 17q-38 0 -67.5 -31.5t-54.5 -103.5q-16 -48 -25 -101l-4 -25q-10 -63 -19 -109
q-4 -21 -22 -33t-45 -12q-29 0 -43.5 12.5t-11.5 32.5l5 29q34 200 48 306q2 14 -0.5 25t-6.5 20.5t-6 13.5q-5 8 -5 18q-1 20 22.5 35.5t44.5 15.5t37 -25q8 -12 12.5 -29t3.5 -27l-2 -12q52 96 163 96q69 0 111 -43.5zM294 -82.5q17 -18.5 17 -45.5q0 -40 -35 -84t-85 -80
q-13 -9 -30 -9q-12 0 -22 8t-10 21q0 17 10 27l17 16q25 21 38 35q-15 4 -24.5 18t-9.5 31q0 33 25.5 57t62.5 24q29 0 46 -18.5z" />
    <glyph glyph-name="Ncaron" unicode="&#x147;" horiz-adv-x="752" 
d="M752 668q0 -5 -2 -19q-21 -125 -58 -321q-23 -124 -42.5 -190.5t-44.5 -96.5t-64 -30q-35 0 -62 26t-56 80.5t-82 170.5l-79 175l-19 44l-15 -93l-15 -90q-24 -143 -47 -263q-4 -22 -24 -37t-46 -15t-41 16t-12 36q14 86 26 149q20 111 23 126q-2 -11 14 85
q24 136 24 139q10 57 21 88t28 45t46 14q35 0 61 -24t55 -80.5t82 -179.5q75 -173 116 -252l34 179l56 311q4 24 22 38.5t50 14.5q51 0 51 -46zM656 960.5q10 -10.5 10 -25.5q0 -11 -4.5 -20t-14.5 -19l-15 -16q-58 -64 -91 -91t-70 -27q-26 0 -54 29.5t-61 77.5l-14 20
q-10 12 -8 27q0 19 17 34.5t38 15.5q10 0 18.5 -5.5t18.5 -19.5l25 -34q14 -20 25 -34t16 -14t25 19.5t45 46.5l27 28q17 18 42 18q15 0 25 -10.5z" />
    <glyph glyph-name="ncaron" unicode="&#x148;" horiz-adv-x="567" 
d="M482 466.5q42 -43.5 42 -122.5q0 -27 -10.5 -92.5t-24.5 -145.5l-11 -61q-4 -21 -22.5 -33t-45.5 -12q-28 0 -43 12.5t-12 32.5l22 129q10 59 17.5 105.5t7.5 63.5q0 37 -13 54t-42 17q-38 0 -67.5 -31.5t-54.5 -103.5q-16 -48 -25 -101l-4 -25q-10 -63 -19 -109
q-4 -21 -22 -33t-45 -12q-29 0 -43.5 12.5t-11.5 32.5l5 29q34 200 48 306q2 14 -0.5 25t-6.5 20.5t-6 13.5q-5 8 -5 18q-1 20 22.5 35.5t44.5 15.5t37 -25q8 -12 12.5 -29t3.5 -27l-2 -12q52 96 163 96q69 0 111 -43.5zM532 760.5q10 -10.5 10 -25.5q0 -11 -4.5 -20
t-14.5 -19l-15 -16q-58 -64 -91 -91t-70 -27q-26 0 -54 29.5t-61 77.5l-14 20q-10 12 -8 27q0 19 17 34.5t38 15.5q10 0 18.5 -5.5t18.5 -19.5l25 -34q14 -20 25 -34t16 -14t25 19.5t45 46.5l27 28q17 18 42 18q15 0 25 -10.5z" />
    <glyph glyph-name="napostrophe" unicode="&#x149;" horiz-adv-x="690" 
d="M604 466.5q42 -43.5 42 -122.5q0 -27 -10.5 -92.5t-24.5 -145.5l-11 -61q-4 -21 -22.5 -33t-45.5 -12q-28 0 -43 12.5t-12 32.5l22 129q10 59 17.5 105.5t7.5 63.5q0 37 -13 54t-42 17q-38 0 -67.5 -31.5t-54.5 -103.5q-16 -48 -25 -101l-4 -25q-10 -63 -19 -109
q-4 -21 -22 -33t-45 -12q-29 0 -43.5 12.5t-11.5 32.5l5 29q34 200 48 306q2 14 -0.5 25t-6.5 20.5t-6 13.5q-5 8 -5 18q-1 20 22.5 35.5t44.5 15.5t37 -25q8 -12 12.5 -29t3.5 -27l-2 -12q52 96 163 96q69 0 111 -43.5zM225.5 740q18.5 -17 18.5 -44q0 -39 -34.5 -84.5
t-84.5 -82.5q-15 -9 -25 -9q-15 0 -25.5 10t-10.5 23q0 8 3 13.5t11 13.5l16 14q4 4 14.5 13t17.5 17q-14 4 -23.5 17.5t-9.5 29.5q0 34 26 60t60 26q28 0 46.5 -17z" />
    <glyph glyph-name="Eng" unicode="&#x14a;" horiz-adv-x="753" 
d="M752 668q0 -5 -2 -19q-12 -78 -26 -154.5t-19 -101.5l-9 -46l-62 -350q-23 -133 -88 -194t-151 -61q-69 0 -108.5 34t-39.5 90q0 20 6 37q9 23 28 35t43 12t37 -11.5t12 -31.5q-2 -18 -2 -26q0 -22 10.5 -32.5t27.5 -10.5q34 0 59.5 43t39.5 117l3 18q-25 10 -48.5 40
t-50 82t-71.5 150l-79 175l-19 44l-15 -93l-15 -90q-24 -143 -47 -263q-4 -22 -24 -37t-46 -15t-41 16t-12 36q14 86 26 149q20 111 23 126q-2 -11 14 85q24 136 24 139q10 57 21 88t28 45t46 14q35 0 61 -24t55 -80.5t82 -179.5q75 -173 116 -252l34 179l56 311
q4 24 22 38.5t50 14.5q51 0 51 -46z" />
    <glyph glyph-name="eng" unicode="&#x14b;" horiz-adv-x="583" 
d="M478.5 457q44.5 -43 44.5 -127q0 -35 -7 -71q-8 -44 -11 -65l-10 -59q-17 -92 -39.5 -152.5t-68 -98.5t-123.5 -38q-26 0 -40 10.5t-14 28.5q0 6 1 9q4 23 19.5 35.5t42.5 12.5q35 0 55.5 41.5t36.5 136.5l6 34q12 74 17 102q7 36 7 66q0 45 -17 64t-49 19
q-24 0 -41 -11.5t-32.5 -41.5t-35.5 -87q-16 -49 -25 -100l-21 -126q-4 -22 -24 -36t-46 -14q-24 0 -38.5 11.5t-14.5 31.5l1 9l49 342q2 10 -3 22t-7 17q-4 8 -4 16q0 24 19.5 40t49.5 16q13 0 20 -4t12 -13.5t10 -22.5q6 -15 9 -30q52 76 141 76q86 0 130.5 -43z" />
    <glyph glyph-name="Omacron" unicode="&#x14c;" horiz-adv-x="805" 
d="M212.5 42.5q-70.5 35.5 -110 102.5t-39.5 157q0 109 50.5 202.5t140.5 148.5t201 55q94 0 167.5 -39.5t114.5 -111t41 -164.5q0 -110 -53 -198t-145 -138t-206 -50q-91 0 -161.5 35.5zM523 154.5q63 37.5 98 102t35 141.5q0 91 -52 145.5t-142 54.5q-79 0 -141.5 -42
t-97.5 -111t-35 -146q0 -92 53.5 -137t137.5 -45q81 0 144 37.5zM300 789.5q-8 9.5 -8 25.5q0 25 14.5 40t37.5 19q39 7 75.5 11t92.5 4l148 1q19 0 30.5 -12t9.5 -31q-1 -23 -16 -37.5t-40 -14.5l-38 1q-78 3 -95 3q-74 0 -164 -15l-23 -3q-16 -1 -24 8.5z" />
    <glyph glyph-name="omacron" unicode="&#x14d;" horiz-adv-x="602" 
d="M96.5 51.5q-67.5 53.5 -67.5 162.5q0 80 38.5 150t108 112t157.5 42q111 0 177.5 -61.5t66.5 -173.5q0 -80 -37 -145t-105 -102.5t-158 -37.5q-113 0 -180.5 53.5zM407 147q47 54 47 136q0 64 -31.5 101.5t-89.5 37.5q-53 0 -94.5 -30t-64 -78t-22.5 -100q0 -63 34.5 -92
t90.5 -29q83 0 130 54zM168 589.5q-8 9.5 -8 25.5q0 25 14.5 40t37.5 19q39 7 75.5 11t92.5 4l148 1q19 0 30.5 -12t9.5 -31q-1 -23 -16 -37.5t-40 -14.5l-38 1q-78 3 -95 3q-74 0 -164 -15l-23 -3q-16 -1 -24 8.5z" />
    <glyph glyph-name="Obreve" unicode="&#x14e;" horiz-adv-x="805" 
d="M212.5 42.5q-70.5 35.5 -110 102.5t-39.5 157q0 109 50.5 202.5t140.5 148.5t201 55q94 0 167.5 -39.5t114.5 -111t41 -164.5q0 -110 -53 -198t-145 -138t-206 -50q-91 0 -161.5 35.5zM523 154.5q63 37.5 98 102t35 141.5q0 91 -52 145.5t-142 54.5q-79 0 -141.5 -42
t-97.5 -111t-35 -146q0 -92 53.5 -137t137.5 -45q81 0 144 37.5zM417 771q-36 16 -56.5 44.5t-20.5 63.5q0 18 7 35q16 32 47 32q16 0 27 -7.5t11 -20.5v-13q1 -35 20 -53t52 -18q31 0 58.5 21.5t35.5 58.5q4 17 18.5 26t31.5 9t28 -11t10 -27q-2 -40 -29.5 -76t-71 -58
t-88.5 -22q-44 0 -80 16z" />
    <glyph glyph-name="obreve" unicode="&#x14f;" horiz-adv-x="602" 
d="M96.5 51.5q-67.5 53.5 -67.5 162.5q0 80 38.5 150t108 112t157.5 42q111 0 177.5 -61.5t66.5 -173.5q0 -80 -37 -145t-105 -102.5t-158 -37.5q-113 0 -180.5 53.5zM407 147q47 54 47 136q0 64 -31.5 101.5t-89.5 37.5q-53 0 -94.5 -30t-64 -78t-22.5 -100q0 -63 34.5 -92
t90.5 -29q83 0 130 54zM285 571q-36 16 -56.5 44.5t-20.5 63.5q0 18 7 35q16 32 47 32q16 0 27 -7.5t11 -20.5v-13q1 -35 20 -53t52 -18q31 0 58.5 21.5t35.5 58.5q4 17 18.5 26t31.5 9t28 -11t10 -27q-2 -40 -29.5 -76t-71 -58t-88.5 -22q-44 0 -80 16z" />
    <glyph glyph-name="Ohungarumlaut" unicode="&#x150;" horiz-adv-x="805" 
d="M212.5 42.5q-70.5 35.5 -110 102.5t-39.5 157q0 109 50.5 202.5t140.5 148.5t201 55q94 0 167.5 -39.5t114.5 -111t41 -164.5q0 -110 -53 -198t-145 -138t-206 -50q-91 0 -161.5 35.5zM523 154.5q63 37.5 98 102t35 141.5q0 91 -52 145.5t-142 54.5q-79 0 -141.5 -42
t-97.5 -111t-35 -146q0 -92 53.5 -137t137.5 -45q81 0 144 37.5zM326.5 762q-9.5 10 -9.5 24q0 22 25 49l88 85q16 15 29 22t26 7q16 0 26 -10t10 -27q0 -25 -29 -52l-95 -87q-22 -21 -45 -21q-16 0 -25.5 10zM531 762q-10 10 -10 24q0 24 25 49l87 85q30 29 56 29
q16 0 26 -10t10 -27q0 -26 -30 -52l-94 -86q-22 -22 -45 -22q-15 0 -25 10z" />
    <glyph glyph-name="ohungarumlaut" unicode="&#x151;" horiz-adv-x="602" 
d="M96.5 51.5q-67.5 53.5 -67.5 162.5q0 80 38.5 150t108 112t157.5 42q111 0 177.5 -61.5t66.5 -173.5q0 -80 -37 -145t-105 -102.5t-158 -37.5q-113 0 -180.5 53.5zM407 147q47 54 47 136q0 64 -31.5 101.5t-89.5 37.5q-53 0 -94.5 -30t-64 -78t-22.5 -100q0 -63 34.5 -92
t90.5 -29q83 0 130 54zM194.5 562q-9.5 10 -9.5 24q0 22 25 49l88 85q16 15 29 22t26 7q16 0 26 -10t10 -27q0 -25 -29 -52l-95 -87q-22 -21 -45 -21q-16 0 -25.5 10zM399 562q-10 10 -10 24q0 24 25 49l87 85q30 29 56 29q16 0 26 -10t10 -27q0 -26 -30 -52l-94 -86
q-22 -22 -45 -22q-15 0 -25 10z" />
    <glyph glyph-name="OE" unicode="&#x152;" horiz-adv-x="1005" 
d="M1038 655q0 -59 -57 -58q-39 3 -116 3q-47 0 -105 -2l-9 -60q-9 -55 -7 -46q-2 -13 -9 -51q-2 -8 -8 -39h136q28 0 41 -9t13 -30q0 -26 -16.5 -44t-43.5 -18q-95 0 -154 -1q-18 -92 -42 -197q33 -3 119 -3q38 1 72 5q5 0 16.5 1.5t23.5 1.5q22 0 30 -9t8 -27
q-1 -43 -44 -53q-32 -5 -125 -5h-42l-106 -1q-35 0 -59 1q-33 0 -45.5 7t-12.5 23q0 22 15.5 36.5t37.5 14.5l12 62q-36 -57 -107 -102t-157 -45q-111 0 -172.5 76.5t-61.5 209.5q0 112 46 207t126.5 151t178.5 56q64 0 113.5 -24t78.5 -64.5t35 -90.5l5 28l6 45
q-20 0 -20 30q0 24 13 39.5t41 16.5l23 1q105 5 169 5q63 0 138 -5q22 -1 22 -36zM462 160.5q55 48.5 85 121.5t30 144q0 86 -45.5 138.5t-117.5 52.5q-66 0 -119 -43t-83.5 -114t-30.5 -152q0 -99 44 -147.5t112 -48.5q70 0 125 48.5z" />
    <glyph glyph-name="oe" unicode="&#x153;" horiz-adv-x="1013" 
d="M874 492q50 -23 78.5 -63t28.5 -91q0 -16 -3 -34q-6 -38 -25.5 -55t-59.5 -18l-324 -8q-3 -12 -3 -23q0 -27 15 -51.5t44 -40t67 -15.5q49 0 82 18t72 52q27 23 45 23q15 0 26.5 -13.5t11.5 -29.5q0 -15 -10 -28q-89 -117 -224 -117q-70 0 -123.5 31t-77.5 83
q-36 -54 -93.5 -84t-130.5 -30q-71 0 -126 26.5t-85 74t-30 108.5q0 92 37.5 162.5t107 109t162.5 38.5q71 0 126 -34.5t76 -92.5q40 57 98 91t126 34q62 0 112 -23zM408 148q47 55 47 147q0 59 -32.5 93t-86.5 34q-55 0 -97 -30t-64.5 -79.5t-22.5 -105.5q0 -54 33.5 -84
t86.5 -30q89 0 136 55zM661.5 389q-45.5 -31 -67.5 -76l271 7q2 16 2 22q0 35 -30.5 56.5t-82.5 21.5q-47 0 -92.5 -31z" />
    <glyph glyph-name="Racute" unicode="&#x154;" horiz-adv-x="675" 
d="M623.5 373q-45.5 -50 -120.5 -74.5t-164 -24.5q-29 0 -62 5l271 -166q24 -14 24 -34q0 -27 -16 -48t-43 -21q-20 0 -46 15l-252 169l-26 -145q-5 -26 -23 -40.5t-46 -14.5q-27 0 -40 13t-13 35q0 10 1 15q16 90 30 174l21 121q16 95 27 169l-2 -1q-7 -3 -14 -3
q-13 0 -20 8.5t-7 28.5q0 26 8.5 44t32.5 30q12 6 20 9l1 8q4 27 24 42.5t50 15.5q53 0 50 -22v-1q76 19 119 19q82 0 141 -26t89.5 -72t30.5 -105q0 -73 -45.5 -123zM274 568l-5 -36l-22 -155q36 -7 98 -7q79 0 131.5 34.5t52.5 93.5q0 43 -34 67.5t-94 24.5
q-61 0 -127 -22zM365 770.5q-11 12.5 -11 28.5q0 23 27 44l99 79q22 17 33.5 24t23.5 7q17 0 28 -13t11 -30q0 -28 -31 -51l-107 -80q-16 -12 -25.5 -16.5t-20.5 -4.5q-16 0 -27 12.5z" />
    <glyph glyph-name="racute" unicode="&#x155;" horiz-adv-x="515" 
d="M460 482.5q37 -34.5 37 -98.5q0 -66 -47 -104.5t-120 -38.5q-28 0 -38 7.5t-10 24.5q0 21 10 32t32 15q33 5 52.5 19.5t19.5 44.5q0 19 -9.5 29.5t-28.5 10.5q-31 0 -62.5 -32t-54.5 -75.5t-33 -78.5q-15 -53 -35 -162q-9 -50 -24.5 -67.5t-48.5 -17.5q-29 0 -41.5 10.5
t-12.5 31.5q0 9 8.5 61.5t18.5 102.5l3 20q10 55 14.5 98t13.5 142l2 24q1 22 19.5 35.5t46.5 13.5q48 0 44 -44q-5 -49 -10 -82q28 51 69 82t89 31q59 0 96 -34.5zM261 570.5q-11 12.5 -11 28.5q0 23 27 44l99 79q22 17 33.5 24t23.5 7q17 0 28 -13t11 -30q0 -28 -31 -51
l-107 -80q-16 -12 -25.5 -16.5t-20.5 -4.5q-16 0 -27 12.5z" />
    <glyph glyph-name="uni0156" unicode="&#x156;" horiz-adv-x="675" 
d="M623.5 373q-45.5 -50 -120.5 -74.5t-164 -24.5q-29 0 -62 5l271 -166q24 -14 24 -34q0 -27 -16 -48t-43 -21q-20 0 -46 15l-252 169l-26 -145q-5 -26 -23 -40.5t-46 -14.5q-27 0 -40 13t-13 35q0 10 1 15q16 90 30 174l21 121q16 95 27 169l-2 -1q-7 -3 -14 -3
q-13 0 -20 8.5t-7 28.5q0 26 8.5 44t32.5 30q12 6 20 9l1 8q4 27 24 42.5t50 15.5q53 0 50 -22v-1q76 19 119 19q82 0 141 -26t89.5 -72t30.5 -105q0 -73 -45.5 -123zM274 568l-5 -36l-22 -155q36 -7 98 -7q79 0 131.5 34.5t52.5 93.5q0 43 -34 67.5t-94 24.5
q-61 0 -127 -22zM341 -82.5q17 -18.5 17 -45.5q0 -40 -35 -84t-85 -80q-13 -9 -30 -9q-12 0 -22 8t-10 21q0 17 10 27l17 16q25 21 38 35q-15 4 -24.5 18t-9.5 31q0 33 25.5 57t62.5 24q29 0 46 -18.5z" />
    <glyph glyph-name="uni0157" unicode="&#x157;" horiz-adv-x="515" 
d="M460 482.5q37 -34.5 37 -98.5q0 -66 -47 -104.5t-120 -38.5q-28 0 -38 7.5t-10 24.5q0 21 10 32t32 15q33 5 52.5 19.5t19.5 44.5q0 19 -9.5 29.5t-28.5 10.5q-31 0 -62.5 -32t-54.5 -75.5t-33 -78.5q-15 -53 -35 -162q-9 -50 -24.5 -67.5t-48.5 -17.5q-29 0 -41.5 10.5
t-12.5 31.5q0 9 8.5 61.5t18.5 102.5l3 20q10 55 14.5 98t13.5 142l2 24q1 22 19.5 35.5t46.5 13.5q48 0 44 -44q-5 -49 -10 -82q28 51 69 82t89 31q59 0 96 -34.5zM139 -82.5q17 -18.5 17 -45.5q0 -40 -35 -84t-85 -80q-13 -9 -30 -9q-12 0 -22 8t-10 21q0 17 10 27l17 16
q25 21 38 35q-15 4 -24.5 18t-9.5 31q0 33 25.5 57t62.5 24q29 0 46 -18.5z" />
    <glyph glyph-name="Rcaron" unicode="&#x158;" horiz-adv-x="675" 
d="M623.5 373q-45.5 -50 -120.5 -74.5t-164 -24.5q-29 0 -62 5l271 -166q24 -14 24 -34q0 -27 -16 -48t-43 -21q-20 0 -46 15l-252 169l-26 -145q-5 -26 -23 -40.5t-46 -14.5q-27 0 -40 13t-13 35q0 10 1 15q16 90 30 174l21 121q16 95 27 169l-2 -1q-7 -3 -14 -3
q-13 0 -20 8.5t-7 28.5q0 26 8.5 44t32.5 30q12 6 20 9l1 8q4 27 24 42.5t50 15.5q53 0 50 -22v-1q76 19 119 19q82 0 141 -26t89.5 -72t30.5 -105q0 -73 -45.5 -123zM274 568l-5 -36l-22 -155q36 -7 98 -7q79 0 131.5 34.5t52.5 93.5q0 43 -34 67.5t-94 24.5
q-61 0 -127 -22zM614 960.5q10 -10.5 10 -25.5q0 -11 -4.5 -20t-14.5 -19l-15 -16q-58 -64 -91 -91t-70 -27q-26 0 -54 29.5t-61 77.5l-14 20q-10 12 -8 27q0 19 17 34.5t38 15.5q10 0 18.5 -5.5t18.5 -19.5l25 -34q14 -20 25 -34t16 -14t25 19.5t45 46.5l27 28q17 18 42 18
q15 0 25 -10.5z" />
    <glyph glyph-name="rcaron" unicode="&#x159;" horiz-adv-x="515" 
d="M460 482.5q37 -34.5 37 -98.5q0 -66 -47 -104.5t-120 -38.5q-28 0 -38 7.5t-10 24.5q0 21 10 32t32 15q33 5 52.5 19.5t19.5 44.5q0 19 -9.5 29.5t-28.5 10.5q-31 0 -62.5 -32t-54.5 -75.5t-33 -78.5q-15 -53 -35 -162q-9 -50 -24.5 -67.5t-48.5 -17.5q-29 0 -41.5 10.5
t-12.5 31.5q0 9 8.5 61.5t18.5 102.5l3 20q10 55 14.5 98t13.5 142l2 24q1 22 19.5 35.5t46.5 13.5q48 0 44 -44q-5 -49 -10 -82q28 51 69 82t89 31q59 0 96 -34.5zM510 760.5q10 -10.5 10 -25.5q0 -11 -4.5 -20t-14.5 -19l-15 -16q-58 -64 -91 -91t-70 -27q-26 0 -54 29.5
t-61 77.5l-14 20q-10 12 -8 27q0 19 17 34.5t38 15.5q10 0 18.5 -5.5t18.5 -19.5l25 -34q14 -20 25 -34t16 -14t25 19.5t45 46.5l27 28q17 18 42 18q15 0 25 -10.5z" />
    <glyph glyph-name="Sacute" unicode="&#x15a;" horiz-adv-x="605" 
d="M165 24.5q-53 24.5 -81.5 69t-28.5 103.5q0 43 18 64t57 21q34 0 44 -14t10 -40q0 -56 23.5 -87t80.5 -31q54 0 91.5 25.5t37.5 67.5q0 27 -17 44t-40.5 27t-68.5 24q-75 24 -131.5 67.5t-56.5 124.5q0 62 36 112t96.5 78t131.5 28q64 0 114.5 -23.5t79.5 -65t29 -93.5
q0 -43 -18.5 -61t-56.5 -18q-32 0 -40.5 11.5t-8.5 38.5q0 46 -26 74t-75 28q-37 0 -69 -15.5t-50.5 -41t-18.5 -54.5q0 -21 11 -34t31.5 -21.5t64.5 -23.5l26 -9q76 -25 128.5 -67.5t52.5 -128.5q0 -63 -34 -109t-92 -70.5t-127 -24.5q-70 0 -123 24.5zM331 770.5
q-11 12.5 -11 28.5q0 23 27 44l99 79q22 17 33.5 24t23.5 7q17 0 28 -13t11 -30q0 -28 -31 -51l-107 -80q-16 -12 -25.5 -16.5t-20.5 -4.5q-16 0 -27 12.5z" />
    <glyph glyph-name="sacute" unicode="&#x15b;" horiz-adv-x="498" 
d="M130 12q-44 20 -71 50.5t-31 60.5q-1 11 0 18q7 18 25.5 29.5t40.5 11.5q12 0 18 -5.5t17 -21.5q46 -64 105 -64q32 0 53 15.5t21 41.5q0 21 -20.5 35.5t-64.5 33.5q-44 18 -72.5 35t-49 45t-20.5 70q0 47 26.5 83t72.5 55t103 19q54 0 95 -18.5t63 -50.5t22 -71
q0 -31 -15 -45.5t-50 -14.5q-45 0 -43 37q2 31 -13.5 47.5t-54.5 16.5q-41 0 -61.5 -16.5t-20.5 -41.5q0 -23 21 -37.5t67 -34.5q43 -18 71.5 -34.5t48.5 -44.5t20 -69q0 -51 -29 -86t-76 -52t-101 -17q-53 0 -97 20zM235.5 571q-9.5 10 -9.5 26q0 24 20 44l106 106
q16 16 29 22.5t28 6.5q18 0 28.5 -11t10.5 -28q0 -27 -33 -59l-105 -94q-15 -13 -25.5 -18t-23.5 -5q-16 0 -25.5 10z" />
    <glyph glyph-name="Scircumflex" unicode="&#x15c;" horiz-adv-x="605" 
d="M165 24.5q-53 24.5 -81.5 69t-28.5 103.5q0 43 18 64t57 21q34 0 44 -14t10 -40q0 -56 23.5 -87t80.5 -31q54 0 91.5 25.5t37.5 67.5q0 27 -17 44t-40.5 27t-68.5 24q-75 24 -131.5 67.5t-56.5 124.5q0 62 36 112t96.5 78t131.5 28q64 0 114.5 -23.5t79.5 -65t29 -93.5
q0 -43 -18.5 -61t-56.5 -18q-32 0 -40.5 11.5t-8.5 38.5q0 46 -26 74t-75 28q-37 0 -69 -15.5t-50.5 -41t-18.5 -54.5q0 -21 11 -34t31.5 -21.5t64.5 -23.5l26 -9q76 -25 128.5 -67.5t52.5 -128.5q0 -63 -34 -109t-92 -70.5t-127 -24.5q-70 0 -123 24.5zM483 773l-28 45
q-12 20 -21.5 34.5t-13.5 14.5t-15.5 -9.5t-23 -20.5t-20.5 -19l-36 -34q-16 -13 -26.5 -19t-20.5 -6q-16 0 -27.5 11t-11.5 27q0 9 5 20t15 20q18 16 31 29q51 46 84.5 71.5t57.5 25.5q28 0 45.5 -17t44.5 -58q21 -34 40 -58q8 -12 8 -23q0 -21 -15.5 -37t-36.5 -16
q-25 0 -35 19z" />
    <glyph glyph-name="scircumflex" unicode="&#x15d;" horiz-adv-x="498" 
d="M130 12q-44 20 -71 50.5t-31 60.5q-1 11 0 18q7 18 25.5 29.5t40.5 11.5q12 0 18 -5.5t17 -21.5q46 -64 105 -64q32 0 53 15.5t21 41.5q0 21 -20.5 35.5t-64.5 33.5q-44 18 -72.5 35t-49 45t-20.5 70q0 47 26.5 83t72.5 55t103 19q54 0 95 -18.5t63 -50.5t22 -71
q0 -31 -15 -45.5t-50 -14.5q-45 0 -43 37q2 31 -13.5 47.5t-54.5 16.5q-41 0 -61.5 -16.5t-20.5 -41.5q0 -23 21 -37.5t67 -34.5q43 -18 71.5 -34.5t48.5 -44.5t20 -69q0 -51 -29 -86t-76 -52t-101 -17q-53 0 -97 20zM392 573l-28 45q-12 20 -21.5 34.5t-13.5 14.5
t-15.5 -9.5t-23 -20.5t-20.5 -19l-36 -34q-16 -13 -26.5 -19t-20.5 -6q-16 0 -27.5 11t-11.5 27q0 9 5 20t15 20q18 16 31 29q51 46 84.5 71.5t57.5 25.5q28 0 45.5 -17t44.5 -58q21 -34 40 -58q8 -12 8 -23q0 -21 -15.5 -37t-36.5 -16q-25 0 -35 19z" />
    <glyph glyph-name="Scedilla" unicode="&#x15e;" horiz-adv-x="605" 
d="M296 583.5q-32 -15.5 -50.5 -41t-18.5 -54.5q0 -21 11 -34t31.5 -21.5t64.5 -23.5l26 -9q76 -25 128.5 -67.5t52.5 -128.5q0 -80 -54 -132t-139 -67l-51 -61q28 -7 49.5 -24t21.5 -47q0 -46 -40 -73t-100 -27q-20 0 -41.5 4t-35.5 11q-25 10 -25 28q0 17 11.5 29t29.5 12
q5 0 27 -6q3 -1 18 -5t28 -4q52 0 52 26q0 11 -13 17t-42 11q-33 6 -33 32q0 6 6 20l44 54q-91 8 -145 61t-54 134q0 43 18 64t57 21q34 0 44 -14t10 -40q0 -56 23.5 -87t80.5 -31q54 0 91.5 25.5t37.5 67.5q0 27 -17 44t-40.5 27t-68.5 24q-75 24 -131.5 67.5t-56.5 124.5
q0 62 36 112t96.5 78t131.5 28q64 0 114.5 -23.5t79.5 -65t29 -93.5q0 -43 -18.5 -61t-56.5 -18q-32 0 -40.5 11.5t-8.5 38.5q0 46 -26 74t-75 28q-37 0 -69 -15.5z" />
    <glyph glyph-name="scedilla" unicode="&#x15f;" horiz-adv-x="498" 
d="M378 505.5q41 -18.5 63 -50.5t22 -71q0 -31 -15 -45.5t-50 -14.5q-45 0 -43 37q2 31 -13.5 47.5t-54.5 16.5q-41 0 -61.5 -16.5t-20.5 -41.5q0 -23 21 -37.5t67 -34.5q43 -18 71.5 -34.5t48.5 -44.5t20 -69q0 -72 -55.5 -111.5t-134.5 -43.5l-40 -52q39 -11 62.5 -33.5
t23.5 -53.5q0 -56 -44.5 -86.5t-112.5 -30.5q-20 0 -47.5 5t-42.5 11q-24 8 -24 37q0 20 10 31t26 11q7 0 11 -1q16 -3 25 -7q5 -1 20.5 -5t30.5 -4q55 0 55 38q0 30 -67 35q-12 1 -20 9.5t-8 20.5q0 13 11 25l47 59q-55 16 -91 51t-40 71q-1 11 0 18q7 18 25.5 29.5
t40.5 11.5q12 0 18 -5.5t17 -21.5q46 -64 105 -64q32 0 53 15.5t21 41.5q0 21 -20.5 35.5t-64.5 33.5q-44 18 -72.5 35t-49 45t-20.5 70q0 47 26.5 83t72.5 55t103 19q54 0 95 -18.5z" />
    <glyph glyph-name="Scaron" unicode="&#x160;" horiz-adv-x="605" 
d="M165 24.5q-53 24.5 -81.5 69t-28.5 103.5q0 43 18 64t57 21q34 0 44 -14t10 -40q0 -56 23.5 -87t80.5 -31q54 0 91.5 25.5t37.5 67.5q0 27 -17 44t-40.5 27t-68.5 24q-75 24 -131.5 67.5t-56.5 124.5q0 62 36 112t96.5 78t131.5 28q64 0 114.5 -23.5t79.5 -65t29 -93.5
q0 -43 -18.5 -61t-56.5 -18q-32 0 -40.5 11.5t-8.5 38.5q0 46 -26 74t-75 28q-37 0 -69 -15.5t-50.5 -41t-18.5 -54.5q0 -21 11 -34t31.5 -21.5t64.5 -23.5l26 -9q76 -25 128.5 -67.5t52.5 -128.5q0 -63 -34 -109t-92 -70.5t-127 -24.5q-70 0 -123 24.5zM580 960.5
q10 -10.5 10 -25.5q0 -11 -4.5 -20t-14.5 -19l-15 -16q-58 -64 -91 -91t-70 -27q-26 0 -54 29.5t-61 77.5l-14 20q-10 12 -8 27q0 19 17 34.5t38 15.5q10 0 18.5 -5.5t18.5 -19.5l25 -34q14 -20 25 -34t16 -14t25 19.5t45 46.5l27 28q17 18 42 18q15 0 25 -10.5z" />
    <glyph glyph-name="scaron" unicode="&#x161;" horiz-adv-x="498" 
d="M130 12q-44 20 -71 50.5t-31 60.5q-1 11 0 18q7 18 25.5 29.5t40.5 11.5q12 0 18 -5.5t17 -21.5q46 -64 105 -64q32 0 53 15.5t21 41.5q0 21 -20.5 35.5t-64.5 33.5q-44 18 -72.5 35t-49 45t-20.5 70q0 47 26.5 83t72.5 55t103 19q54 0 95 -18.5t63 -50.5t22 -71
q0 -31 -15 -45.5t-50 -14.5q-45 0 -43 37q2 31 -13.5 47.5t-54.5 16.5q-41 0 -61.5 -16.5t-20.5 -41.5q0 -23 21 -37.5t67 -34.5q43 -18 71.5 -34.5t48.5 -44.5t20 -69q0 -51 -29 -86t-76 -52t-101 -17q-53 0 -97 20zM489 760.5q10 -10.5 10 -25.5q0 -11 -4.5 -20t-14.5 -19
l-15 -16q-58 -64 -91 -91t-70 -27q-26 0 -54 29.5t-61 77.5l-14 20q-10 12 -8 27q0 19 17 34.5t38 15.5q10 0 18.5 -5.5t18.5 -19.5l25 -34q14 -20 25 -34t16 -14t25 19.5t45 46.5l27 28q17 18 42 18q15 0 25 -10.5z" />
    <glyph glyph-name="uni0162" unicode="&#x162;" horiz-adv-x="580" 
d="M607 679q12 -9 12 -32q0 -31 -20 -50.5t-53 -16.5q-43 3 -132 5q-30 -119 -56 -247q-25 -122 -55 -290q-4 -21 -12 -33.5t-23 -18.5l-44 -52q29 -7 50.5 -24t21.5 -47q0 -46 -40.5 -73t-100.5 -27q-20 0 -41.5 4t-35.5 11q-25 10 -25 28q0 17 12 29t30 12q4 0 26 -6
q32 -9 46 -9q52 0 52 26q0 11 -12.5 17t-42.5 11q-32 6 -32 32q0 8 5 20l46 57q-10 12 -10 30q0 5 2 17q33 161 60 286q39 178 56 247q-64 -1 -145 -9q-21 -2 -33 11t-12 37q0 53 59 62q36 5 99.5 8t123.5 3q46 0 105 -1.5t85 -4.5q22 -3 34 -12z" />
    <glyph glyph-name="uni0163" unicode="&#x163;" horiz-adv-x="443" 
d="M255 -2l-44 -58q39 -11 62.5 -33.5t23.5 -53.5q0 -56 -44.5 -86.5t-112.5 -30.5q-21 0 -48 5t-42 11q-24 8 -24 37q0 20 10 31t26 11q7 0 11 -1q16 -3 25 -7q5 -1 20.5 -5t30.5 -4q55 0 55 38q0 30 -67 35q-12 1 -20 9.5t-8 20.5q0 13 11 25l57 73q-34 17 -53.5 53.5
t-19.5 89.5q0 78 31 212l-37 2q-41 2 -41 36q0 28 15 43t44 15q13 0 43 -2q30 105 50 163q7 20 24 31.5t43 11.5q24 0 39 -11.5t15 -28.5q0 -6 -3 -14q-27 -81 -49 -158q18 -1 55 -1q23 -1 32.5 -8.5t9.5 -23.5q0 -30 -15 -44t-48 -14h-58q-34 -138 -34 -215q0 -57 29 -57
q36 0 40 49q6 43 55 43q46 0 46 -35q0 -61 -36.5 -105t-97.5 -48z" />
    <glyph glyph-name="Tcaron" unicode="&#x164;" horiz-adv-x="580" 
d="M607 679q12 -9 12 -32q0 -31 -20 -50.5t-53 -16.5q-43 3 -132 5q-30 -119 -56 -247q-25 -122 -55 -290q-5 -31 -21 -44.5t-52 -13.5q-57 0 -57 45q0 5 2 17q33 161 60 286q39 178 56 247q-64 -1 -145 -9q-21 -2 -33 11t-12 37q0 53 59 62q36 5 99.5 8t123.5 3
q46 0 105 -1.5t85 -4.5q22 -3 34 -12zM549 960.5q10 -10.5 10 -25.5q0 -11 -4.5 -20t-14.5 -19l-15 -16q-58 -64 -91 -91t-70 -27q-26 0 -54 29.5t-61 77.5l-14 20q-10 12 -8 27q0 19 17 34.5t38 15.5q10 0 18.5 -5.5t18.5 -19.5l25 -34q14 -20 25 -34t16 -14t25 19.5
t45 46.5l27 28q17 18 42 18q15 0 25 -10.5z" />
    <glyph glyph-name="tcaron" unicode="&#x165;" horiz-adv-x="520" 
d="M390 152q0 -41 -17.5 -76t-50 -56t-76.5 -21q-62 0 -102 41t-40 118q0 78 31 212l-37 2q-41 2 -41 36q0 28 15 43t44 15q13 0 43 -2q30 105 50 163q7 20 24 31.5t43 11.5q24 0 39 -11.5t15 -28.5q0 -6 -3 -14q-27 -81 -49 -158q18 -1 55 -1q23 -1 32.5 -8.5t9.5 -23.5
q0 -30 -15 -44t-48 -14h-58q-34 -138 -34 -215q0 -57 29 -57q36 0 40 49q6 43 55 43q46 0 46 -35zM560.5 669q18.5 -17 18.5 -44q0 -39 -34.5 -84.5t-84.5 -82.5q-15 -9 -25 -9q-15 0 -25.5 10t-10.5 23q0 8 3 13.5t11 13.5l16 14q4 4 14.5 13t17.5 17q-14 4 -23.5 17.5
t-9.5 29.5q0 34 26 60t60 26q28 0 46.5 -17z" />
    <glyph glyph-name="Tbar" unicode="&#x166;" horiz-adv-x="580" 
d="M607 679q12 -9 12 -32q0 -31 -20 -50.5t-53 -16.5q-43 3 -132 5q-24 -90 -37 -157l77 -2q41 -2 41 -36q0 -26 -16.5 -42t-41.5 -16l-80 3q-22 -111 -54 -287q-5 -31 -21 -44.5t-52 -13.5q-57 0 -57 45q0 5 2 17q33 161 60 286v1l-79 3q-17 1 -28 11.5t-11 26.5
q0 22 17 38.5t40 15.5l82 -2l35 153q-64 -1 -145 -9q-21 -2 -33 11t-12 37q0 53 59 62q36 5 99.5 8t123.5 3q46 0 105 -1.5t85 -4.5q22 -3 34 -12z" />
    <glyph glyph-name="tbar" unicode="&#x167;" horiz-adv-x="457" 
d="M394.5 180.5q9.5 -8.5 9.5 -31.5q0 -35 -19 -69.5t-53.5 -56.5t-77.5 -22q-61 0 -97.5 45t-36.5 122q0 33 6 76l-37 1q-23 1 -32.5 9t-9.5 25q0 54 64 52l29 -1l20 93l-53 3q-24 1 -33 7t-9 23q0 22 15 35t41 13q15 0 32.5 -1.5t25.5 -2.5q34 131 58 187q8 19 22 31
t43 12q47 0 47 -35q0 -8 -3 -19q-35 -112 -53 -180q14 -1 50 -1q23 -1 31.5 -8.5t8.5 -23.5q0 -26 -16.5 -35.5t-51.5 -9.5q-24 0 -43 1q-12 -50 -21 -94l73 -3q22 -1 31 -8.5t9 -24.5q0 -28 -16.5 -39.5t-44.5 -9.5l-67 2q-5 -45 -5 -73q0 -35 8 -53t27 -18q14 0 23 11.5
t15 38.5q5 22 18 31.5t38 9.5t34.5 -8.5z" />
    <glyph glyph-name="Utilde" unicode="&#x168;" horiz-adv-x="692" 
d="M675 697q14 -12 14 -32q0 -7 -1 -11q-16 -88 -26 -156q-2 -12 -11 -65l-63 -373q-6 -35 -21.5 -49t-46.5 -14q-57 0 -57 44q0 8 1 12l6 36q-31 -40 -77.5 -64t-102.5 -24q-105 0 -161.5 58t-56.5 150q0 45 16.5 136t61.5 307q5 23 22.5 37t48.5 14q51 0 51 -36
q0 -5 -2 -17q-43 -205 -59 -300.5t-16 -133.5q0 -48 27 -76t72 -28t91.5 28.5t80.5 76t44 102.5q26 151 57 335q9 55 67 55q27 0 41 -12zM275 780q-10 11 -10 26q0 21 18 39q32 32 57 45.5t54 13.5q23 0 47 -6.5t44 -17.5q16 -10 26.5 -15t16.5 -5q9 0 20 11q12 11 21 16
t19 5q16 0 27.5 -12t11.5 -29q0 -21 -20 -39q-50 -43 -96 -43q-19 0 -35 6t-28 13t-17 9q-33 19 -46 19q-6 0 -14.5 -6.5t-15 -12t-9.5 -8.5q-23 -20 -44 -20q-17 0 -27 11z" />
    <glyph glyph-name="utilde" unicode="&#x169;" horiz-adv-x="564" 
d="M457 106q-1 -15 3.5 -27t5.5 -14q7 -12 7 -21q0 -14 -19 -30t-37 -16q-23 0 -44 21.5t-20 51.5v1q-54 -73 -154 -73q-72 0 -109 42.5t-37 117.5q0 24 10.5 90t18.5 109t11 61l8 42q4 19 23 31.5t44 12.5q26 0 42 -12.5t12 -31.5l-15 -86q-31 -165 -31 -202q0 -79 56 -79
q49 0 80 45t48 142q14 73 32 179q4 24 23 37t46 13t42 -14.5t12 -35.5l-54 -315zM165 580q-10 11 -10 26q0 21 18 39q32 32 57 45.5t54 13.5q23 0 47 -6.5t44 -17.5q16 -10 26.5 -15t16.5 -5q9 0 20 11q12 11 21 16t19 5q16 0 27.5 -12t11.5 -29q0 -21 -20 -39
q-50 -43 -96 -43q-19 0 -35 6t-28 13t-17 9q-33 19 -46 19q-6 0 -14.5 -6.5t-15 -12t-9.5 -8.5q-23 -20 -44 -20q-17 0 -27 11z" />
    <glyph glyph-name="Umacron" unicode="&#x16a;" horiz-adv-x="692" 
d="M675 697q14 -12 14 -32q0 -7 -1 -11q-16 -88 -26 -156q-2 -12 -11 -65l-63 -373q-6 -35 -21.5 -49t-46.5 -14q-57 0 -57 44q0 8 1 12l6 36q-31 -40 -77.5 -64t-102.5 -24q-105 0 -161.5 58t-56.5 150q0 45 16.5 136t61.5 307q5 23 22.5 37t48.5 14q51 0 51 -36
q0 -5 -2 -17q-43 -205 -59 -300.5t-16 -133.5q0 -48 27 -76t72 -28t91.5 28.5t80.5 76t44 102.5q26 151 57 335q9 55 67 55q27 0 41 -12zM244 789.5q-8 9.5 -8 25.5q0 25 14.5 40t37.5 19q39 7 75.5 11t92.5 4l148 1q19 0 30.5 -12t9.5 -31q-1 -23 -16 -37.5t-40 -14.5
l-38 1q-78 3 -95 3q-74 0 -164 -15l-23 -3q-16 -1 -24 8.5z" />
    <glyph glyph-name="umacron" unicode="&#x16b;" horiz-adv-x="564" 
d="M457 106q-1 -15 3.5 -27t5.5 -14q7 -12 7 -21q0 -14 -19 -30t-37 -16q-23 0 -44 21.5t-20 51.5v1q-54 -73 -154 -73q-72 0 -109 42.5t-37 117.5q0 24 10.5 90t18.5 109t11 61l8 42q4 19 23 31.5t44 12.5q26 0 42 -12.5t12 -31.5l-15 -86q-31 -165 -31 -202q0 -79 56 -79
q49 0 80 45t48 142q14 73 32 179q4 24 23 37t46 13t42 -14.5t12 -35.5l-54 -315zM134 589.5q-8 9.5 -8 25.5q0 25 14.5 40t37.5 19q39 7 75.5 11t92.5 4l148 1q19 0 30.5 -12t9.5 -31q-1 -23 -16 -37.5t-40 -14.5l-38 1q-78 3 -95 3q-74 0 -164 -15l-23 -3q-16 -1 -24 8.5z
" />
    <glyph glyph-name="Ubreve" unicode="&#x16c;" horiz-adv-x="692" 
d="M675 697q14 -12 14 -32q0 -7 -1 -11q-16 -88 -26 -156q-2 -12 -11 -65l-63 -373q-6 -35 -21.5 -49t-46.5 -14q-57 0 -57 44q0 8 1 12l6 36q-31 -40 -77.5 -64t-102.5 -24q-105 0 -161.5 58t-56.5 150q0 45 16.5 136t61.5 307q5 23 22.5 37t48.5 14q51 0 51 -36
q0 -5 -2 -17q-43 -205 -59 -300.5t-16 -133.5q0 -48 27 -76t72 -28t91.5 28.5t80.5 76t44 102.5q26 151 57 335q9 55 67 55q27 0 41 -12zM361 771q-36 16 -56.5 44.5t-20.5 63.5q0 18 7 35q16 32 47 32q16 0 27 -7.5t11 -20.5v-13q1 -35 20 -53t52 -18q31 0 58.5 21.5
t35.5 58.5q4 17 18.5 26t31.5 9t28 -11t10 -27q-2 -40 -29.5 -76t-71 -58t-88.5 -22q-44 0 -80 16z" />
    <glyph glyph-name="ubreve" unicode="&#x16d;" horiz-adv-x="564" 
d="M457 106q-1 -15 3.5 -27t5.5 -14q7 -12 7 -21q0 -14 -19 -30t-37 -16q-23 0 -44 21.5t-20 51.5v1q-54 -73 -154 -73q-72 0 -109 42.5t-37 117.5q0 24 10.5 90t18.5 109t11 61l8 42q4 19 23 31.5t44 12.5q26 0 42 -12.5t12 -31.5l-15 -86q-31 -165 -31 -202q0 -79 56 -79
q49 0 80 45t48 142q14 73 32 179q4 24 23 37t46 13t42 -14.5t12 -35.5l-54 -315zM251 571q-36 16 -56.5 44.5t-20.5 63.5q0 18 7 35q16 32 47 32q16 0 27 -7.5t11 -20.5v-13q1 -35 20 -53t52 -18q31 0 58.5 21.5t35.5 58.5q4 17 18.5 26t31.5 9t28 -11t10 -27
q-2 -40 -29.5 -76t-71 -58t-88.5 -22q-44 0 -80 16z" />
    <glyph glyph-name="Uring" unicode="&#x16e;" horiz-adv-x="692" 
d="M675 697q14 -12 14 -32q0 -7 -1 -11q-16 -88 -26 -156q-2 -12 -11 -65l-63 -373q-6 -35 -21.5 -49t-46.5 -14q-57 0 -57 44q0 8 1 12l6 36q-31 -40 -77.5 -64t-102.5 -24q-105 0 -161.5 58t-56.5 150q0 45 16.5 136t61.5 307q5 23 22.5 37t48.5 14q51 0 51 -36
q0 -5 -2 -17q-43 -205 -59 -300.5t-16 -133.5q0 -48 27 -76t72 -28t91.5 28.5t80.5 76t44 102.5q26 151 57 335q9 55 67 55q27 0 41 -12zM358.5 768.5q-31.5 31.5 -31.5 76.5q0 37 20 69t54 51t73 19q45 0 75 -31.5t30 -74.5q0 -38 -19 -70.5t-52 -51.5t-72 -19
q-46 0 -77.5 31.5zM485 827.5q17 15.5 19 38.5q2 17 -9.5 30.5t-32.5 13.5q-24 0 -41.5 -17t-17.5 -39q0 -19 11.5 -30.5t30.5 -11.5q23 0 40 15.5z" />
    <glyph glyph-name="uring" unicode="&#x16f;" horiz-adv-x="564" 
d="M457 106q-1 -15 3.5 -27t5.5 -14q7 -12 7 -21q0 -14 -19 -30t-37 -16q-23 0 -44 21.5t-20 51.5v1q-54 -73 -154 -73q-72 0 -109 42.5t-37 117.5q0 24 10.5 90t18.5 109t11 61l8 42q4 19 23 31.5t44 12.5q26 0 42 -12.5t12 -31.5l-15 -86q-31 -165 -31 -202q0 -79 56 -79
q49 0 80 45t48 142q14 73 32 179q4 24 23 37t46 13t42 -14.5t12 -35.5l-54 -315zM248.5 568.5q-31.5 31.5 -31.5 76.5q0 37 20 69t54 51t73 19q45 0 75 -31.5t30 -74.5q0 -38 -19 -70.5t-52 -51.5t-72 -19q-46 0 -77.5 31.5zM375 627.5q17 15.5 19 38.5q2 17 -9.5 30.5
t-32.5 13.5q-24 0 -41.5 -17t-17.5 -39q0 -19 11.5 -30.5t30.5 -11.5q23 0 40 15.5z" />
    <glyph glyph-name="Uhungarumlaut" unicode="&#x170;" horiz-adv-x="692" 
d="M675 697q14 -12 14 -32q0 -7 -1 -11q-16 -88 -26 -156q-2 -12 -11 -65l-63 -373q-6 -35 -21.5 -49t-46.5 -14q-57 0 -57 44q0 8 1 12l6 36q-31 -40 -77.5 -64t-102.5 -24q-105 0 -161.5 58t-56.5 150q0 45 16.5 136t61.5 307q5 23 22.5 37t48.5 14q51 0 51 -36
q0 -5 -2 -17q-43 -205 -59 -300.5t-16 -133.5q0 -48 27 -76t72 -28t91.5 28.5t80.5 76t44 102.5q26 151 57 335q9 55 67 55q27 0 41 -12zM270.5 762q-9.5 10 -9.5 24q0 22 25 49l88 85q16 15 29 22t26 7q16 0 26 -10t10 -27q0 -25 -29 -52l-95 -87q-22 -21 -45 -21
q-16 0 -25.5 10zM475 762q-10 10 -10 24q0 24 25 49l87 85q30 29 56 29q16 0 26 -10t10 -27q0 -26 -30 -52l-94 -86q-22 -22 -45 -22q-15 0 -25 10z" />
    <glyph glyph-name="uhungarumlaut" unicode="&#x171;" horiz-adv-x="564" 
d="M457 106q-1 -15 3.5 -27t5.5 -14q7 -12 7 -21q0 -14 -19 -30t-37 -16q-23 0 -44 21.5t-20 51.5v1q-54 -73 -154 -73q-72 0 -109 42.5t-37 117.5q0 24 10.5 90t18.5 109t11 61l8 42q4 19 23 31.5t44 12.5q26 0 42 -12.5t12 -31.5l-15 -86q-31 -165 -31 -202q0 -79 56 -79
q49 0 80 45t48 142q14 73 32 179q4 24 23 37t46 13t42 -14.5t12 -35.5l-54 -315zM160.5 562q-9.5 10 -9.5 24q0 22 25 49l88 85q16 15 29 22t26 7q16 0 26 -10t10 -27q0 -25 -29 -52l-95 -87q-22 -21 -45 -21q-16 0 -25.5 10zM365 562q-10 10 -10 24q0 24 25 49l87 85
q30 29 56 29q16 0 26 -10t10 -27q0 -26 -30 -52l-94 -86q-22 -22 -45 -22q-15 0 -25 10z" />
    <glyph glyph-name="Uogonek" unicode="&#x172;" horiz-adv-x="692" 
d="M675 697q14 -12 14 -32q0 -7 -1 -11q-16 -88 -26 -156q-2 -12 -11 -65l-63 -373q-4 -24 -12.5 -37.5t-22.5 -20.5q-28 -19 -43.5 -36t-15.5 -34q0 -20 31 -20q5 0 21 4q14 4 20 4q9 0 14.5 -6t5.5 -18q0 -30 -20 -46t-56 -16q-45 0 -73.5 24.5t-28.5 62.5q0 55 57 105
q-2 10 -2 15l1 12l6 36q-31 -40 -77.5 -64t-102.5 -24q-105 0 -161.5 58t-56.5 150q0 45 16.5 136t61.5 307q5 23 22.5 37t48.5 14q51 0 51 -36q0 -5 -2 -17q-43 -205 -59 -300.5t-16 -133.5q0 -48 27 -76t72 -28t91.5 28.5t80.5 76t44 102.5q26 151 57 335q9 55 67 55
q27 0 41 -12z" />
    <glyph glyph-name="uogonek" unicode="&#x173;" horiz-adv-x="564" 
d="M457 106q-1 -17 9 -39q5 -6 6 -15q1 -3 1 -8q0 -10 -9.5 -21t-22.5 -18q-27 -19 -42 -35.5t-15 -33.5q0 -19 31 -19q5 0 21 4q14 4 20 4q9 0 14.5 -6.5t5.5 -18.5q0 -29 -20 -45t-56 -16q-45 0 -73.5 24.5t-28.5 62.5q0 31 16 57t47 52q-9 20 -8 36v1q-54 -73 -154 -73
q-72 0 -109 42.5t-37 117.5q0 24 10.5 90t18.5 109t11 61l8 42q4 19 23 31.5t44 12.5q26 0 42 -12.5t12 -31.5l-15 -86q-31 -165 -31 -202q0 -79 56 -79q49 0 80 45t48 142q14 73 32 179q4 24 23 37t46 13t42 -14.5t12 -35.5l-54 -315z" />
    <glyph glyph-name="Wcircumflex" unicode="&#x174;" horiz-adv-x="861" 
d="M188 15q-20 14 -21 36q-4 42 -7 110q-4 119 -15 217q-9 86 -25 252l-1 12q1 28 24.5 45.5t55.5 17.5q21 0 33 -9t13 -31q1 -23 4 -53.5t5 -47.5q1 -11 6 -59.5t7 -99.5q2 -29 4 -99q1 -50 3.5 -91t6.5 -41q3 0 14 18.5t25 44.5q11 20 43 77q4 8 26.5 46.5t41 55.5
t35.5 17q24 0 37 -27.5t31 -96.5q4 -17 5 -23q10 -43 19.5 -77t14.5 -34q3 0 18 39t32 87l37 103l11 29q42 109 92 232q17 39 64 39q27 0 43 -13.5t16 -35.5q0 -8 -7 -22q-37 -83 -75 -180l-30 -74q-27 -67 -73 -189q-10 -25 -22.5 -58.5t-28.5 -74.5q-11 -26 -33 -40
t-53 -14q-33 0 -53.5 22t-38.5 75q-4 10 -19 66q-6 23 -11.5 41t-8.5 18q-4 0 -18.5 -26t-17.5 -32q-31 -55 -41 -71q-33 -52 -61 -73.5t-58 -21.5q-29 0 -49 14zM610 773l-28 45q-12 20 -21.5 34.5t-13.5 14.5t-15.5 -9.5t-23 -20.5t-20.5 -19l-36 -34q-16 -13 -26.5 -19
t-20.5 -6q-16 0 -27.5 11t-11.5 27q0 9 5 20t15 20q18 16 31 29q51 46 84.5 71.5t57.5 25.5q28 0 45.5 -17t44.5 -58q21 -34 40 -58q8 -12 8 -23q0 -21 -15.5 -37t-36.5 -16q-25 0 -35 19z" />
    <glyph glyph-name="wcircumflex" unicode="&#x175;" horiz-adv-x="772" 
d="M120.5 96.5q-25.5 95.5 -25.5 219.5q0 95 8 141q6 36 24 50t46 14q56 0 53 -46l-4 -47q-7 -72 -7 -115q0 -60 6 -116.5t16 -56.5q5 0 18.5 28t40.5 91l51 115q14 31 31 46t41 15t36.5 -14.5t16.5 -46.5l6 -47q10 -89 19 -137.5t20 -48.5q7 0 19 28t32 88q26 77 38 118.5
t25 97.5q11 48 68 48q51 0 51 -43q0 -39 -31.5 -136.5t-61.5 -166.5q-76 -174 -157 -174q-51 0 -78 73t-29 207q-43 -137 -87.5 -208.5t-95.5 -71.5q-64 0 -89.5 95.5zM528 573l-28 45q-12 20 -21.5 34.5t-13.5 14.5t-15.5 -9.5t-23 -20.5t-20.5 -19l-36 -34
q-16 -13 -26.5 -19t-20.5 -6q-16 0 -27.5 11t-11.5 27q0 9 5 20t15 20q18 16 31 29q51 46 84.5 71.5t57.5 25.5q28 0 45.5 -17t44.5 -58q21 -34 40 -58q8 -12 8 -23q0 -21 -15.5 -37t-36.5 -16q-25 0 -35 19z" />
    <glyph glyph-name="Ycircumflex" unicode="&#x176;" horiz-adv-x="655" 
d="M250 14q-14 12 -14 32q0 9 1 13l46 272q-18 3 -46.5 40t-46.5 77q-47 101 -64 186q-1 4 -1 12q0 26 25 40.5t57 14.5q21 0 33 -11t19 -35q23 -92 48 -153q34 -79 53 -79q12 0 35.5 23.5t47.5 56.5q26 34 53 75.5t32 49.5l20 31q4 5 12 17t17 17.5t23 5.5q29 0 50 -17
t21 -39q0 -12 -8 -25q-17 -34 -54.5 -87.5t-66.5 -90.5q-35 -43 -77.5 -75t-59.5 -34l-44 -269q-5 -28 -23.5 -44t-48.5 -16q-25 0 -39 12zM501 773l-28 45q-12 20 -21.5 34.5t-13.5 14.5t-15.5 -9.5t-23 -20.5t-20.5 -19l-36 -34q-16 -13 -26.5 -19t-20.5 -6
q-16 0 -27.5 11t-11.5 27q0 9 5 20t15 20q18 16 31 29q51 46 84.5 71.5t57.5 25.5q28 0 45.5 -17t44.5 -58q21 -34 40 -58q8 -12 8 -23q0 -21 -15.5 -37t-36.5 -16q-25 0 -35 19z" />
    <glyph glyph-name="ycircumflex" unicode="&#x177;" horiz-adv-x="535" 
d="M99 -248.5q-15 13.5 -14 33.5q0 15 8 29q25 41 63.5 113t50.5 94l21 40q-41 38 -75 104.5t-54 142t-20 138.5q0 10 1 17q2 21 20.5 34t45.5 13q24 0 32 -9.5t9 -28.5q6 -118 32 -198t58 -117q37 78 113 252l29 67q8 20 20.5 28t34.5 8q29 0 44.5 -12.5t13.5 -33.5
q0 -6 -3 -11q-87 -203 -172 -375q-119 -240 -159 -305q-11 -18 -23.5 -27.5t-34.5 -9.5q-26 0 -41 13.5zM408 573l-28 45q-12 20 -21.5 34.5t-13.5 14.5t-15.5 -9.5t-23 -20.5t-20.5 -19l-36 -34q-16 -13 -26.5 -19t-20.5 -6q-16 0 -27.5 11t-11.5 27q0 9 5 20t15 20
q18 16 31 29q51 46 84.5 71.5t57.5 25.5q28 0 45.5 -17t44.5 -58q21 -34 40 -58q8 -12 8 -23q0 -21 -15.5 -37t-36.5 -16q-25 0 -35 19z" />
    <glyph glyph-name="Ydieresis" unicode="&#x178;" horiz-adv-x="655" 
d="M250 14q-14 12 -14 32q0 9 1 13l46 272q-18 3 -46.5 40t-46.5 77q-47 101 -64 186q-1 4 -1 12q0 26 25 40.5t57 14.5q21 0 33 -11t19 -35q23 -92 48 -153q34 -79 53 -79q12 0 35.5 23.5t47.5 56.5q26 34 53 75.5t32 49.5l20 31q4 5 12 17t17 17.5t23 5.5q29 0 50 -17
t21 -39q0 -12 -8 -25q-17 -34 -54.5 -87.5t-66.5 -90.5q-35 -43 -77.5 -75t-59.5 -34l-44 -269q-5 -28 -23.5 -44t-48.5 -16q-25 0 -39 12zM244.5 782q-16.5 17 -16.5 42q0 32 25 56t57 24q25 0 43 -17t18 -41q0 -31 -26.5 -56t-58.5 -25q-25 0 -41.5 17zM508.5 782
q-16.5 17 -16.5 42q0 32 25 56t57 24q25 0 42.5 -16.5t17.5 -40.5q0 -31 -26 -56.5t-58 -25.5q-25 0 -41.5 17z" />
    <glyph glyph-name="Zacute" unicode="&#x179;" horiz-adv-x="698" 
d="M492 19q-9 1 -61 4t-127 3q-69 0 -171 -4l-62 -2q-61 0 -61 44q0 30 56.5 86t186.5 166l97 83q148 128 207 185q-103 -9 -144 -9q-56 0 -121 5.5t-97 13.5q-26 6 -37.5 17t-11.5 29q0 27 18.5 45t45.5 18q2 0 38 -4q56 -7 97.5 -10.5t95.5 -3.5q31 0 67.5 2.5t84.5 6.5
l55 4q16 2 34 -3t30 -14q9 -7 14 -17t5 -21q0 -35 -50 -86t-166 -151l-61 -52q-163 -140 -256 -226l28 2q87 5 146 5q53 0 89 -2.5t95 -10.5q45 -5 45 -45q0 -29 -19.5 -46t-45.5 -15zM370 770.5q-11 12.5 -11 28.5q0 23 27 44l99 79q22 17 33.5 24t23.5 7q17 0 28 -13
t11 -30q0 -28 -31 -51l-107 -80q-16 -12 -25.5 -16.5t-20.5 -4.5q-16 0 -27 12.5z" />
    <glyph glyph-name="zacute" unicode="&#x17a;" horiz-adv-x="562" 
d="M379 -2q-66 6 -119 6q-48 0 -122 -4q-40 -3 -65 -3q-74 0 -74 40q0 15 8 26.5t21 23.5l106 94q181 161 260 226q-11 0 -22.5 -1t-22.5 -2q-68 -5 -88 -5q-31 0 -64 3t-52 7q-21 5 -30.5 14.5t-9.5 25.5q0 24 15 43.5t41 16.5q105 -12 168 -12q42 0 108 6q52 4 70 4
q36 0 49 -8t13 -25q0 -37 -38 -70l-172 -146q-98 -83 -185 -160l36 1q84 3 93 3q30 0 68.5 -2.5t64.5 -6.5q31 -5 31 -36q0 -26 -17 -45t-47 -16zM283 570.5q-11 12.5 -11 28.5q0 23 27 44l99 79q22 17 33.5 24t23.5 7q17 0 28 -13t11 -30q0 -28 -31 -51l-107 -80
q-16 -12 -25.5 -16.5t-20.5 -4.5q-16 0 -27 12.5z" />
    <glyph glyph-name="Zdotaccent" unicode="&#x17b;" horiz-adv-x="698" 
d="M492 19q-9 1 -61 4t-127 3q-69 0 -171 -4l-62 -2q-61 0 -61 44q0 30 56.5 86t186.5 166l97 83q148 128 207 185q-103 -9 -144 -9q-56 0 -121 5.5t-97 13.5q-26 6 -37.5 17t-11.5 29q0 27 18.5 45t45.5 18q2 0 38 -4q56 -7 97.5 -10.5t95.5 -3.5q31 0 67.5 2.5t84.5 6.5
l55 4q16 2 34 -3t30 -14q9 -7 14 -17t5 -21q0 -35 -50 -86t-166 -151l-61 -52q-163 -140 -256 -226l28 2q87 5 146 5q53 0 89 -2.5t95 -10.5q45 -5 45 -45q0 -29 -19.5 -46t-45.5 -15zM396.5 781.5q-16.5 16.5 -16.5 42.5q0 31 25.5 55.5t57.5 24.5q25 0 42 -16.5t17 -40.5
q0 -32 -25.5 -57t-57.5 -25q-26 0 -42.5 16.5z" />
    <glyph glyph-name="zdotaccent" unicode="&#x17c;" horiz-adv-x="562" 
d="M379 -2q-66 6 -119 6q-48 0 -122 -4q-40 -3 -65 -3q-74 0 -74 40q0 15 8 26.5t21 23.5l106 94q181 161 260 226q-11 0 -22.5 -1t-22.5 -2q-68 -5 -88 -5q-31 0 -64 3t-52 7q-21 5 -30.5 14.5t-9.5 25.5q0 24 15 43.5t41 16.5q105 -12 168 -12q42 0 108 6q52 4 70 4
q36 0 49 -8t13 -25q0 -37 -38 -70l-172 -146q-98 -83 -185 -160l36 1q84 3 93 3q30 0 68.5 -2.5t64.5 -6.5q31 -5 31 -36q0 -26 -17 -45t-47 -16zM309.5 581.5q-16.5 16.5 -16.5 42.5q0 31 25.5 55.5t57.5 24.5q25 0 42 -16.5t17 -40.5q0 -32 -25.5 -57t-57.5 -25
q-26 0 -42.5 16.5z" />
    <glyph glyph-name="Zcaron" unicode="&#x17d;" horiz-adv-x="698" 
d="M492 19q-9 1 -61 4t-127 3q-69 0 -171 -4l-62 -2q-61 0 -61 44q0 30 56.5 86t186.5 166l97 83q148 128 207 185q-103 -9 -144 -9q-56 0 -121 5.5t-97 13.5q-26 6 -37.5 17t-11.5 29q0 27 18.5 45t45.5 18q2 0 38 -4q56 -7 97.5 -10.5t95.5 -3.5q31 0 67.5 2.5t84.5 6.5
l55 4q16 2 34 -3t30 -14q9 -7 14 -17t5 -21q0 -35 -50 -86t-166 -151l-61 -52q-163 -140 -256 -226l28 2q87 5 146 5q53 0 89 -2.5t95 -10.5q45 -5 45 -45q0 -29 -19.5 -46t-45.5 -15zM619 960.5q10 -10.5 10 -25.5q0 -11 -4.5 -20t-14.5 -19l-15 -16q-58 -64 -91 -91
t-70 -27q-26 0 -54 29.5t-61 77.5l-14 20q-10 12 -8 27q0 19 17 34.5t38 15.5q10 0 18.5 -5.5t18.5 -19.5l25 -34q14 -20 25 -34t16 -14t25 19.5t45 46.5l27 28q17 18 42 18q15 0 25 -10.5z" />
    <glyph glyph-name="zcaron" unicode="&#x17e;" horiz-adv-x="562" 
d="M379 -2q-66 6 -119 6q-48 0 -122 -4q-40 -3 -65 -3q-74 0 -74 40q0 15 8 26.5t21 23.5l106 94q181 161 260 226q-11 0 -22.5 -1t-22.5 -2q-68 -5 -88 -5q-31 0 -64 3t-52 7q-21 5 -30.5 14.5t-9.5 25.5q0 24 15 43.5t41 16.5q105 -12 168 -12q42 0 108 6q52 4 70 4
q36 0 49 -8t13 -25q0 -37 -38 -70l-172 -146q-98 -83 -185 -160l36 1q84 3 93 3q30 0 68.5 -2.5t64.5 -6.5q31 -5 31 -36q0 -26 -17 -45t-47 -16zM532 760.5q10 -10.5 10 -25.5q0 -11 -4.5 -20t-14.5 -19l-15 -16q-58 -64 -91 -91t-70 -27q-26 0 -54 29.5t-61 77.5l-14 20
q-10 12 -8 27q0 19 17 34.5t38 15.5q10 0 18.5 -5.5t18.5 -19.5l25 -34q14 -20 25 -34t16 -14t25 19.5t45 46.5l27 28q17 18 42 18q15 0 25 -10.5z" />
    <glyph glyph-name="uni018F" unicode="&#x18f;" horiz-adv-x="783" 
d="M197.5 23q-70.5 32 -110.5 88t-40 124t24.5 100t77.5 33l473 4q6 0 8 3t3 11q3 12 3 34q0 74 -55 118.5t-143 44.5q-54 0 -92 -16.5t-58.5 -35.5t-59.5 -62q-3 -3 -12 -11.5t-20 -14.5t-23 -6q-22 0 -44 15t-22 34q0 17 21 48q56 75 137 117.5t179 42.5q88 0 159.5 -35
t113 -102t41.5 -159q0 -113 -53 -206t-145 -147t-205 -54q-87 0 -157.5 32zM471.5 116q58.5 28 96.5 70.5t38 83.5q0 5 -4.5 6.5t-13.5 1.5l-390 -5q-17 0 -22.5 -12.5t-5.5 -38.5q0 -35 24 -66t66.5 -49.5t94.5 -18.5q58 0 116.5 28z" />
    <glyph glyph-name="florin" unicode="&#x192;" horiz-adv-x="677" 
d="M728.5 783q8.5 -10 8.5 -24q0 -23 -12 -39t-33 -16q-5 0 -10.5 1t-12.5 2q-37 7 -54 7q-56 0 -100.5 -54t-70.5 -160h95q25 0 39 -11t14 -29q0 -26 -19.5 -42.5t-49.5 -16.5h-99q-50 -269 -130.5 -426t-185.5 -161q-26 -1 -67 4q-28 3 -43 16t-15 33q0 26 18 45t44 19
q9 0 24 -3q32 -6 56 -6q87 1 186 479h-84q-22 0 -34.5 11t-12.5 29q0 26 18.5 42.5t48.5 16.5h84q40 165 111 239.5t187 74.5q38 0 71 -12q20 -9 28.5 -19z" />
    <glyph glyph-name="Ohorn" unicode="&#x1a0;" horiz-adv-x="869" 
d="M909.5 703q8.5 -9 7.5 -25q-3 -65 -43.5 -119.5t-105.5 -79.5q10 -39 10 -86q0 -110 -53 -198t-145 -138t-206 -50q-91 0 -161.5 35.5t-110 102.5t-39.5 157q0 109 50.5 202.5t140.5 148.5t201 55q99 0 174.5 -43.5t114.5 -120.5q35 13 60.5 45.5t33.5 81.5q6 41 45 41
q18 0 26.5 -9zM523 154.5q63 37.5 98 102t35 141.5q0 91 -52 145.5t-142 54.5q-79 0 -141.5 -42t-97.5 -111t-35 -146q0 -92 53.5 -137t137.5 -45q81 0 144 37.5z" />
    <glyph glyph-name="ohorn" unicode="&#x1a1;" horiz-adv-x="602" 
d="M696.5 506q8.5 -8 8.5 -23q0 -60 -35 -112.5t-93 -80.5v-7q0 -80 -37 -145t-105 -102.5t-158 -37.5q-113 0 -180.5 53.5t-67.5 162.5q0 80 38.5 150t108 112t157.5 42q89 0 150 -40t83 -114q49 39 60 109q8 41 46 41q16 0 24.5 -8zM407 147q47 54 47 136
q0 64 -31.5 101.5t-89.5 37.5q-53 0 -94.5 -30t-64 -78t-22.5 -100q0 -63 34.5 -92t90.5 -29q83 0 130 54z" />
    <glyph glyph-name="Uhorn" unicode="&#x1af;" horiz-adv-x="774" 
d="M846 682q-3 -76 -54.5 -135.5t-134.5 -75.5l-6 -38l-63 -373q-6 -35 -21.5 -49t-46.5 -14q-57 0 -57 44q0 8 1 12l6 36q-31 -40 -77.5 -64t-102.5 -24q-105 0 -161.5 58t-56.5 150q0 45 16.5 136t61.5 307q5 23 22.5 37t48.5 14q51 0 51 -36q0 -5 -2 -17
q-43 -205 -59 -300.5t-16 -133.5q0 -48 27 -76t72 -28t91.5 28.5t80.5 76t44 102.5q26 151 57 335q9 55 67 55q27 0 41 -12t14 -32q0 -7 -1 -11l-19 -109q37 13 63.5 45.5t35.5 83.5q6 41 45 41q35 0 33 -33z" />
    <glyph glyph-name="uhorn" unicode="&#x1b0;" horiz-adv-x="564" 
d="M654 482q-4 -72 -50 -129t-121 -78l-22 -130l-4 -39q-1 -15 3.5 -27t5.5 -14q7 -12 7 -21q0 -14 -19 -30t-37 -16q-23 0 -44 21.5t-20 51.5v1q-54 -73 -154 -73q-72 0 -109 42.5t-37 117.5q0 24 10.5 90t18.5 109t11 61l8 42q4 19 23 31.5t44 12.5q26 0 42 -12.5
t12 -31.5l-15 -86q-31 -165 -31 -202q0 -79 56 -79q49 0 80 45t48 142q14 73 32 179q4 24 23 37t46 13t42 -14.5t12 -35.5l-18 -105q29 16 50 46t28 73q6 41 45 41q36 0 34 -33z" />
    <glyph glyph-name="uni01CD" unicode="&#x1cd;" horiz-adv-x="695" 
d="M618.5 179.5q-11.5 -19.5 -31.5 -19.5h-6q10 -79 13 -103q1 -4 1 -9q0 -26 -20 -42.5t-49 -16.5q-22 0 -39 9.5t-19 26.5l-14 136l-228 3l-14 -29q-16 -35 -51 -107q-19 -38 -64 -38q-29 0 -50 14.5t-17 36.5q2 12 5 17q184 360 271 533q35 69 59 95t64 26t63 -25.5
t32 -86.5q10 -69 20 -151t15 -118l7 -58h13q51 0 51 -44q0 -30 -11.5 -49.5zM443 274l-19 187q-4 43 -7.5 59.5t-8.5 16.5q-4 0 -9.5 -9.5t-15.5 -32.5l-14 -29l-90 -190zM620 960.5q10 -10.5 10 -25.5q0 -11 -4.5 -20t-14.5 -19l-15 -16q-58 -64 -91 -91t-70 -27
q-26 0 -54 29.5t-61 77.5l-14 20q-10 12 -8 27q0 19 17 34.5t38 15.5q10 0 18.5 -5.5t18.5 -19.5l25 -34q14 -20 25 -34t16 -14t25 19.5t45 46.5l27 28q17 18 42 18q15 0 25 -10.5z" />
    <glyph glyph-name="uni01CE" unicode="&#x1ce;" horiz-adv-x="617" 
d="M532.5 86.5q6.5 -5.5 6.5 -23.5q0 -26 -14.5 -44t-47.5 -18t-51.5 11.5t-30.5 37.5q-23 -30 -61 -45t-86 -15q-63 0 -110.5 26.5t-73 74t-25.5 109.5q0 81 35.5 148t97.5 106.5t138 39.5q48 0 82.5 -16.5t51.5 -42.5l5 17q12 37 53 37q26 0 42.5 -10t16.5 -26
q0 -11 -15 -50l-13 -38q-17 -53 -31.5 -125t-14.5 -108q0 -19 5 -26.5t18 -9.5q16 -4 22.5 -9.5zM333.5 109q31.5 24 40.5 69q10 48 17.5 90t7.5 57q0 35 -24 54.5t-56 19.5q-44 0 -79.5 -30.5t-55.5 -78.5t-20 -97t23 -78.5t71 -29.5q44 0 75.5 24zM530 760.5
q10 -10.5 10 -25.5q0 -11 -4.5 -20t-14.5 -19l-15 -16q-58 -64 -91 -91t-70 -27q-26 0 -54 29.5t-61 77.5l-14 20q-10 12 -8 27q0 19 17 34.5t38 15.5q10 0 18.5 -5.5t18.5 -19.5l25 -34q14 -20 25 -34t16 -14t25 19.5t45 46.5l27 28q17 18 42 18q15 0 25 -10.5z" />
    <glyph glyph-name="uni01CF" unicode="&#x1cf;" horiz-adv-x="486" 
d="M522 663q0 -30 -16 -49t-48 -18q-30 2 -70 2q-50 -271 -103 -483l87 -1q47 -1 47 -40q0 -32 -18 -51.5t-49 -19.5l-300 4q-42 1 -42 41q0 29 17.5 49.5t44.5 20.5l94 -1q58 251 100 481l-78 -5q-27 -3 -42 -3q-18 0 -28.5 11t-10.5 30q0 30 16 48t45 22q19 3 70.5 6
t109.5 3q76 0 134 -6q40 -3 40 -41zM524 960.5q10 -10.5 10 -25.5q0 -11 -4.5 -20t-14.5 -19l-15 -16q-58 -64 -91 -91t-70 -27q-26 0 -54 29.5t-61 77.5l-14 20q-10 12 -8 27q0 19 17 34.5t38 15.5q10 0 18.5 -5.5t18.5 -19.5l25 -34q14 -20 25 -34t16 -14t25 19.5t45 46.5
l27 28q17 18 42 18q15 0 25 -10.5z" />
    <glyph glyph-name="uni01D0" unicode="&#x1d0;" horiz-adv-x="338" 
d="M83.5 15q-14.5 12 -14.5 31q0 6 1 10l79 399q4 24 24 38t47 14q25 0 39.5 -12t14.5 -33l-1 -9l-83 -399q-5 -22 -23.5 -36.5t-44.5 -14.5q-24 0 -38.5 12zM405 760.5q10 -10.5 10 -25.5q0 -11 -4.5 -20t-14.5 -19l-15 -16q-58 -64 -91 -91t-70 -27q-26 0 -54 29.5
t-61 77.5l-14 20q-10 12 -8 27q0 19 17 34.5t38 15.5q10 0 18.5 -5.5t18.5 -19.5l25 -34q14 -20 25 -34t16 -14t25 19.5t45 46.5l27 28q17 18 42 18q15 0 25 -10.5z" />
    <glyph glyph-name="uni01D1" unicode="&#x1d1;" horiz-adv-x="805" 
d="M212.5 42.5q-70.5 35.5 -110 102.5t-39.5 157q0 109 50.5 202.5t140.5 148.5t201 55q94 0 167.5 -39.5t114.5 -111t41 -164.5q0 -110 -53 -198t-145 -138t-206 -50q-91 0 -161.5 35.5zM523 154.5q63 37.5 98 102t35 141.5q0 91 -52 145.5t-142 54.5q-79 0 -141.5 -42
t-97.5 -111t-35 -146q0 -92 53.5 -137t137.5 -45q81 0 144 37.5zM671 960.5q10 -10.5 10 -25.5q0 -11 -4.5 -20t-14.5 -19l-15 -16q-58 -64 -91 -91t-70 -27q-26 0 -54 29.5t-61 77.5l-14 20q-10 12 -8 27q0 19 17 34.5t38 15.5q10 0 18.5 -5.5t18.5 -19.5l25 -34
q14 -20 25 -34t16 -14t25 19.5t45 46.5l27 28q17 18 42 18q15 0 25 -10.5z" />
    <glyph glyph-name="uni01D2" unicode="&#x1d2;" horiz-adv-x="602" 
d="M96.5 51.5q-67.5 53.5 -67.5 162.5q0 80 38.5 150t108 112t157.5 42q111 0 177.5 -61.5t66.5 -173.5q0 -80 -37 -145t-105 -102.5t-158 -37.5q-113 0 -180.5 53.5zM407 147q47 54 47 136q0 64 -31.5 101.5t-89.5 37.5q-53 0 -94.5 -30t-64 -78t-22.5 -100q0 -63 34.5 -92
t90.5 -29q83 0 130 54zM539 760.5q10 -10.5 10 -25.5q0 -11 -4.5 -20t-14.5 -19l-15 -16q-58 -64 -91 -91t-70 -27q-26 0 -54 29.5t-61 77.5l-14 20q-10 12 -8 27q0 19 17 34.5t38 15.5q10 0 18.5 -5.5t18.5 -19.5l25 -34q14 -20 25 -34t16 -14t25 19.5t45 46.5l27 28
q17 18 42 18q15 0 25 -10.5z" />
    <glyph glyph-name="uni01D3" unicode="&#x1d3;" horiz-adv-x="692" 
d="M675 697q14 -12 14 -32q0 -7 -1 -11q-16 -88 -26 -156q-2 -12 -11 -65l-63 -373q-6 -35 -21.5 -49t-46.5 -14q-57 0 -57 44q0 8 1 12l6 36q-31 -40 -77.5 -64t-102.5 -24q-105 0 -161.5 58t-56.5 150q0 45 16.5 136t61.5 307q5 23 22.5 37t48.5 14q51 0 51 -36
q0 -5 -2 -17q-43 -205 -59 -300.5t-16 -133.5q0 -48 27 -76t72 -28t91.5 28.5t80.5 76t44 102.5q26 151 57 335q9 55 67 55q27 0 41 -12zM615 960.5q10 -10.5 10 -25.5q0 -11 -4.5 -20t-14.5 -19l-15 -16q-58 -64 -91 -91t-70 -27q-26 0 -54 29.5t-61 77.5l-14 20
q-10 12 -8 27q0 19 17 34.5t38 15.5q10 0 18.5 -5.5t18.5 -19.5l25 -34q14 -20 25 -34t16 -14t25 19.5t45 46.5l27 28q17 18 42 18q15 0 25 -10.5z" />
    <glyph glyph-name="uni01D4" unicode="&#x1d4;" horiz-adv-x="564" 
d="M457 106q-1 -15 3.5 -27t5.5 -14q7 -12 7 -21q0 -14 -19 -30t-37 -16q-23 0 -44 21.5t-20 51.5v1q-54 -73 -154 -73q-72 0 -109 42.5t-37 117.5q0 24 10.5 90t18.5 109t11 61l8 42q4 19 23 31.5t44 12.5q26 0 42 -12.5t12 -31.5l-15 -86q-31 -165 -31 -202q0 -79 56 -79
q49 0 80 45t48 142q14 73 32 179q4 24 23 37t46 13t42 -14.5t12 -35.5l-54 -315zM505 760.5q10 -10.5 10 -25.5q0 -11 -4.5 -20t-14.5 -19l-15 -16q-58 -64 -91 -91t-70 -27q-26 0 -54 29.5t-61 77.5l-14 20q-10 12 -8 27q0 19 17 34.5t38 15.5q10 0 18.5 -5.5t18.5 -19.5
l25 -34q14 -20 25 -34t16 -14t25 19.5t45 46.5l27 28q17 18 42 18q15 0 25 -10.5z" />
    <glyph glyph-name="uni01D5" unicode="&#x1d5;" horiz-adv-x="692" 
d="M675 697q14 -12 14 -32q0 -7 -1 -11q-16 -88 -26 -156q-2 -12 -11 -65l-63 -373q-6 -35 -21.5 -49t-46.5 -14q-57 0 -57 44q0 8 1 12l6 36q-31 -40 -77.5 -64t-102.5 -24q-105 0 -161.5 58t-56.5 150q0 45 16.5 136t61.5 307q5 23 22.5 37t48.5 14q51 0 51 -36
q0 -5 -2 -17q-43 -205 -59 -300.5t-16 -133.5q0 -48 27 -76t72 -28t91.5 28.5t80.5 76t44 102.5q26 151 57 335q9 55 67 55q27 0 41 -12zM266.5 782q-16.5 17 -16.5 42q0 32 25 56t57 24q25 0 43 -17t18 -41q0 -31 -26.5 -56t-58.5 -25q-25 0 -41.5 17zM530.5 782
q-16.5 17 -16.5 42q0 32 25 56t57 24q25 0 42.5 -16.5t17.5 -40.5q0 -31 -26 -56.5t-58 -25.5q-25 0 -41.5 17zM385.5 953q-11.5 -1 -21.5 -1q-24 0 -52 10q-25 11 -25 36q0 24 17 40t39 15l28 -4t46 -3q20 0 66 4q50 4 79 4q22 0 64 -4q15 -2 26 -13t11 -27
q0 -15 -10 -28.5t-24 -20t-25 -3.5q-21 4 -52 4q-29 0 -73 -4q-42 -4 -67 -4q-15 0 -26.5 -1z" />
    <glyph glyph-name="uni01D6" unicode="&#x1d6;" horiz-adv-x="564" 
d="M457 106q-1 -15 3.5 -27t5.5 -14q7 -12 7 -21q0 -14 -19 -30t-37 -16q-23 0 -44 21.5t-20 51.5v1q-54 -73 -154 -73q-72 0 -109 42.5t-37 117.5q0 24 10.5 90t18.5 109t11 61l8 42q4 19 23 31.5t44 12.5q26 0 42 -12.5t12 -31.5l-15 -86q-31 -165 -31 -202q0 -79 56 -79
q49 0 80 45t48 142q14 73 32 179q4 24 23 37t46 13t42 -14.5t12 -35.5l-54 -315zM155.5 582q-16.5 17 -16.5 42q0 32 25 56t57 24q25 0 43 -17t18 -41q0 -31 -26.5 -56t-58.5 -25q-25 0 -41.5 17zM419.5 582q-16.5 17 -16.5 42q0 32 25 56t57 24q25 0 42.5 -16.5t17.5 -40.5
q0 -31 -26 -56.5t-58 -25.5q-25 0 -41.5 17zM274.5 753q-11.5 -1 -21.5 -1q-24 0 -52 10q-25 11 -25 36q0 24 17 40t39 15l28 -4t46 -3q20 0 66 4q50 4 79 4q22 0 64 -4q15 -2 26 -13t11 -27q0 -15 -10 -28.5t-24 -20t-25 -3.5q-21 4 -52 4q-29 0 -73 -4q-42 -4 -67 -4
q-15 0 -26.5 -1z" />
    <glyph glyph-name="uni01D7" unicode="&#x1d7;" horiz-adv-x="692" 
d="M675 697q14 -12 14 -32q0 -7 -1 -11q-16 -88 -26 -156q-2 -12 -11 -65l-63 -373q-6 -35 -21.5 -49t-46.5 -14q-57 0 -57 44q0 8 1 12l6 36q-31 -40 -77.5 -64t-102.5 -24q-105 0 -161.5 58t-56.5 150q0 45 16.5 136t61.5 307q5 23 22.5 37t48.5 14q51 0 51 -36
q0 -5 -2 -17q-43 -205 -59 -300.5t-16 -133.5q0 -48 27 -76t72 -28t91.5 28.5t80.5 76t44 102.5q26 151 57 335q9 55 67 55q27 0 41 -12zM266.5 782q-16.5 17 -16.5 42q0 32 25 56t57 24q25 0 43 -17t18 -41q0 -31 -26.5 -56t-58.5 -25q-25 0 -41.5 17zM530.5 782
q-16.5 17 -16.5 42q0 32 25 56t57 24q25 0 42.5 -16.5t17.5 -40.5q0 -31 -26 -56.5t-58 -25.5q-25 0 -41.5 17zM424 931.5q-11 12.5 -11 28.5q0 23 27 44l99 79q22 17 33.5 24t23.5 7q17 0 28 -13t11 -30q0 -28 -31 -51l-107 -80q-16 -12 -25.5 -16.5t-20.5 -4.5
q-16 0 -27 12.5z" />
    <glyph glyph-name="uni01D8" unicode="&#x1d8;" horiz-adv-x="564" 
d="M457 106q-1 -15 3.5 -27t5.5 -14q7 -12 7 -21q0 -14 -19 -30t-37 -16q-23 0 -44 21.5t-20 51.5v1q-54 -73 -154 -73q-72 0 -109 42.5t-37 117.5q0 24 10.5 90t18.5 109t11 61l8 42q4 19 23 31.5t44 12.5q26 0 42 -12.5t12 -31.5l-15 -86q-31 -165 -31 -202q0 -79 56 -79
q49 0 80 45t48 142q14 73 32 179q4 24 23 37t46 13t42 -14.5t12 -35.5l-54 -315zM155.5 582q-16.5 17 -16.5 42q0 32 25 56t57 24q25 0 43 -17t18 -41q0 -31 -26.5 -56t-58.5 -25q-25 0 -41.5 17zM419.5 582q-16.5 17 -16.5 42q0 32 25 56t57 24q25 0 42.5 -16.5t17.5 -40.5
q0 -31 -26 -56.5t-58 -25.5q-25 0 -41.5 17zM313 731.5q-11 12.5 -11 28.5q0 23 27 44l99 79q22 17 33.5 24t23.5 7q17 0 28 -13t11 -30q0 -28 -31 -51l-107 -80q-16 -12 -25.5 -16.5t-20.5 -4.5q-16 0 -27 12.5z" />
    <glyph glyph-name="uni01D9" unicode="&#x1d9;" horiz-adv-x="692" 
d="M675 697q14 -12 14 -32q0 -7 -1 -11q-16 -88 -26 -156q-2 -12 -11 -65l-63 -373q-6 -35 -21.5 -49t-46.5 -14q-57 0 -57 44q0 8 1 12l6 36q-31 -40 -77.5 -64t-102.5 -24q-105 0 -161.5 58t-56.5 150q0 45 16.5 136t61.5 307q5 23 22.5 37t48.5 14q51 0 51 -36
q0 -5 -2 -17q-43 -205 -59 -300.5t-16 -133.5q0 -48 27 -76t72 -28t91.5 28.5t80.5 76t44 102.5q26 151 57 335q9 55 67 55q27 0 41 -12zM266.5 782q-16.5 17 -16.5 42q0 32 25 56t57 24q25 0 43 -17t18 -41q0 -31 -26.5 -56t-58.5 -25q-25 0 -41.5 17zM530.5 782
q-16.5 17 -16.5 42q0 32 25 56t57 24q25 0 42.5 -16.5t17.5 -40.5q0 -31 -26 -56.5t-58 -25.5q-25 0 -41.5 17zM641 1120.5q10 -10.5 10 -25.5q0 -11 -4.5 -20t-14.5 -19l-15 -16q-58 -64 -91 -91t-70 -27q-26 0 -54 29.5t-61 77.5l-14 20q-10 12 -8 27q0 19 17 34.5
t38 15.5q10 0 18.5 -5.5t18.5 -19.5l25 -34q14 -20 25 -34t16 -14t25 19.5t45 46.5l27 28q17 18 42 18q15 0 25 -10.5z" />
    <glyph glyph-name="uni01DA" unicode="&#x1da;" horiz-adv-x="564" 
d="M457 106q-1 -15 3.5 -27t5.5 -14q7 -12 7 -21q0 -14 -19 -30t-37 -16q-23 0 -44 21.5t-20 51.5v1q-54 -73 -154 -73q-72 0 -109 42.5t-37 117.5q0 24 10.5 90t18.5 109t11 61l8 42q4 19 23 31.5t44 12.5q26 0 42 -12.5t12 -31.5l-15 -86q-31 -165 -31 -202q0 -79 56 -79
q49 0 80 45t48 142q14 73 32 179q4 24 23 37t46 13t42 -14.5t12 -35.5l-54 -315zM155.5 582q-16.5 17 -16.5 42q0 32 25 56t57 24q25 0 43 -17t18 -41q0 -31 -26.5 -56t-58.5 -25q-25 0 -41.5 17zM419.5 582q-16.5 17 -16.5 42q0 32 25 56t57 24q25 0 42.5 -16.5t17.5 -40.5
q0 -31 -26 -56.5t-58 -25.5q-25 0 -41.5 17zM530 920.5q10 -10.5 10 -25.5q0 -11 -4.5 -20t-14.5 -19l-15 -16q-58 -64 -91 -91t-70 -27q-26 0 -54 29.5t-61 77.5l-14 20q-10 12 -8 27q0 19 17 34.5t38 15.5q10 0 18.5 -5.5t18.5 -19.5l25 -34q14 -20 25 -34t16 -14t25 19.5
t45 46.5l27 28q17 18 42 18q15 0 25 -10.5z" />
    <glyph glyph-name="uni01DB" unicode="&#x1db;" horiz-adv-x="692" 
d="M675 697q14 -12 14 -32q0 -7 -1 -11q-16 -88 -26 -156q-2 -12 -11 -65l-63 -373q-6 -35 -21.5 -49t-46.5 -14q-57 0 -57 44q0 8 1 12l6 36q-31 -40 -77.5 -64t-102.5 -24q-105 0 -161.5 58t-56.5 150q0 45 16.5 136t61.5 307q5 23 22.5 37t48.5 14q51 0 51 -36
q0 -5 -2 -17q-43 -205 -59 -300.5t-16 -133.5q0 -48 27 -76t72 -28t91.5 28.5t80.5 76t44 102.5q26 151 57 335q9 55 67 55q27 0 41 -12zM266.5 782q-16.5 17 -16.5 42q0 32 25 56t57 24q25 0 43 -17t18 -41q0 -31 -26.5 -56t-58.5 -25q-25 0 -41.5 17zM530.5 782
q-16.5 17 -16.5 42q0 32 25 56t57 24q25 0 42.5 -16.5t17.5 -40.5q0 -31 -26 -56.5t-58 -25.5q-25 0 -41.5 17zM443 929q-9 5 -18 17l-64 86q-13 18 -13 37q0 21 16 36.5t37 15.5q24 0 44 -29l58 -85q11 -18 11 -33q0 -20 -15 -35t-35 -15q-12 0 -21 5z" />
    </font>
</defs>
</svg>
