<?xml version="1.0" encoding="UTF-8" standalone="no"?>
<!-- Generator: Adobe Illustrator 12.0.0, SVG Export Plug-In . SVG Version: 6.00 Build 51448)  -->

<svg
   xmlns:dc="http://purl.org/dc/elements/1.1/"
   xmlns:cc="http://creativecommons.org/ns#"
   xmlns:rdf="http://www.w3.org/1999/02/22-rdf-syntax-ns#"
   xmlns:svg="http://www.w3.org/2000/svg"
   xmlns="http://www.w3.org/2000/svg"
   xmlns:sodipodi="http://sodipodi.sourceforge.net/DTD/sodipodi-0.dtd"
   xmlns:inkscape="http://www.inkscape.org/namespaces/inkscape"
   version="1.1"
   id="Layer_1"
   width="1000"
   height="303.26901"
   viewBox="0 0 1000.0001 303.26902"
   overflow="visible"
   enable-background="new 0 0 174.596 52.951"
   xml:space="preserve"
   inkscape:version="0.91 r13725"
   sodipodi:docname="Michelin.svg"
   style="overflow:visible"><metadata
   id="metadata103"><rdf:RDF><cc:Work
       rdf:about=""><dc:format>image/svg+xml</dc:format><dc:type
         rdf:resource="http://purl.org/dc/dcmitype/StillImage" /><dc:title></dc:title></cc:Work></rdf:RDF></metadata><defs
   id="defs101" /><sodipodi:namedview
   pagecolor="#ffffff"
   bordercolor="#666666"
   borderopacity="1"
   objecttolerance="10"
   gridtolerance="10"
   guidetolerance="10"
   inkscape:pageopacity="0"
   inkscape:pageshadow="2"
   inkscape:window-width="1366"
   inkscape:window-height="705"
   id="namedview99"
   showgrid="false"
   inkscape:zoom="0.5"
   inkscape:cx="277.00476"
   inkscape:cy="48.749407"
   inkscape:window-x="-8"
   inkscape:window-y="-8"
   inkscape:window-maximized="1"
   inkscape:current-layer="Layer_1" />
<g
   id="g3"
   transform="matrix(5.7275098,0,0,5.7275098,-1.8788015e-4,3.1791328e-6)">
	<polygon
   points="3.331,45.542 174.596,45.542 174.596,16.65 3.331,16.65 3.331,45.542 "
   id="polygon5"
   style="clip-rule:evenodd;fill:#0061a9;fill-rule:evenodd" />
	<polygon
   points="142.744,39.886 3.331,39.886 3.331,41.626 142.135,41.626 142.744,39.886 "
   id="polygon7"
   style="clip-rule:evenodd;fill:#ffe822;fill-rule:evenodd" />
	<path
   d="m 54.937,23.352 -4.612,6.961 c 0,0 0.348,-3.655 0.348,-4.525 0.087,-0.696 0,-2.437 -1.654,-2.437 -1.566,0 -7.223,0 -7.223,0 l -4.699,12.879 5.657,0 3.394,-9.312 -0.696,9.312 5.047,0 6.179,-9.138 -3.394,9.138 5.656,0 4.787,-12.879 -8.79,0 0,0.001 z"
   id="path9"
   inkscape:connector-curvature="0"
   style="clip-rule:evenodd;fill:#ffffff;fill-rule:evenodd" />
	<path
   d="m 85.743,35.97 c -0.348,0.087 -2.437,0.521 -4.786,0.521 -4.003,0.175 -7.571,-1.479 -7.571,-4.351 -0.087,-5.135 5.047,-7.919 8.876,-8.616 1.653,-0.348 4.96,-0.783 8.18,0 l -1.915,4.525 c -0.521,-1.218 -1.914,-1.218 -2.523,-1.218 -1.306,-0.087 -2.524,0.349 -3.307,0.696 -1.915,0.87 -3.568,3.654 -0.87,4.786 1.479,0.609 3.394,0.087 5.396,-0.174 l -1.48,3.831 0,0 z"
   id="path11"
   inkscape:connector-curvature="0"
   style="clip-rule:evenodd;fill:#ffffff;fill-rule:evenodd" />
	<polygon
   points="143.702,36.231 137.522,36.231 142.222,23.352 148.488,23.352 143.702,36.231 "
   id="polygon13"
   style="clip-rule:evenodd;fill:#ffffff;fill-rule:evenodd" />
	<polygon
   points="68.773,36.231 62.595,36.231 67.294,23.352 73.56,23.352 68.773,36.231 "
   id="polygon15"
   style="clip-rule:evenodd;fill:#ffffff;fill-rule:evenodd" />
	<polygon
   points="99.319,23.352 93.401,23.352 88.615,36.231 94.532,36.231 96.186,31.879 99.319,31.879 97.753,36.231 103.67,36.231 108.456,23.352 102.452,23.352 102.452,23.352 100.799,27.964 97.578,27.964 "
   id="polygon17"
   style="clip-rule:evenodd;fill:#ffffff;fill-rule:evenodd" />
	<polygon
   points="131.083,31.966 131.083,31.966 134.216,23.352 128.124,23.352 123.425,36.231 135.608,36.231 137.175,31.966 "
   id="polygon19"
   style="clip-rule:evenodd;fill:#ffffff;fill-rule:evenodd" />
	<path
   d="m 163.892,23.352 -3.308,8.876 c 0.087,-0.87 0.262,-4.438 0.349,-6.44 0.087,-0.87 -0.087,-1.479 -0.522,-1.915 -0.522,-0.522 -1.131,-0.522 -1.131,-0.522 l -7.224,0 -4.786,12.879 5.309,0 3.307,-9.138 -0.348,9.138 8.789,0 4.787,-12.879 -5.222,0 0,0.001 z"
   id="path21"
   inkscape:connector-curvature="0"
   style="clip-rule:evenodd;fill:#ffffff;fill-rule:evenodd" />
	<polygon
   points="122.815,28.138 116.027,28.138 116.55,26.746 123.686,26.746 124.904,23.352 111.938,23.352 107.151,36.231 120.379,36.231 121.598,32.75 114.374,32.75 114.374,32.75 114.896,31.358 121.685,31.358 "
   id="polygon23"
   style="clip-rule:evenodd;fill:#ffffff;fill-rule:evenodd" />
	<path
   d="m 37.619,29.269 c 0.348,-0.609 -0.087,-1.74 -0.871,-2.611 -0.696,-0.87 -1.653,-1.131 -1.74,-1.566 0.957,-1.915 -0.087,-3.568 -1.566,-4.264 C 33.529,19.957 33.181,19 32.398,18.391 32.746,17.608 33.181,15.433 31.528,14.127 32.224,11.429 29.44,9.863 27.96,9.776 27.263,9.253 26.306,8.905 25,8.818 25.958,7.425 25.696,5.598 24.564,4.554 24.651,3.075 23.607,1.682 22.127,1.16 21.605,-0.058 18.82,0.116 18.559,1.247 c -1.653,0.609 -2.611,2.35 -2.437,4.003 -0.958,1.044 -0.958,2.785 0,4.003 -0.871,-0.087 -2.089,0.174 -2.872,0.522 l 0,0 -0.087,0 C 12.467,9.427 11.77,9.253 10.987,9.427 10.813,9.253 10.291,9.079 9.943,8.992 9.684,8.557 9.335,8.209 8.813,7.948 8.639,7.165 8.03,6.556 7.421,6.294 7.508,5.685 7.247,4.989 7.073,4.641 6.725,4.119 6.812,3.249 6.899,3.075 7.334,2.64 6.986,2.205 6.812,2.03 5.941,1.16 5.071,1.595 4.81,2.03 3.94,0.464 2.983,0.116 2.46,0.29 1.677,-0.319 0.546,0.116 0.546,0.812 0.024,1.16 -0.324,1.334 0.459,2.727 0.285,5.598 0.633,6.469 2.548,8.035 1.938,8.644 1.677,9.862 2.199,10.82 c -0.174,1.393 0.609,2.785 1.567,3.481 0.261,2.001 2.175,3.133 3.481,3.394 0.87,1.305 2.088,1.914 3.307,2.001 0.087,0.609 0.261,1.131 0.609,1.653 -0.261,1.131 -0.261,2.176 0.087,3.133 -0.87,0.957 -1.218,2.437 -0.783,3.916 -1.044,1.218 -1.393,3.22 -0.696,4.873 0,0 -0.261,0.436 -0.435,0.87 -0.696,0.349 -1.392,1.132 -1.74,2.176 -0.348,0.783 -0.174,1.827 0,2.698 -1.131,0.957 -1.828,3.394 0.174,5.308 -0.435,1.394 -1.392,2.611 -2.523,4.091 -0.783,1.044 -0.958,1.566 0,2.785 0.696,0.957 2.001,1.74 3.133,1.74 2.088,0.087 3.568,-0.349 3.742,-1.915 0.174,-0.87 -0.435,-2.697 -0.435,-3.133 -0.087,-0.435 0.087,-1.131 0.522,-2.263 1.915,-0.435 2.872,-1.827 3.045,-3.22 1.393,-0.783 2.437,-2.437 1.915,-4.265 0.261,-0.261 0.348,-0.521 0.522,-0.957 0,0.783 0.522,1.306 0.783,1.828 -0.783,2.001 0.261,3.829 1.479,4.612 -2.089,3.046 0.174,4.525 0.783,5.134 0.783,0.696 0.87,2.002 2.088,2.438 1.044,0.348 4.352,0 4.96,-1.393 0.174,-0.349 0.348,-0.783 0.174,-1.045 0,-1.044 -0.609,-1.74 -1.741,-2.437 -1.306,-0.696 -1.306,-0.521 -1.915,-2.437 2.002,-0.957 2.35,-3.22 2.263,-4.09 1.393,-1.741 1.306,-3.221 0.522,-4.178 0.261,-0.783 0.174,-1.393 0,-2.001 1.218,-1.045 1.74,-2.611 1.305,-4.265 0.696,-1.044 0.87,-2.175 0.609,-3.481 0.609,0.958 1.566,1.306 2.611,1.306 0,0 0.087,0.26 0.174,0.435 -0.348,0.608 -0.174,1.306 0.609,1.827 0.087,0.349 0.261,0.522 0.435,0.696 0,0.261 0.696,1.393 1.479,0.783 0.087,0 0.958,-0.609 0.958,-0.609 0.785,0.613 2.525,0.091 2.352,-1.04 l 0,0 z"
   id="path25"
   inkscape:connector-curvature="0"
   style="clip-rule:evenodd;fill:#040506;fill-rule:evenodd" />
	<path
   d="M 29.525,23.525 C 31.7,23.351 33.789,20.914 31.788,19 c -0.261,0.435 -0.871,0.87 -1.306,1.044 -0.087,0.957 -0.696,1.74 -1.044,2.176 0,0.348 0.087,1.218 0.087,1.305 l 0,0 z"
   id="path27"
   inkscape:connector-curvature="0"
   style="clip-rule:evenodd;fill:#ffffff;fill-rule:evenodd" />
	<path
   d="m 33.093,21.698 c -0.522,1.393 -1.915,2.176 -3.568,2.437 -0.261,1.131 1.218,2.872 3.481,1.828 1.654,-0.697 2.263,-3.308 0.087,-4.265 l 0,0 z"
   id="path29"
   inkscape:connector-curvature="0"
   style="clip-rule:evenodd;fill:#ffffff;fill-rule:evenodd" />
	<path
   d="m 32.484,27.876 c -0.174,0.174 -0.174,0.609 0.087,0.871 0,-0.088 0.174,-0.609 0.261,-0.783 -0.087,-0.174 -0.261,-0.174 -0.348,-0.088 l 0,0 z"
   id="path31"
   inkscape:connector-curvature="0"
   style="clip-rule:evenodd;fill:#ffffff;fill-rule:evenodd" />
	<path
   d="m 33.876,28.921 c -0.087,-0.262 0,-0.609 -0.435,-0.697 -0.435,-0.174 -0.435,1.219 -0.174,1.132 0.174,-0.174 0.348,-0.349 0.609,-0.435 l 0,0 z"
   id="path33"
   inkscape:connector-curvature="0"
   style="clip-rule:evenodd;fill:#ffffff;fill-rule:evenodd" />
	<path
   d="m 34.486,29.095 c -0.609,0.174 -1.044,0.609 -0.783,0.957 0.087,0.174 0.174,0.174 0.522,-0.087 0.174,-0.087 0.522,-0.349 0.609,-0.436 -0.087,-0.26 -0.348,-0.434 -0.348,-0.434 l 0,0 z"
   id="path35"
   inkscape:connector-curvature="0"
   style="clip-rule:evenodd;fill:#ffffff;fill-rule:evenodd" />
	<path
   d="m 35.008,26.397 c -0.174,-0.087 -0.522,-0.348 -0.696,-0.609 -0.435,0.435 -1.392,0.958 -1.828,1.044 0.087,0 0.174,0.435 0.261,0.608 0.174,0 0.348,0.175 0.522,0.349 0.174,-0.087 0.783,0 0.958,0.609 0.261,0.174 0.783,0.435 0.957,0.608 0.696,0.871 1.219,0.784 1.393,0.609 0.609,-0.435 -0.261,-0.869 -0.696,-1.479 -0.261,-0.262 -0.957,-1.219 -0.957,-1.48 0,-0.087 0.174,0 0.348,0.174 0,0.087 0.957,1.218 1.479,1.653 -0.436,-1.477 -1.741,-2.086 -1.741,-2.086 l 0,0 z"
   id="path37"
   inkscape:connector-curvature="0"
   style="clip-rule:evenodd;fill:#ffffff;fill-rule:evenodd" />
	<path
   d="m 21.258,24.396 c 8.268,-0.087 9.312,-4.96 8.181,-6.875 -2.524,2.611 -10.965,4.09 -15.143,0.783 -0.783,0.87 -1.828,1.131 -2.698,1.305 0.261,2.437 4.699,4.874 9.66,4.787 l 0,0 z"
   id="path39"
   inkscape:connector-curvature="0"
   style="clip-rule:evenodd;fill:#ffffff;fill-rule:evenodd" />
	<path
   d="m 15.688,14.04 c 0.174,1.653 -0.522,3.133 -0.871,3.655 0.783,0.609 2.35,1.74 5.918,1.827 5.396,0.087 11.139,-2.523 7.919,-6.962 -1.391,1.828 -8.266,3.394 -12.966,1.48 l 0,0 z"
   id="path41"
   inkscape:connector-curvature="0"
   style="clip-rule:evenodd;fill:#ffffff;fill-rule:evenodd" />
	<path
   d="M 8.552,13.518 C 9.857,12.3 9.945,10.733 9.335,9.602 9.162,9.427 8.987,9.167 8.727,8.992 c -0.261,2.263 -3.481,4.003 -5.57,2.524 0.783,3.22 4.003,3.307 5.395,2.002 l 0,0 z"
   id="path43"
   inkscape:connector-curvature="0"
   style="clip-rule:evenodd;fill:#ffffff;fill-rule:evenodd" />
	<path
   d="m 11.163,15.693 c 1.915,-2.175 0,-5.482 -0.87,-5.656 0.609,3.22 -2.611,5.744 -5.483,4.525 0.696,2.001 4.09,3.655 6.353,1.131 l 0,0 z"
   id="path45"
   inkscape:connector-curvature="0"
   style="clip-rule:evenodd;fill:#ffffff;fill-rule:evenodd" />
	<path
   d="m 8.552,17.695 c 1.653,1.74 6.092,1.653 6.353,-2.437 0.174,-2.785 -1.044,-4.351 -2.959,-4.873 2.263,4.264 -0.435,7.222 -3.394,7.31 l 0,0 z"
   id="path47"
   inkscape:connector-curvature="0"
   style="clip-rule:evenodd;fill:#ffffff;fill-rule:evenodd" />
	<path
   d="m 12.033,22.046 c -0.783,4.7 5.482,6.178 9.225,6.092 6.353,-0.262 7.745,-3.307 7.397,-5.135 -4.003,3.133 -12.531,2.785 -16.622,-0.957 l 0,0 z"
   id="path49"
   inkscape:connector-curvature="0"
   style="clip-rule:evenodd;fill:#ffffff;fill-rule:evenodd" />
	<path
   d="m 15.253,31.966 c 3.394,0.696 6.092,-0.87 6.092,-3.133 -1.653,0 -6.962,-0.086 -9.485,-3.567 -1.741,2.437 0.348,5.83 3.393,6.7 l 0,0 z"
   id="path51"
   inkscape:connector-curvature="0"
   style="clip-rule:evenodd;fill:#ffffff;fill-rule:evenodd" />
	<path
   d="m 19.865,32.054 c -3.046,1.566 -7.223,0.435 -8.789,-2.785 -2.263,3.568 1.479,6.788 4.264,6.614 3.394,-0.175 4.351,-2.35 4.525,-3.829 l 0,0 z"
   id="path53"
   inkscape:connector-curvature="0"
   style="clip-rule:evenodd;fill:#ffffff;fill-rule:evenodd" />
	<path
   d="m 10.467,33.968 c -1.044,1.915 0.261,4.003 1.653,4.525 2.959,1.131 4.96,-0.783 4.787,-2.176 -2.35,0.523 -4.787,-0.173 -6.44,-2.349 l 0,0 z"
   id="path55"
   inkscape:connector-curvature="0"
   style="clip-rule:evenodd;fill:#ffffff;fill-rule:evenodd" />
	<path
   d="m 8.117,39.799 c -1.393,1.131 -0.435,4.177 1.653,4.873 2.959,1.045 4.264,-0.957 4.438,-2.002 -0.782,0.175 -4.176,0.871 -6.091,-2.871 l 0,0 z"
   id="path57"
   inkscape:connector-curvature="0"
   style="clip-rule:evenodd;fill:#ffffff;fill-rule:evenodd" />
	<path
   d="M 11.946,39.016 C 10.38,38.233 9.422,37.014 9.335,35.361 c -2.263,2.263 -0.348,5.83 1.741,6.526 4.177,1.479 5.656,-2.088 5.308,-3.133 -1.653,1.132 -3.655,0.697 -4.438,0.262 l 0,0 z"
   id="path59"
   inkscape:connector-curvature="0"
   style="clip-rule:evenodd;fill:#ffffff;fill-rule:evenodd" />
	<path
   d="m 26.915,49.372 0.174,0.087 c -0.348,0.696 -2.872,1.306 -3.917,0.87 -1.218,-0.608 -0.958,-1.305 -1.741,-2.001 -1.74,-1.653 -1.479,-2.35 -1.218,-3.22 0.087,-0.436 0.261,-0.696 0.609,-1.132 1.218,0.436 1.74,0.348 2.785,0.087 0,0.087 0,0.349 0.087,0.436 -0.783,0.087 -1.479,0.261 -1.479,0.261 l 0.261,0.609 c 0,0 0.609,-0.174 1.393,-0.261 0,0 0.087,0.435 0.174,0.609 -0.696,0 -1.305,0.261 -1.305,0.261 l 0.174,0.522 c 0,0 0.958,-0.262 1.653,-0.175 0.696,0.609 3.481,1.306 2.089,2.785 -0.522,0.522 -1.828,0.696 -2.872,0.696 l 0,0.174 c 0.174,0.262 2.088,0.349 3.133,-0.608 l 0,0 z"
   id="path61"
   inkscape:connector-curvature="0"
   style="clip-rule:evenodd;fill:#ffffff;fill-rule:evenodd" />
	<path
   d="m 25.609,40.408 c -0.696,0.522 -1.74,0.958 -2.958,0.871 -1.479,0 -2.524,-0.609 -3.394,-1.566 -0.522,2.61 1.131,3.828 2.958,3.916 3.307,0.173 3.394,-2.873 3.394,-3.221 l 0,0 z"
   id="path63"
   inkscape:connector-curvature="0"
   style="clip-rule:evenodd;fill:#ffffff;fill-rule:evenodd" />
	<path
   d="m 22.563,40.669 c 3.568,0.087 4.613,-2.872 3.917,-4.178 -2.002,2.437 -6.614,1.915 -7.571,-1.131 -1.219,2.177 0.782,5.309 3.654,5.309 l 0,0 z"
   id="path65"
   inkscape:connector-curvature="0"
   style="clip-rule:evenodd;fill:#ffffff;fill-rule:evenodd" />
	<path
   d="m 23.085,37.45 c 1.74,0 3.655,-1.219 3.22,-3.395 -2.002,1.306 -4.526,1.219 -6.266,-0.087 -0.174,0.261 -0.435,0.696 -0.609,0.87 0.261,1.654 1.915,2.612 3.655,2.612 l 0,0 z"
   id="path67"
   inkscape:connector-curvature="0"
   style="clip-rule:evenodd;fill:#ffffff;fill-rule:evenodd" />
	<path
   d="m 20.91,31.358 c -0.087,0.087 -0.174,0.174 -0.261,0.174 0,0.609 -0.174,1.393 -0.348,1.914 2.437,2.089 7.572,0.783 7.224,-3.48 -1.742,1.74 -4.527,2.175 -6.615,1.392 l 0,0 z"
   id="path69"
   inkscape:connector-curvature="0"
   style="clip-rule:evenodd;fill:#ffffff;fill-rule:evenodd" />
	<path
   d="m 22.041,28.833 c 0,0.783 -0.261,1.479 -0.696,2.089 3.133,0.957 7.049,-0.696 6.875,-4.438 -1.044,0.957 -2.959,2.176 -6.179,2.349 l 0,0 z"
   id="path71"
   inkscape:connector-curvature="0"
   style="clip-rule:evenodd;fill:#ffffff;fill-rule:evenodd" />
	<path
   d="M 6.29,11.168 C 8.64,10.124 8.466,7.687 7.073,7.078 6.725,7.426 6.812,8.209 6.812,8.383 6.812,8.731 6.203,8.992 6.116,8.818 5.941,8.557 6.464,8.296 6.203,7.687 6.029,7.165 6.638,6.904 6.638,6.034 6.638,5.512 6.203,4.728 6.203,4.555 5.941,4.032 5.941,3.075 6.29,2.64 6.029,2.379 5.681,2.118 5.42,2.64 c -0.435,0.609 -0.261,1.392 0,2.001 0,0.087 -0.435,0 -0.609,0.696 l -0.175,0.261 -0.174,0 C 4.375,5.076 4.549,4.815 4.723,4.467 4.636,4.38 4.462,3.945 4.462,3.162 4.114,2.117 3.331,1.16 2.809,1.073 3.244,1.769 4.028,3.248 4.115,3.423 4.288,3.858 3.94,3.945 3.94,3.945 3.331,2.727 2.722,1.595 2.199,1.073 1.851,0.812 1.503,0.638 1.329,0.899 c 0.174,0 0.348,0.174 0.522,0.348 0.522,0.696 1.654,2.959 1.654,2.959 0,0 -0.087,0.087 -0.261,0.087 C 3.07,4.293 2.896,3.945 2.635,3.336 2.286,2.813 1.764,1.943 1.503,1.682 1.242,1.334 1.068,1.421 0.894,1.595 1.068,1.856 1.242,2.204 1.242,2.465 1.677,2.291 2.199,2.726 2.286,3.161 2.286,3.509 2.46,4.64 2.722,4.989 2.635,4.989 2.374,5.163 2.374,5.163 2.112,4.902 1.938,3.684 1.851,3.249 1.851,3.075 1.764,2.901 1.503,2.814 c -0.174,0 -0.174,0.087 -0.174,0.174 -0.174,2.437 0,3.046 2.176,4.699 0.174,0.087 0.348,0.435 0.522,0.783 0.174,0.261 0.435,0.696 0.957,0.609 L 5.158,9.253 C 4.723,9.688 4.027,9.427 3.853,9.253 3.766,9.079 3.418,8.557 3.418,8.557 1.851,10.124 3.94,12.299 6.29,11.168 l 0,0 z"
   id="path73"
   inkscape:connector-curvature="0"
   style="clip-rule:evenodd;fill:#ffffff;fill-rule:evenodd" />
	<path
   d="m 8.727,44.846 c -0.871,1.915 -1.741,2.785 -2.698,4.178 -0.696,0.87 -0.435,1.305 0,1.914 0.87,0.957 2.35,1.479 3.481,1.132 l 0,-0.087 C 8.117,52.07 6.986,51.547 6.377,50.677 L 6.464,50.59 c 1.566,1.218 3.655,0.87 4.438,0.435 0.261,-0.087 0.348,-0.348 0.348,-0.608 -0.087,-0.696 -0.435,-1.828 -0.522,-2.438 -0.087,-0.435 0.087,-1.392 0.522,-2.437 -0.696,0.087 -2.088,-0.086 -2.523,-0.696 l 0,0 z"
   id="path75"
   inkscape:connector-curvature="0"
   style="clip-rule:evenodd;fill:#ffffff;fill-rule:evenodd" />
	<path
   d="m 29.003,11.777 c 1.131,0.783 1.306,2.35 1.306,2.959 1.131,-2.176 -0.522,-3.481 -1.393,-3.742 0.174,0.348 0.174,0.696 0.087,0.783 l 0,0 z"
   id="path77"
   inkscape:connector-curvature="0"
   style="clip-rule:evenodd;fill:#ffffff;fill-rule:evenodd" />
	<path
   d="m 30.657,18.913 c 2.175,-1.218 0.783,-3.829 0.435,-4.003 -0.087,0.261 -0.348,0.958 -1.131,1.828 0.435,0.521 0.696,1.304 0.696,2.175 l 0,0 z"
   id="path79"
   inkscape:connector-curvature="0"
   style="clip-rule:evenodd;fill:#ffffff;fill-rule:evenodd" />
	<path
   d="m 15.514,13.256 c 1.566,0.696 3.22,0.958 4.874,0.958 4.525,0 7.658,-1.306 7.919,-2.611 0.174,-1.131 -1.915,-1.828 -4.09,-2.001 -0.348,0.348 -0.783,0.522 -0.958,0.522 -0.087,0 -0.261,-0.087 -0.087,-0.174 0.348,-0.174 0.696,-0.522 0.348,-1.131 0.261,0 1.044,-0.348 1.131,-1.741 0,-1.131 -0.522,-1.827 -1.044,-2.175 0,0 -0.174,-0.174 0,-0.174 C 23.781,3.337 22.824,2.206 21.17,1.857 l 0,-0.175 c 0.087,0 0.087,-0.087 0.087,-0.087 -0.087,-0.348 -1.305,-0.522 -1.828,-0.087 -0.087,0.087 0.261,0.261 0.348,0.261 0.174,0 0.261,0.174 0.087,0.174 -1.044,-0.087 -2.785,0.783 -2.785,3.133 0.087,0 0.609,-0.087 0.783,-0.087 0.174,0.087 0.087,0.261 0,0.261 -1.653,0.087 -2.263,2.958 -0.087,3.916 0,0 0.174,0.087 0,0.174 -0.261,0.174 -0.435,0.522 -0.087,0.783 0.174,0 0.261,0.174 0.174,0.261 0,0.174 -0.261,0.174 -0.435,0 -1.131,-0.522 -2.437,-0.261 -3.481,0.087 0.785,0.61 1.307,1.654 1.568,2.785 l 0,0 z"
   id="path81"
   inkscape:connector-curvature="0"
   style="clip-rule:evenodd;fill:#ffffff;fill-rule:evenodd" />
	<path
   d="M 4.201,5.946 C 4.114,6.034 3.853,5.772 3.592,5.598 3.331,5.511 2.983,5.511 2.983,5.424 c 0,0 0.261,-0.087 0.522,-0.087 0.174,0 0.348,0.087 0.522,0.087 0.087,0.174 0.261,0.435 0.174,0.522 l 0,0 z"
   id="path83"
   inkscape:connector-curvature="0"
   style="clip-rule:evenodd;fill:#040506;fill-rule:evenodd" />
	<path
   d="M 9.945,47.979 C 9.423,47.805 8.639,47.718 8.204,47.718 l 0,-0.609 c 0.522,0.087 1.306,0.174 1.915,0.349 l -0.174,0.521 0,0 z"
   id="path85"
   inkscape:connector-curvature="0"
   style="clip-rule:evenodd;fill:#040506;fill-rule:evenodd" />
	<path
   d="M 10.293,46.848 C 9.51,46.587 9.335,46.587 8.465,46.5 l 0,-0.522 c 0.957,0 1.218,0 2.001,0.261 l -0.173,0.609 0,0 z"
   id="path87"
   inkscape:connector-curvature="0"
   style="clip-rule:evenodd;fill:#040506;fill-rule:evenodd" />
	<path
   d="m 22.65,7.165 c -0.087,0 -0.174,0 -0.261,0.087 -1.566,-0.261 -2.001,0.087 -2.872,0.087 0,-0.087 0,-0.261 -0.174,-0.261 0,0.087 -0.087,0.174 -0.087,0.174 -0.261,0.348 -0.348,0.522 -0.261,0.609 0.087,0.087 0.261,-0.087 0.348,-0.174 0.087,0 0.435,0 0.783,0.174 0.261,0.174 0.783,0.87 1.305,0.609 0.435,-0.174 0.783,-0.87 1.044,-0.87 0.174,0 0.348,0.087 0.348,0 0.088,0 -0.086,-0.522 -0.173,-0.435 l 0,0 z M 21.432,8.209 C 20.91,8.383 20.648,7.774 20.213,7.6 20.648,7.513 21.431,7.426 22.128,7.513 21.954,7.6 21.519,8.122 21.432,8.209 l 0,0 z"
   id="path89"
   inkscape:connector-curvature="0"
   style="clip-rule:evenodd;fill:#040506;fill-rule:evenodd" />
	<path
   d="m 22.041,3.162 c -0.522,0.087 -0.87,0.783 -0.87,1.653 0.087,0.522 0.261,1.044 0.609,1.306 0.174,0.087 0.348,0.174 0.522,0.174 0.522,-0.087 0.957,-0.783 0.87,-1.653 C 23.172,4.12 22.911,3.598 22.65,3.424 22.476,3.249 22.302,3.162 22.041,3.162 l 0,0 z"
   id="path91"
   inkscape:connector-curvature="0"
   style="clip-rule:evenodd;fill:#040506;fill-rule:evenodd" />
	<path
   d="m 22.737,5.598 0,0 0,0 C 22.824,5.424 22.911,5.076 22.911,4.641 22.824,4.206 22.737,3.858 22.476,3.597 22.389,3.51 22.215,3.51 22.128,3.51 c -0.435,0 -0.696,0.609 -0.609,1.305 0,0.087 0,0.087 0,0.174 l 0,0 0,0 c 0.087,-0.435 0.261,-0.783 0.609,-0.87 0.348,0 0.609,0.435 0.609,0.957 0,0.174 0,0.348 0,0.522 l 0,0 z"
   id="path93"
   inkscape:connector-curvature="0"
   style="clip-rule:evenodd;fill:#ffffff;fill-rule:evenodd" />
	<path
   d="m 19.604,3.249 c -0.522,0.087 -0.958,0.783 -0.958,1.654 0,0.522 0.174,0.957 0.522,1.305 0.174,0.087 0.348,0.174 0.609,0.174 0.522,0 0.958,-0.783 0.958,-1.653 0,-0.522 -0.174,-0.957 -0.522,-1.218 C 20.04,3.336 19.865,3.249 19.604,3.249 l 0,0 z"
   id="path95"
   inkscape:connector-curvature="0"
   style="clip-rule:evenodd;fill:#040506;fill-rule:evenodd" />
	<path
   d="m 20.3,5.511 0,0 0,0 C 20.387,5.25 20.474,4.989 20.474,4.728 20.388,4.293 20.3,3.945 20.04,3.684 19.953,3.597 19.779,3.51 19.605,3.597 c -0.348,0 -0.696,0.609 -0.696,1.306 0,0.261 0.087,0.522 0.261,0.696 0,0.087 0,0.087 0,0.087 l 0,-0.088 C 19.083,5.511 19.083,5.424 19.083,5.25 c 0,-0.522 0.261,-0.958 0.609,-0.958 0.348,0 0.608,0.436 0.608,0.958 0,0.087 0,0.174 0,0.261 l 0,0 z"
   id="path97"
   inkscape:connector-curvature="0"
   style="clip-rule:evenodd;fill:#ffffff;fill-rule:evenodd" />
</g>
</svg>